<svg width="12" height="16" viewBox="0 0 12 16" fill="none" xmlns="http://www.w3.org/2000/svg">
<path d="M0.379883 15.6201V0.69043H4.97363C6.28613 0.69043 7.4585 0.987793 8.49072 1.58252C9.52979 2.17041 10.3398 3.01123 10.9209 4.10498C11.502 5.19189 11.7925 6.4292 11.7925 7.81689V8.50391C11.7925 9.8916 11.5054 11.1255 10.9312 12.2056C10.3638 13.2856 9.56055 14.123 8.52148 14.7178C7.48242 15.3125 6.31006 15.6133 5.00439 15.6201H0.379883ZM3.45605 3.18213V13.1489H4.94287C6.146 13.1489 7.06543 12.7559 7.70117 11.9697C8.33691 11.1836 8.66162 10.0591 8.67529 8.59619V7.80664C8.67529 6.28906 8.36084 5.14062 7.73193 4.36133C7.10303 3.5752 6.18359 3.18213 4.97363 3.18213H3.45605Z" fill="black"/>
</svg>
