<svg width="30" height="18" viewBox="0 0 30 18" fill="none" xmlns="http://www.w3.org/2000/svg">
<path d="M8.15837 1.33628L8.15836 1.33629L1.17286 7.51885L1.17284 7.51887C0.748932 7.89413 0.505859 8.43384 0.505859 9C0.505859 9.56616 0.748932 10.1059 1.17284 10.4811L1.17286 10.4811L8.15841 16.6637C8.15842 16.6637 8.15842 16.6637 8.15842 16.6637C8.72214 17.1627 9.44739 17.4375 10.2002 17.4375H25.7454C27.4445 17.4375 28.8263 16.0557 28.8263 14.3567V3.64331C28.8262 1.9443 27.4444 0.5625 25.7454 0.5625H10.2002C9.44737 0.5625 8.7222 0.837338 8.15837 1.33628ZM27.0763 14.1067H27.0762V14.3567C27.0762 15.0903 26.479 15.6875 25.7454 15.6875H10.2002C9.8749 15.6875 9.56178 15.5688 9.31826 15.3532L9.31824 15.3532L2.33274 9.17067L2.16705 9.35788L2.33273 9.17066C2.26624 9.11182 2.25586 9.04099 2.25586 9C2.25586 8.95901 2.26624 8.88818 2.33273 8.82934L2.17544 8.65161L2.33274 8.82933L9.3183 2.64677L9.31832 2.64675C9.56184 2.43117 9.87496 2.3125 10.2003 2.3125H25.7454C26.479 2.3125 27.0763 2.90971 27.0763 3.64331V14.1067Z" fill="white" stroke="white" stroke-width="0.5"/>
<path d="M21.1787 12.4879L21.1787 12.4879C21.0073 12.6632 20.7798 12.7512 20.553 12.7512C20.3327 12.7512 20.1114 12.6682 19.9413 12.5018L17.5523 10.1659L15.2312 12.5533C15.0597 12.7297 14.8314 12.8184 14.6038 12.8184C14.3844 12.8184 14.1639 12.7361 13.9939 12.5707L21.1787 12.4879ZM21.1787 12.4879C21.5164 12.1424 21.5103 11.5884 21.1648 11.2506C21.1648 11.2505 21.1648 11.2505 21.1647 11.2505L18.7723 8.91114L21.1133 6.50331L20.934 6.32904L21.1133 6.50331C21.4501 6.15683 21.4424 5.60288 21.0959 5.266C20.7494 4.92903 20.1953 4.9369 19.8585 5.28339C19.8585 5.2834 19.8585 5.28341 19.8585 5.28342L17.5211 7.68764L15.1148 5.33493C15.1148 5.33492 15.1148 5.33492 15.1148 5.33491C14.7693 4.99706 14.2152 5.0033 13.8774 5.34883C13.5396 5.69435 13.5458 6.24832 13.8913 6.58617C13.8913 6.58617 13.8913 6.58617 13.8913 6.58617L16.3011 8.94239L13.9765 11.3334L14.1548 11.5068M21.1787 12.4879L14.1548 11.5068M14.1548 11.5068L13.9765 11.3334C13.6396 11.6799 13.6474 12.2338 13.9939 12.5707L14.1548 11.5068Z" fill="white" stroke="white" stroke-width="0.5"/>
</svg>
