<svg width="24" height="25" viewBox="0 0 24 25" fill="none" xmlns="http://www.w3.org/2000/svg">
<path d="M9.27262 21.7761C9.77469 21.7761 10.1817 21.3691 10.1817 20.867C10.1817 20.365 9.77469 19.958 9.27262 19.958C8.77054 19.958 8.36353 20.365 8.36353 20.867C8.36353 21.3691 8.77054 21.7761 9.27262 21.7761Z" stroke="black" stroke-width="1.5" stroke-linecap="round" stroke-linejoin="round"/>
<path d="M19.2726 21.7761C19.7747 21.7761 20.1817 21.3691 20.1817 20.867C20.1817 20.365 19.7747 19.958 19.2726 19.958C18.7705 19.958 18.3635 20.365 18.3635 20.867C18.3635 21.3691 18.7705 21.7761 19.2726 21.7761Z" stroke="black" stroke-width="1.5" stroke-linecap="round" stroke-linejoin="round"/>
<path d="M2 2.68524H5.63636L8.07273 14.858C8.15586 15.2765 8.38355 15.6525 8.71595 15.9201C9.04835 16.1876 9.46427 16.3298 9.89091 16.3216H18.7273C19.1539 16.3298 19.5698 16.1876 19.9022 15.9201C20.2346 15.6525 20.4623 15.2765 20.5455 14.858L22 7.2307H6.54545" stroke="black" stroke-width="1.5" stroke-linecap="round" stroke-linejoin="round"/>
</svg>
