<svg width="9" height="14" viewBox="0 0 9 14" fill="none" xmlns="http://www.w3.org/2000/svg">
<path d="M0.95163 12V2H5.05113C6.25613 2 7.16813 2.2325 7.79113 2.6975C8.41413 3.1625 8.72463 3.844 8.72463 4.7405C8.72463 5.2305 8.59963 5.6625 8.35163 6.0355C8.10163 6.4085 7.75413 6.682 7.30863 6.856C7.81663 6.985 8.21663 7.2425 8.50963 7.6335C8.80313 8.0215 8.95163 8.496 8.95163 9.0605C8.95163 10.0215 8.64713 10.75 8.03763 11.244C7.42813 11.738 6.56113 11.99 5.43413 12H0.95163ZM2.95163 6H5.13313C6.16463 5.9825 6.68213 5.588 6.68213 4.7775C6.68213 4.3245 6.55113 3.998 6.28963 3.799C6.02813 3.6 5.61563 3.5 5.05113 3.5H2.95163V6ZM2.95163 7.5V10.5H5.37363C5.85413 10.5 6.95163 10.2655 6.95163 9.1955C6.95163 8.1255 6.39313 7.5135 5.45163 7.5H2.95163Z" fill="white"/>
<path d="M2.45163 0.5H3.95163V3H2.45163V0.5ZM4.95163 0.5H6.45163V3H4.95163V0.5ZM2.45163 11H3.95163V13.5H2.45163V11ZM4.95163 11H6.45163V13.5H4.95163V11Z" fill="white"/>
</svg>
