<svg width="12" height="16" viewBox="0 0 12 16" fill="none" xmlns="http://www.w3.org/2000/svg">
<path d="M0.436157 15.0049V0.0751953H5.02991C6.34241 0.0751953 7.51477 0.372559 8.547 0.967285C9.58606 1.55518 10.3961 2.396 10.9772 3.48975C11.5582 4.57666 11.8488 5.81396 11.8488 7.20166V7.88867C11.8488 9.27637 11.5616 10.5103 10.9874 11.5903C10.42 12.6704 9.61682 13.5078 8.57776 14.1025C7.5387 14.6973 6.36633 14.998 5.06067 15.0049H0.436157ZM3.51233 2.56689V12.5337H4.99915C6.20227 12.5337 7.1217 12.1406 7.75745 11.3545C8.39319 10.5684 8.7179 9.44385 8.73157 7.98096V7.19141C8.73157 5.67383 8.41711 4.52539 7.78821 3.74609C7.1593 2.95996 6.23987 2.56689 5.02991 2.56689H3.51233Z" fill="black"/>
</svg>
