<svg width="18" height="19" viewBox="0 0 18 19" fill="none" xmlns="http://www.w3.org/2000/svg">
<path d="M16.2491 17.8875H0.723267V18.8575H16.2491V17.8875Z" fill="#A0AEC0"/>
<path d="M16.58 2.08997L15.5508 1.0608C14.7 0.209967 13.3141 0.209134 12.4633 1.0608L3.19998 10.3233C3.14165 10.3816 3.09915 10.4541 3.07665 10.5333L1.70415 15.3366C1.65582 15.5066 1.70332 15.6883 1.82748 15.8133C1.91998 15.9058 2.04332 15.9558 2.17082 15.9558C2.21498 15.9558 2.25998 15.95 2.30415 15.9375L7.10748 14.565C7.18748 14.5425 7.25915 14.5 7.31748 14.4416L16.58 5.17747C16.9925 4.76497 17.22 4.21663 17.22 3.63413C17.22 3.0508 16.9925 2.50163 16.58 2.08997ZM6.71998 13.665L2.87748 14.7625L3.97498 10.92L11.4333 3.4608L14.1783 6.2058L6.71998 13.665ZM15.8941 4.49163L14.865 5.5208L12.12 2.7758L13.1491 1.74663C13.6216 1.27413 14.3916 1.27413 14.865 1.74663L15.8941 2.7758C16.1233 3.00497 16.2491 3.30913 16.2491 3.6333C16.2491 3.95747 16.1233 4.26247 15.8941 4.49163Z" fill="#A0AEC0"/>
</svg>
