<svg width="21" height="21" viewBox="0 0 21 21" fill="none" xmlns="http://www.w3.org/2000/svg">
<g clip-path="url(#clip0_304_1423)">
<path d="M1.31558 13.9249C1.32619 13.9175 1.33763 13.9115 1.34906 13.9055C1.35341 13.9032 1.35777 13.9009 1.36207 13.8986C1.36633 13.8962 1.3705 13.8937 1.37466 13.8912C1.38171 13.887 1.38874 13.8828 1.39615 13.8795L1.31558 13.9249ZM1.31558 13.9249C1.30874 13.9296 1.30253 13.9353 1.29632 13.941C1.2927 13.9444 1.28908 13.9477 1.28533 13.9508L1.31558 13.9249ZM1.18216 14.0659C1.18254 14.0654 1.18297 14.0649 1.18339 14.0644C1.18402 14.0637 1.18464 14.0631 1.18502 14.0623L1.18216 14.0659ZM1.18216 14.0659C1.17868 14.0713 1.17614 14.0771 1.17361 14.083C1.17197 14.0868 1.17034 14.0905 1.16846 14.0941C1.16682 14.0972 1.16516 14.1002 1.16351 14.1033C1.1555 14.1179 1.14746 14.1326 1.1414 14.1487M1.18216 14.0659L1.12834 14.1918C1.12992 14.1866 1.13134 14.1815 1.13276 14.1764C1.13533 14.1671 1.1379 14.1578 1.1414 14.1487M1.1414 14.1487L0.954624 14.0772C0.954569 14.0773 0.954513 14.0775 0.954458 14.0776C0.954403 14.0778 0.954348 14.0779 0.954293 14.0781L1.1414 14.1487ZM0.907025 14.3534C0.906476 14.3476 0.906049 14.3407 0.906049 14.3328C0.906049 14.3129 0.90823 14.2959 0.909137 14.2889L0.909187 14.2885L0.90994 14.2826L0.909996 14.2815L0.910029 14.2815C0.910113 14.2803 0.91021 14.2786 0.910328 14.2766C0.911132 14.263 0.912934 14.2324 0.918616 14.203L0.907025 14.3534ZM0.907025 14.3534C0.908093 14.3783 0.911399 14.4019 0.912804 14.412C0.913046 14.4137 0.913231 14.415 0.913339 14.4159L0.913358 14.416C0.913582 14.4178 0.913649 14.4186 0.913833 14.4208C0.914007 14.4228 0.914284 14.4261 0.914892 14.4325C0.91575 14.4416 0.91736 14.4575 0.921083 14.4756C0.924598 14.4935 0.929428 14.5078 0.931244 14.5131L0.93134 14.5134L0.932208 14.516C0.937611 14.537 0.94616 14.5698 0.95976 14.6031L0.960182 14.6041C0.963243 14.6114 0.966279 14.6176 0.968662 14.6221C0.983199 14.6547 1.0005 14.6875 1.02117 14.7193L1.02115 14.7193L1.02299 14.722C1.03229 14.7358 1.04162 14.7467 1.04517 14.7508L1.04543 14.7511L1.04816 14.7543C1.04887 14.7553 1.04964 14.7563 1.05046 14.7574C1.06133 14.772 1.08133 14.7988 1.10442 14.8227L1.10439 14.8227L1.1077 14.826C1.11374 14.8319 1.11925 14.8368 1.12343 14.8404L1.13323 14.8485L1.13605 14.8509L1.13633 14.8511C1.15221 14.8656 1.17368 14.8847 1.199 14.9032C1.20017 14.9041 1.20141 14.9051 1.2027 14.9061L1.20841 14.9105L1.21441 14.9145L9.30052 20.2899L9.30056 20.2899C9.61799 20.5009 10.0401 20.4044 10.2411 20.0815C10.3134 19.9659 10.3475 19.8366 10.3475 19.7092C10.3475 19.4848 10.2403 19.2614 10.0392 19.1275L10.0391 19.1275L3.86951 15.0259H19.4691C19.8491 15.0259 20.1468 14.7098 20.1468 14.3328C20.1468 13.9558 19.8491 13.6397 19.4691 13.6397H1.58371C1.57746 13.6397 1.57221 13.64 1.56855 13.6403C1.56803 13.6403 1.56754 13.6403 1.56708 13.6404L1.56469 13.6406M0.907025 14.3534L1.56079 13.6409C1.56043 13.641 1.56064 13.641 1.56121 13.6409M1.56469 13.6406L1.56266 13.6408L1.56121 13.6409M1.56469 13.6406C1.56704 13.6404 1.57086 13.6402 1.57565 13.6401M1.56469 13.6406C1.56325 13.6407 1.56194 13.6408 1.56121 13.6409M1.56121 13.6409L1.57565 13.6401M1.57565 13.6401L1.57893 13.64L1.57565 13.6401ZM1.02293 13.9449C1.02209 13.946 1.02123 13.9471 1.02036 13.9483L1.02012 13.9481L1.01415 13.9574C1.00216 13.9759 0.994692 13.993 0.991816 13.9995L0.991809 13.9995L0.990075 14.0035L1.02293 13.9449ZM1.02293 13.9449C1.03897 13.9213 1.05636 13.9005 1.06652 13.8884L1.02293 13.9449ZM1.07425 13.8784C1.07862 13.8726 1.08812 13.8601 1.10092 13.8468L1.07425 13.8784ZM1.07425 13.8784L1.07114 13.8825M1.07425 13.8784L1.07114 13.8825M1.07114 13.8825L1.06925 13.8851M1.07114 13.8825L1.06925 13.8851M1.06925 13.8851C1.06911 13.8852 1.06899 13.8854 1.0689 13.8855L1.06925 13.8851ZM1.13672 14.8514C1.13675 14.8514 1.13675 14.8514 1.13672 14.8514L1.13672 14.8514Z" fill="#F7FAFC" stroke="#F7FAFC" stroke-width="0.4"/>
<path d="M19.537 7.03769C19.5159 7.04098 19.4949 7.04426 19.4736 7.04459C19.4728 7.04459 19.4721 7.04468 19.4714 7.04476C19.4706 7.04484 19.4699 7.04492 19.4691 7.04492L1.58371 7.04492C1.31972 7.04492 1.10605 6.82403 1.10605 6.55186C1.10605 6.27968 1.31972 6.05879 1.58371 6.05879L17.4842 6.05879L17.1834 5.85879M19.537 7.03769L10.9818 0.908874C10.8388 1.13799 10.9028 1.44303 11.1244 1.59029L17.5446 5.85879H17.1834M19.537 7.03769C19.5412 7.037 19.5456 7.0366 19.55 7.03619C19.556 7.03564 19.5621 7.03508 19.5682 7.03375M19.537 7.03769L11.0138 1.75687M17.1834 5.85879L11.0138 1.75687M17.1834 5.85879L1.58371 5.85879C1.20324 5.85879 0.906049 6.17535 0.906049 6.55186C0.906049 6.92836 1.20324 7.24492 1.58371 7.24492L19.4691 7.24492C19.475 7.24492 19.4802 7.24467 19.4842 7.24438M20.0778 6.24987C20.0699 6.23305 20.0617 6.2177 20.0534 6.20301L20.0529 6.20226C20.0343 6.16997 20.014 6.14089 19.993 6.11435C19.9926 6.11385 19.9768 6.09291 19.9637 6.07832L19.9637 6.0783L19.9617 6.07606C19.9292 6.04087 19.8931 6.0086 19.8529 5.98007C19.8483 5.97643 19.8429 5.97244 19.8366 5.9684L11.7526 0.594072L11.7524 0.59393C11.4349 0.383413 11.013 0.480429 10.8121 0.803074L19.9227 6.70018C19.9255 6.69163 19.9283 6.68289 19.9302 6.67414L20.1245 6.72158C20.1247 6.72097 20.1248 6.72036 20.125 6.71974C20.1364 6.67249 20.1466 6.61629 20.1471 6.55403V6.55251V6.55251V6.5525V6.55249V6.55248V6.55248V6.55247V6.55246V6.55245V6.55244V6.55244V6.55243V6.55242V6.55241V6.55241V6.5524V6.55239V6.55238V6.55237V6.55237V6.55236V6.55235V6.55234V6.55234V6.55233V6.55232V6.55231V6.55231V6.5523V6.55229V6.55228V6.55227V6.55227V6.55226V6.55225V6.55224V6.55224V6.55223V6.55222V6.55221V6.55221V6.5522V6.55219V6.55218V6.55217V6.55217V6.55216V6.55215V6.55214V6.55214V6.55213V6.55212V6.55211V6.55211V6.5521V6.55209V6.55208V6.55207V6.55207V6.55206V6.55205V6.55204V6.55204V6.55203V6.55202V6.55201V6.552V6.552V6.55199V6.55198V6.55197V6.55197V6.55196V6.55195V6.55194V6.55194V6.55193V6.55192V6.55191V6.5519V6.5519V6.55189V6.55188V6.55187V6.55187V6.55186V6.55185V6.55184V6.55184V6.55183V6.55182V6.55181V6.5518V6.5518V6.55179V6.55178V6.55177V6.55177V6.55176V6.55175V6.55174V6.55173V6.55173V6.55172V6.55171V6.5517V6.5517V6.55169V6.55168V6.55167V6.55167V6.55166V6.55165V6.55164V6.55163V6.55163V6.55162V6.55161V6.5516V6.5516V6.55159V6.55158V6.55157V6.55157V6.55156V6.55155V6.55154V6.55153V6.55153V6.55152V6.55151V6.5515V6.55149V6.55148V6.55147V6.55147V6.55146V6.55145V6.55144V6.55143V6.55142V6.55142V6.55141V6.5514V6.55139V6.55138V6.55137V6.55137V6.55136V6.55135V6.55134V6.55133V6.55132V6.55132V6.55131V6.5513V6.55129V6.55128V6.55128V6.55127V6.55126V6.55125V6.55125V6.55124V6.55123V6.55122V6.55121V6.55121V6.5512C20.1471 6.49393 20.139 6.44198 20.129 6.39672L19.9337 6.44009M20.0778 6.24987C20.0944 6.28472 20.1074 6.32009 20.1174 6.35525L20.1188 6.36016L20.1205 6.3654L20.1205 6.36559C20.1222 6.37102 20.126 6.38315 20.1291 6.39734L19.9337 6.44009M20.0778 6.24987C20.0779 6.25005 20.078 6.25022 20.0781 6.25039L19.8971 6.33556M20.0778 6.24987C20.0777 6.2497 20.0777 6.24953 20.0776 6.24935L19.8971 6.33556M19.9337 6.44009C19.9417 6.47592 19.9471 6.51274 19.9471 6.5512V6.55153V6.55251L19.8971 6.33556M19.9337 6.44009C19.9325 6.43428 19.9307 6.42857 19.9289 6.42291C19.9276 6.41865 19.9262 6.41442 19.9251 6.41018C19.9178 6.38454 19.9086 6.35956 19.8971 6.33556M11.0138 1.75687C10.7 1.54838 10.6132 1.12195 10.812 0.803159L11.0138 1.75687ZM19.4842 7.24438C19.4852 7.24432 19.4861 7.24424 19.4869 7.24417L19.4891 7.24395M19.4842 7.24438C19.4817 7.24447 19.4792 7.24453 19.4767 7.24457C19.4818 7.24447 19.4861 7.2442 19.4891 7.24395M19.4842 7.24438C19.517 7.24329 19.5468 7.23859 19.5648 7.23577L19.5662 7.23556L19.5713 7.23508L19.5715 7.23506C19.5778 7.23446 19.5932 7.233 19.6109 7.22912L19.5682 7.03375M19.4891 7.24395L19.492 7.24369L19.4933 7.24354C19.4924 7.24365 19.4908 7.24381 19.4891 7.24395ZM19.5682 7.03375C19.5836 7.03045 19.5981 7.0251 19.613 7.0196C19.616 7.01851 19.619 7.01741 19.622 7.01632M19.5682 7.03375L19.6099 7.22933C19.6413 7.22263 19.6722 7.21105 19.6856 7.20606C19.6864 7.20575 19.6871 7.20547 19.6878 7.20522M19.622 7.01632L19.6871 7.20544L19.6868 7.20553C19.6868 7.20553 19.6871 7.20543 19.6878 7.20522M19.622 7.01632C19.6265 7.01477 19.6311 7.01342 19.6356 7.01207C19.6426 7.01 19.6496 7.00793 19.6564 7.00515L19.622 7.01632ZM19.6878 7.20522C19.688 7.20516 19.6882 7.20509 19.6884 7.20502L19.6966 7.2026C19.7035 7.20054 19.7173 7.19637 19.7327 7.19001L19.7327 7.19003L19.7354 7.18887C19.766 7.17572 19.7977 7.15607 19.8099 7.14848C19.8118 7.14733 19.8132 7.14646 19.8141 7.14593M19.6878 7.20522L19.8141 7.14593M19.8141 7.14593L19.8142 7.14611M19.8141 7.14593L19.8142 7.14611M19.8142 7.14611L19.8157 7.14507M19.8142 7.14611L19.8157 7.14507M19.8157 7.14507C19.8188 7.14349 19.8247 7.14044 19.8314 7.13654C19.8375 7.13299 19.8453 7.12813 19.8539 7.12181L19.8157 7.14507ZM19.8696 6.81943C19.8689 6.82031 19.8682 6.82118 19.8678 6.82206L19.8696 6.81943ZM19.8696 6.81943C19.87 6.81899 19.8704 6.81855 19.8707 6.81811M19.8696 6.81943L19.8707 6.81811M19.8707 6.81811C19.8718 6.8163 19.8725 6.8145 19.8732 6.81269M19.8707 6.81811L19.8732 6.81269M19.8732 6.81269C19.8739 6.81088 19.8747 6.80907 19.8758 6.80726L19.8732 6.81269ZM19.9897 6.99158C19.999 6.98048 20.0167 6.95926 20.0323 6.93596L19.9058 7.0784C19.9072 7.07716 19.9082 7.07638 19.9088 7.07584C19.9096 7.07518 19.9101 7.07485 19.9106 7.07443C19.9117 7.07353 19.9134 7.07225 19.9205 7.06635C19.9279 7.06018 19.9394 7.05035 19.9516 7.03781L19.9516 7.03781C19.9653 7.02369 19.9755 7.01004 19.98 7.0041L19.9852 6.99708C19.9856 6.99651 19.9858 6.99625 19.9859 6.99624L19.9861 6.996C19.9871 6.99479 19.9883 6.99331 19.9897 6.99158Z" fill="#F7FAFC" stroke="#F7FAFC" stroke-width="0.4"/>
</g>
<defs>
<clipPath id="clip0_304_1423">
<rect width="20.6061" height="20" fill="white" transform="matrix(0 -1 1 0 0.5 20.8079)"/>
</clipPath>
</defs>
</svg>
