<svg width="55" height="58" viewBox="0 0 55 58" fill="none" xmlns="http://www.w3.org/2000/svg">
<path fill-rule="evenodd" clip-rule="evenodd" d="M30.1968 0.12406C29.3289 0.0415343 28.4539 0 27.5739 0C20.828 0 14.4675 2.44941 9.54822 6.80207L10.2161 7.53601C14.9536 3.34417 21.077 0.98609 27.5739 0.98609C28.4218 0.98609 29.2648 1.0261 30.1008 1.1056L30.1968 0.12406ZM32.3494 0.41525C39.8444 1.73448 46.3988 6.1369 50.4324 12.4483L49.5864 12.9741C45.7018 6.89574 39.3898 2.65613 32.1737 1.386L32.3494 0.41525ZM54.5739 26.6244C54.5739 29.5795 54.0852 32.6556 53.1461 35.7023L52.1893 35.4155C53.1005 32.4595 53.5739 29.4796 53.5739 26.6244C53.5739 22.3972 52.5357 18.3185 50.5771 14.6635L51.4612 14.2028C53.4955 17.999 54.5739 22.2357 54.5739 26.6244ZM0.573853 26.6244C0.573853 19.6377 3.31549 13.0753 8.1354 8.14614L8.85526 8.8306C4.21332 13.5778 1.57385 19.8956 1.57385 26.6244C1.57385 27.1685 1.59103 27.7176 1.62525 28.2707L0.62711 28.3307C0.591659 27.7577 0.573853 27.1887 0.573853 26.6244ZM0.820196 30.3293C1.75058 37.4403 5.25941 44.659 10.3482 49.94L11.0731 49.2607C6.12987 44.1308 2.71507 37.1055 1.81198 30.2031L0.820196 30.3293ZM27.5679 58C21.9133 57.9983 16.4312 55.5976 11.7588 51.3163L12.4395 50.594C16.937 54.7149 22.1831 57.0123 27.5682 57.0139L27.5679 58ZM27.5739 51.6651C31.8295 51.6651 35.9643 49.7292 39.5203 46.2877L38.8199 45.5839C35.4388 48.856 31.5453 50.679 27.5739 50.679V51.6651ZM47.147 33.3727C45.9507 37.543 43.7604 41.5896 40.9404 44.7965L40.1849 44.1504C42.9076 41.0542 45.028 37.1368 46.1848 33.1043L47.147 33.3727ZM47.6324 31.4159C47.9744 29.7799 48.1496 28.1692 48.1496 26.6244C48.1496 23.7927 47.5607 21.0416 46.4346 18.5024L45.5184 18.8975C46.5895 21.3127 47.1496 23.9293 47.1496 26.6244C47.1496 28.1006 46.9816 29.6447 46.653 31.2168L47.6324 31.4159ZM35.79 8.01719C39.9091 9.78816 43.3404 12.8567 45.5359 16.7205L44.6635 17.2025C42.5745 13.5262 39.309 10.6059 35.3903 8.9211L35.79 8.01719ZM33.8534 7.29728C31.8644 6.66938 29.7786 6.34252 27.649 6.33501C25.1897 6.33488 22.8498 6.7353 20.6333 7.51828L20.9706 8.4466C23.0787 7.70187 25.3046 7.32097 27.6472 7.3211C29.6724 7.32824 31.6566 7.63918 33.5485 8.23642L33.8534 7.29728ZM9.29809 17.294C11.3665 13.3623 14.6981 10.1881 18.7561 8.28734L19.1851 9.17805C15.3244 10.9864 12.1538 14.0072 10.1858 17.7481L9.29809 17.294ZM8.44171 19.1442C7.50074 21.4825 7.00718 23.9846 6.99822 26.5531C6.99809 28.3933 7.22799 30.2579 7.68093 32.1559L8.65434 31.93C8.21868 30.1044 7.9981 28.3154 7.99822 26.5549C8.00674 24.1119 8.4762 21.732 9.3712 19.5079L8.44171 19.1442ZM14.726 45.3692C11.8331 42.2682 9.54035 38.2797 8.22215 34.1075L9.17689 33.8142C10.4518 37.8495 12.6709 41.7098 15.462 44.7016L14.726 45.3692ZM16.1551 46.7834C19.5831 49.9071 23.5026 51.6527 27.5307 51.6651L27.5338 50.679C23.776 50.6674 20.089 49.0254 16.8338 46.0592L16.1551 46.7834ZM36.4421 40.3913C33.8499 43.5189 30.7629 45.3302 27.5739 45.3302V44.3442C30.4224 44.3442 33.2491 42.6856 35.6677 39.7673L36.4421 40.3913ZM37.683 38.7334C39.5727 35.9421 40.9353 32.5894 41.4731 29.4413L40.487 29.2775C39.9728 32.2873 38.6633 35.5094 36.8513 38.1859L37.683 38.7334ZM41.7254 26.6404C41.7251 26.8948 41.7179 27.1536 41.7039 27.4161L40.7052 27.3643C40.7184 27.1184 40.7251 26.8766 40.7254 26.6398C40.7254 23.6155 39.6834 20.763 37.8009 18.4701L38.5781 17.8496C40.6036 20.3166 41.7254 23.3877 41.7254 26.6404ZM37.1337 16.3351C34.5597 14.0085 31.2074 12.6874 27.6456 12.6699L27.6407 13.656C30.9515 13.6722 34.0654 14.8994 36.458 17.062L37.1337 16.3351ZM16.6834 17.7127C18.9213 15.0565 22.0803 13.2945 25.5782 12.8075L25.718 13.7839C22.4684 14.2363 19.5329 15.8736 17.4527 18.3429L16.6834 17.7127ZM15.4283 19.4584C14.1224 21.6062 13.4223 24.0653 13.4223 26.6244C13.4223 27.4682 13.4983 28.3582 13.6474 29.2777L14.6348 29.122C14.4939 28.2526 14.4223 27.4144 14.4223 26.6244C14.4223 24.2452 15.0726 21.9611 16.286 19.9655L15.4283 19.4584ZM18.5793 40.2373C16.5294 37.7134 14.9197 34.485 14.0712 31.2626L15.0391 31.0148C15.8528 34.1051 17.3997 37.2076 19.3598 39.6208L18.5793 40.2373ZM19.9997 41.8015C22.3079 44.0627 24.8996 45.3259 27.5602 45.3302L27.5618 44.3441C25.1924 44.3403 22.8395 43.1935 20.7045 41.102L19.9997 41.8015ZM34.6236 30.5871C33.2129 35.3004 30.4827 38.9954 27.5739 38.9954V38.0093C29.8773 38.0093 32.3687 34.6375 33.6645 30.308L34.6236 30.5871ZM35.1065 28.5862C35.2344 27.8722 35.3009 27.2099 35.3011 26.628C35.3011 23.2353 33.0373 20.2813 29.793 19.3237L29.5062 20.2683C32.33 21.1018 34.3011 23.6739 34.3011 26.6277C34.3009 27.148 34.2401 27.7541 34.1217 28.4146L35.1065 28.5862ZM27.5774 19.0046C27.6449 19.0047 27.7123 19.0056 27.7796 19.0073L27.7535 19.993C27.6947 19.9915 27.6359 19.9908 27.5772 19.9907C24.025 19.9907 21.0916 22.7097 20.8611 26.1844L19.8633 26.12C20.1281 22.1276 23.4973 19.0046 27.5774 19.0046ZM19.9774 28.2007C20.5489 31.9673 22.6458 36.3207 25.0455 38.0809L25.6423 37.2897C23.4879 35.7094 21.5024 31.5871 20.9664 28.0547L19.9774 28.2007ZM27.5467 38.9953C27.3996 38.9941 27.2527 38.9838 27.1061 38.9643L27.2393 37.987C27.3446 38.001 27.4496 38.0084 27.5545 38.0092L27.5467 38.9953Z" fill="white"/>
</svg>
