<svg width="13" height="16" viewBox="0 0 13 16" fill="none" xmlns="http://www.w3.org/2000/svg">
<path d="M12.1924 13.3237C11.6387 13.9868 10.856 14.5029 9.84424 14.8721C8.83252 15.2344 7.71143 15.4155 6.48096 15.4155C5.18896 15.4155 4.0542 15.1353 3.07666 14.5747C2.10596 14.0073 1.354 13.187 0.820801 12.1138C0.294434 11.0405 0.0244141 9.7793 0.0107422 8.33008V7.31494C0.0107422 5.82471 0.260254 4.53613 0.759277 3.44922C1.26514 2.35547 1.98975 1.52148 2.93311 0.947266C3.8833 0.366211 4.99414 0.0756836 6.26562 0.0756836C8.03613 0.0756836 9.42041 0.499512 10.4185 1.34717C11.4165 2.18799 12.0078 3.41504 12.1924 5.02832H9.19824C9.06152 4.17383 8.75732 3.54834 8.28564 3.15186C7.8208 2.75537 7.17822 2.55713 6.35791 2.55713C5.31201 2.55713 4.51562 2.9502 3.96875 3.73633C3.42188 4.52246 3.14502 5.69141 3.13818 7.24316V8.19678C3.13818 9.76221 3.43555 10.9448 4.03027 11.7446C4.625 12.5444 5.49658 12.9443 6.64502 12.9443C7.80029 12.9443 8.62402 12.6982 9.11621 12.2061V9.63232H6.31689V7.36621H12.1924V13.3237Z" fill="black"/>
</svg>
