<svg width="23" height="23" viewBox="0 0 23 23" fill="none" xmlns="http://www.w3.org/2000/svg">
<path d="M21.2761 5.86476H15.0825C15.8156 5.5618 16.5412 5.21715 17.1065 4.87065L17.1076 4.86996C17.7777 4.4512 18.3464 4.08487 18.7562 3.72438C19.1646 3.36511 19.4389 2.99137 19.4812 2.55163C19.5364 2.12858 19.3352 1.72569 18.9822 1.37269L18.9823 1.37264L18.9789 1.36946C18.3273 0.756989 17.5044 0.708431 16.679 0.91943C15.8569 1.12958 15.0063 1.60252 14.2603 2.07179L14.2602 2.07182C13.0252 2.84942 11.9915 4.29738 11.3895 5.24919C10.7866 4.27906 9.75225 2.85016 8.51606 2.07182L8.51601 2.07179C7.76964 1.60229 6.9131 1.12949 6.08816 0.919397C5.26064 0.708641 4.43647 0.756473 3.79631 1.3705L3.79629 1.37048L3.79408 1.37269C3.44107 1.7257 3.23983 2.1286 3.29507 2.55166C3.33735 2.99139 3.61168 3.36512 4.02007 3.72438C4.42986 4.08487 4.99863 4.4512 5.66864 4.86996L5.66864 4.86996L5.66976 4.87065C6.23511 5.21715 6.96067 5.5618 7.69382 5.86476H1.50014C1.1533 5.86476 0.870142 6.14791 0.870142 6.49476V10.6948C0.870142 11.0416 1.1533 11.3248 1.50014 11.3248H2.64614V21.9028C2.64614 22.2496 2.9293 22.5328 3.27614 22.5328H19.5241C19.871 22.5328 20.1541 22.2496 20.1541 21.9028V11.3248H21.3001C21.647 11.3248 21.9301 11.0416 21.9301 10.6948V6.49476H21.9308L21.9295 6.48118C21.8992 6.14769 21.6253 5.86476 21.2761 5.86476ZM16.447 3.77413L16.4461 3.77463C15.4782 4.36381 13.9587 4.95703 12.7896 5.36824C13.3367 4.57013 14.1001 3.64038 14.924 3.11772C16.2635 2.28058 17.0488 2.03676 17.5081 2.03676C17.8291 2.03676 18.0067 2.14147 18.1221 2.25682C18.1754 2.31019 18.2092 2.35466 18.2285 2.38693C18.2353 2.3983 18.2396 2.4069 18.2423 2.41288C18.2366 2.42785 18.2252 2.45048 18.2036 2.48138C18.1716 2.52718 18.1245 2.5809 18.0628 2.64137C17.9395 2.7622 17.7699 2.89827 17.5788 3.03753C17.1974 3.31546 16.7461 3.59468 16.447 3.77413ZM4.53396 2.41288C4.53664 2.4069 4.54094 2.3983 4.54777 2.38693C4.56713 2.35466 4.60084 2.31019 4.65421 2.25682C4.72467 2.18636 4.81443 2.12134 4.94054 2.08044C5.06751 2.03926 5.23973 2.01982 5.47829 2.0533C5.95979 2.12088 6.69423 2.40149 7.82798 3.11754C8.65598 3.64268 9.42299 4.57922 9.97019 5.3949C8.80123 4.98396 7.27892 4.39015 6.30876 3.80022C6.2479 3.75966 6.18044 3.71522 6.10834 3.66771C5.83511 3.48768 5.49529 3.26377 5.19554 3.04131C5.00559 2.90033 4.83657 2.76342 4.71344 2.64205C4.65182 2.58132 4.60476 2.52746 4.57275 2.48154C4.55113 2.45054 4.53972 2.42788 4.53396 2.41288ZM2.13014 7.12476H10.7581V10.0648H3.27614H2.13014V7.12476ZM3.90614 11.3248H10.7581V21.2728H3.90614V11.3248ZM18.8701 21.2728H12.0181V11.3248H18.8701V21.2728ZM20.6461 10.0648H19.5001H12.0181V7.12476H20.6461V10.0648Z" fill="white" stroke="white" stroke-width="0.3"/>
</svg>
