<svg width="340" height="232" viewBox="0 0 340 232" fill="none" xmlns="http://www.w3.org/2000/svg">
<path d="M325.466 168.196C323.621 142.441 293.274 112.018 297.905 86.2265C302.009 63.221 298.244 50.231 273.619 39.3871C254.642 31.0283 253.437 15.8544 232.427 6.06485C213.526 -2.70813 197.185 11.1479 173.125 3.01502C141.798 -7.60292 133.553 12.2775 111.94 24.6651C86.0354 39.5001 77.7519 23.4226 56.629 38.1446C32.2303 55.1634 57.6833 81.2941 54.7088 102.116C50.7929 129.338 29.9712 138.262 22.4031 168.798C15.9646 194.778 23.6833 229.606 58.0598 229.606C72.3677 229.606 270.343 229.606 282.016 229.606C318.199 229.606 328.027 203.702 325.466 168.196Z" fill="#FEF8EC"/>
<path d="M196.018 65.1038C196.018 65.1038 201.779 51.9631 197.223 44.8845C192.365 37.3164 186.906 43.1901 190.069 53.3186C192.215 60.2466 196.018 65.1038 196.018 65.1038Z" fill="#F2E6D6"/>
<path d="M186.605 112.433C189.165 106.484 191.386 100.346 192.968 94.0583C195.076 85.6619 195.905 77.0019 195.604 68.3418C195.415 63.1082 194.85 57.8745 194.022 52.6785C193.909 51.8878 195.114 51.6242 195.227 52.4149C196.62 61.4515 197.336 70.601 196.545 79.7128C195.792 88.7494 193.608 97.56 190.445 106.069C189.654 108.14 188.826 110.211 187.96 112.282L186.605 112.433Z" fill="#F2E6D6"/>
<path d="M195.867 80.6541C195.867 80.6541 209.309 75.6087 211.192 67.4381C213.225 58.6652 205.205 58.8534 200.159 68.1912C196.733 74.5544 195.867 80.6541 195.867 80.6541Z" fill="#F2E6D6"/>
<path d="M194.436 89.6531C194.436 89.6531 181.823 82.8004 181.07 74.4416C180.241 65.4803 188.186 66.7605 191.876 76.7007C194.436 83.5158 194.436 89.6531 194.436 89.6531Z" fill="#F2E6D6"/>
<path d="M190.182 103.999C190.182 103.999 177.568 97.1458 176.815 88.787C175.987 79.8258 183.931 81.106 187.621 91.0462C190.182 97.8612 190.182 103.999 190.182 103.999Z" fill="#F2E6D6"/>
<path d="M192.516 98.5765C192.516 98.5765 206.786 97.1457 210.74 89.7659C214.957 81.8212 207.163 79.9386 199.896 87.6573C194.888 92.891 192.516 98.5765 192.516 98.5765Z" fill="#F2E6D6"/>
<path d="M193.043 97.8614L192.893 97.4472C201.44 94.6233 204.866 89.5026 204.904 89.4272L205.28 89.6908C205.28 89.7285 201.741 94.9998 193.043 97.8614Z" fill="#FEF8EC"/>
<path d="M196.432 79.2987L196.244 78.8846C203.887 74.9687 206.523 66.3087 206.523 66.2334L206.974 66.3464C206.899 66.4593 204.263 75.3076 196.432 79.2987Z" fill="#FEF8EC"/>
<path d="M196.138 63.4519L193.854 49.29L193.408 49.362L195.692 63.5239L196.138 63.4519Z" fill="#FEF8EC"/>
<path d="M190.069 103.321C187.395 101.551 181.635 90.4436 181.371 89.9918L181.785 89.7659C181.86 89.8788 187.734 101.212 190.332 102.944L190.069 103.321Z" fill="#FEF8EC"/>
<path d="M193.721 88.0341C191.048 86.2644 185.287 75.157 185.023 74.7052L185.437 74.4792C185.513 74.5922 191.386 85.9255 193.984 87.6575L193.721 88.0341Z" fill="#FEF8EC"/>
<path d="M181.409 123.653H195.829L200.913 114.955H176.363L181.409 123.653Z" fill="#F2E6D6"/>
<path d="M195.98 123.879H181.296L175.987 114.729H201.327L195.98 123.879ZM181.522 123.427H195.716L200.498 115.181H176.702L181.522 123.427Z" fill="#FEF8EC"/>
<path d="M176.288 115.068H200.988C202.456 115.068 203.661 113.863 203.661 112.395V109.006C203.661 107.538 202.456 106.333 200.988 106.333H176.288C174.819 106.333 173.615 107.538 173.615 109.006V112.395C173.615 113.863 174.819 115.068 176.288 115.068Z" fill="#F2E6D6"/>
<path d="M200.988 115.294H176.288C174.707 115.294 173.389 114.014 173.389 112.395V109.006C173.389 107.425 174.669 106.107 176.288 106.107H200.988C202.569 106.107 203.887 107.387 203.887 109.006V112.395C203.849 113.976 202.569 115.294 200.988 115.294ZM176.288 106.596C174.932 106.596 173.841 107.688 173.841 109.044V112.433C173.841 113.788 174.932 114.88 176.288 114.88H200.988C202.343 114.88 203.435 113.788 203.435 112.433V109.044C203.435 107.688 202.343 106.596 200.988 106.596H176.288Z" fill="#FEF8EC"/>
<path d="M202.532 166.539C199.406 166.539 197.298 166.539 197.298 166.539C197.298 166.539 182.839 164.242 186.19 136.379C186.605 132.802 189.014 129.752 192.403 128.51C200.235 125.648 216.237 120.979 237.134 120.979C237.134 120.979 237.36 121.017 237.699 121.055C219.099 121.657 204.904 125.837 197.674 128.472C194.286 129.715 191.914 132.765 191.462 136.342C188.073 164.28 202.532 166.539 202.532 166.539Z" fill="#D3C8BC"/>
<path d="M202.532 166.765H197.298C197.11 166.727 193.533 166.125 190.332 162.058C187.395 158.331 184.27 150.838 186.002 136.379C186.454 132.689 188.864 129.639 192.328 128.359C200.047 125.535 216.124 120.829 237.134 120.829C237.134 120.829 237.36 120.867 237.736 120.904L239.544 121.243L237.699 121.318C218.91 121.958 204.602 126.251 197.712 128.736C194.399 129.941 192.064 132.915 191.65 136.417C188.374 163.79 202.456 166.35 202.569 166.35L202.532 166.765ZM229.227 121.431C212.171 122.41 199.143 126.288 192.441 128.698C189.127 129.903 186.793 132.878 186.379 136.379C183.103 163.752 197.185 166.313 197.298 166.313H201.138C199.783 165.786 197.599 164.581 195.528 162.02C192.591 158.293 189.466 150.8 191.198 136.342C191.65 132.652 194.06 129.602 197.524 128.322C203.36 126.213 214.543 122.824 229.227 121.431Z" fill="#030303"/>
<path d="M248.693 135.099C244.288 148.353 239.77 159.535 239.77 159.535C239.77 159.535 237.623 166.539 228.888 166.539H223.654C232.39 166.539 234.536 159.535 234.536 159.535C234.536 159.535 239.054 148.353 243.46 135.099C247.262 123.69 239.807 121.469 237.661 121.092C239.205 121.017 240.749 121.017 242.368 121.017C242.368 121.017 253.136 121.883 248.693 135.099Z" fill="white"/>
<path d="M228.926 167.104H202.456C202.306 167.066 198.578 166.463 195.302 162.284C190.972 156.787 189.504 148.052 190.897 136.342C191.349 132.539 193.872 129.338 197.448 128.021C205.167 125.197 221.32 120.452 242.368 120.452H242.405C242.594 120.452 246.66 120.829 248.919 124.218C250.689 126.891 250.802 130.581 249.22 135.25C244.853 148.353 240.334 159.611 240.259 159.724C240.297 159.799 237.962 167.104 228.926 167.104ZM202.607 166.012H228.926C237.134 166.012 239.205 159.648 239.28 159.385C239.355 159.234 243.874 148.014 248.204 134.949C249.635 130.619 249.597 127.23 248.015 124.858C246.133 121.996 242.631 121.582 242.33 121.544C221.433 121.544 205.468 126.251 197.825 129.037C194.625 130.204 192.365 133.028 191.989 136.455C190.295 150.612 193.307 157.879 196.131 161.531C198.955 165.183 202.23 165.936 202.607 166.012Z" fill="#030303"/>
<path d="M246.585 223.055C247.639 223.055 248.467 222.377 248.467 221.511V164.769H244.702V221.511C244.702 222.377 245.53 223.055 246.585 223.055Z" fill="#D8CDC0"/>
<path d="M245.982 165.447H245.455V220.946H245.982V165.447Z" fill="#030303"/>
<path d="M228.06 228.665H227.533V223.394C227.533 219.779 230.47 216.88 234.046 216.88H259.01C262.587 216.88 265.524 219.817 265.524 223.394V227.799H264.997V223.394C264.997 220.08 262.323 217.407 259.01 217.407H234.046C230.733 217.407 228.06 220.08 228.06 223.394V228.665Z" fill="#030303"/>
<path d="M218.458 228.665H217.931V223.394C217.931 219.779 220.868 216.88 224.445 216.88H268.611C272.226 216.88 275.125 219.817 275.125 223.394V227.799H274.598V223.394C274.598 220.08 271.925 217.407 268.611 217.407H224.445C221.132 217.407 218.458 220.08 218.458 223.394V228.665Z" fill="#030303"/>
<path d="M228.926 230.887C230.652 230.887 232.051 229.487 232.051 227.761C232.051 226.035 230.652 224.636 228.926 224.636C227.2 224.636 225.801 226.035 225.801 227.761C225.801 229.487 227.2 230.887 228.926 230.887Z" fill="#A0DAF8"/>
<path d="M219.513 230.887C221.239 230.887 222.638 229.487 222.638 227.761C222.638 226.035 221.239 224.636 219.513 224.636C217.787 224.636 216.388 226.035 216.388 227.761C216.388 229.487 217.787 230.887 219.513 230.887Z" fill="#A0DAF8"/>
<path d="M276.066 230.887C277.792 230.887 279.192 229.487 279.192 227.761C279.192 226.035 277.792 224.636 276.066 224.636C274.34 224.636 272.941 226.035 272.941 227.761C272.941 229.487 274.34 230.887 276.066 230.887Z" fill="#A0DAF8"/>
<path d="M266.202 230.887C267.928 230.887 269.327 229.487 269.327 227.761C269.327 226.035 267.928 224.636 266.202 224.636C264.476 224.636 263.076 226.035 263.076 227.761C263.076 229.487 264.476 230.887 266.202 230.887Z" fill="#A0DAF8"/>
<path d="M227.796 230.887C229.522 230.887 230.921 229.487 230.921 227.761C230.921 226.035 229.522 224.636 227.796 224.636C226.07 224.636 224.671 226.035 224.671 227.761C224.671 229.487 226.07 230.887 227.796 230.887Z" fill="#030303"/>
<path d="M218.383 230.887C220.109 230.887 221.508 229.487 221.508 227.761C221.508 226.035 220.109 224.636 218.383 224.636C216.657 224.636 215.258 226.035 215.258 227.761C215.258 229.487 216.657 230.887 218.383 230.887Z" fill="#030303"/>
<path d="M274.937 230.887C276.663 230.887 278.062 229.487 278.062 227.761C278.062 226.035 276.663 224.636 274.937 224.636C273.211 224.636 271.812 226.035 271.812 227.761C271.812 229.487 273.211 230.887 274.937 230.887Z" fill="#030303"/>
<path d="M265.072 230.887C266.798 230.887 268.197 229.487 268.197 227.761C268.197 226.035 266.798 224.636 265.072 224.636C263.346 224.636 261.947 226.035 261.947 227.761C261.947 229.487 263.346 230.887 265.072 230.887Z" fill="#030303"/>
<path d="M227.796 229.079C228.524 229.079 229.114 228.489 229.114 227.761C229.114 227.034 228.524 226.444 227.796 226.444C227.068 226.444 226.478 227.034 226.478 227.761C226.478 228.489 227.068 229.079 227.796 229.079Z" fill="#A0DAF8"/>
<path d="M218.383 229.079C219.111 229.079 219.701 228.489 219.701 227.761C219.701 227.034 219.111 226.444 218.383 226.444C217.655 226.444 217.065 227.034 217.065 227.761C217.065 228.489 217.655 229.079 218.383 229.079Z" fill="#A0DAF8"/>
<path d="M274.937 229.079C275.665 229.079 276.255 228.489 276.255 227.761C276.255 227.034 275.665 226.444 274.937 226.444C274.209 226.444 273.619 227.034 273.619 227.761C273.619 228.489 274.209 229.079 274.937 229.079Z" fill="#A0DAF8"/>
<path d="M265.072 229.079C265.8 229.079 266.39 228.489 266.39 227.761C266.39 227.034 265.8 226.444 265.072 226.444C264.344 226.444 263.754 227.034 263.754 227.761C263.754 228.489 264.344 229.079 265.072 229.079Z" fill="#A0DAF8"/>
<path d="M284.124 166.2H235.929C238.113 165.786 249.107 162.096 246.284 130.92C244.589 112.319 255.885 83.8167 259.387 76.2109H309.313C309.464 77.0769 309.088 78.4324 307.393 80.3527C303.515 84.7204 295.269 118.457 294.14 128.171C293.01 137.584 302.009 159.912 284.124 166.2Z" fill="#D8CDC0"/>
<path d="M235.929 166.2C238.113 165.786 249.107 162.096 246.284 130.92C244.589 112.319 255.885 83.8167 259.387 76.2109H309.313C309.464 77.0769 309.088 78.4324 307.393 80.3527C304.494 83.5908 299.185 103.208 296.21 116.988C295.194 121.695 285.367 152.871 266.239 158.18C250.275 162.661 235.929 166.2 235.929 166.2Z" fill="#F2E6D6"/>
<path d="M284.124 166.388H235.929L235.891 166.012C238.075 165.597 248.882 161.908 246.058 130.92C244.439 112.884 254.981 85.2475 259.198 76.1357L259.236 76.0227H309.464L309.502 76.1733C309.69 77.3405 309.012 78.809 307.506 80.4657C303.703 84.758 295.495 118.043 294.328 128.171C294.064 130.543 294.403 133.706 294.855 137.396C296.097 148.202 297.641 161.644 284.124 166.388ZM237.247 166.012H284.086C297.227 161.38 295.683 148.127 294.441 137.471C294.027 133.781 293.65 130.581 293.914 128.171C295.081 118.005 303.364 84.5698 307.205 80.2774C308.523 78.7713 309.163 77.4911 309.125 76.4745H259.499C255.282 85.6993 244.853 113.11 246.472 130.957C248.919 158.105 240.862 164.506 237.247 166.012Z" fill="#030303"/>
<path d="M284.162 166.464H235.929V165.936H284.049C297.114 161.305 295.57 148.089 294.365 137.471C293.951 133.781 293.575 130.581 293.838 128.134C294.893 119.135 303.101 84.7581 307.13 80.1646C308.41 78.7338 309.05 77.4536 309.012 76.4746H287.362V75.9475H309.502L309.539 76.1734C309.728 77.3783 309.05 78.8467 307.544 80.5411C303.741 84.7958 295.533 118.08 294.365 128.209C294.102 130.581 294.441 133.744 294.893 137.396C296.097 147.637 297.717 161.719 284.199 166.464H284.162Z" fill="#030303"/>
<path d="M301.708 95.1124H268.8V94.5476H301.858L301.708 95.1124Z" fill="#030303"/>
<path d="M299.938 101.438H266.917V100.873H300.089L299.938 101.438Z" fill="#030303"/>
<path d="M298.319 107.764H264.357V107.199H298.47L298.319 107.764Z" fill="#030303"/>
<path d="M184.534 166.464H285.856V163.64H184.534C183.254 163.64 182.237 164.28 182.237 165.07C182.199 165.823 183.254 166.464 184.534 166.464Z" fill="#030303"/>
<path d="M244.589 44.8842C242.857 47.7835 238.602 71.542 241.615 77.5288C244.627 83.5155 240.749 85.2475 240.749 85.2475C240.749 85.2475 251.028 87.1677 261.533 83.2519C261.533 83.2519 260.817 81.2563 261.269 78.5077C261.269 78.5077 261.683 80.8422 263.076 82.4989C263.076 82.4989 271.021 85.6993 274.146 82.913C274.146 82.913 268.348 57.5354 266.126 50.3438C263.716 42.5498 259.01 39.1234 254.981 38.6716C250.463 38.1821 246.773 41.2696 244.589 44.8842Z" fill="#030303"/>
<path d="M227.909 101.024C217.592 102.417 210.401 123.276 205.77 125.498L205.807 125.573C204.715 125.987 202.833 126.477 199.67 126.703C193.307 127.192 192.516 130.43 192.516 130.43C192.516 130.43 191.838 133.706 192.29 135.099C192.629 136.078 197.185 137.735 198.879 137.547C200.084 137.396 201.327 136.53 200.611 135.551C199.896 134.61 200.536 133.97 200.799 133.706C201.101 133.367 201.778 133.33 202.23 133.33L202.268 133.367C202.419 133.48 202.569 133.593 202.757 133.668C202.757 133.781 202.757 133.857 202.757 133.97C202.569 135.438 202.23 137.622 202.87 138.45C203.51 139.241 203.699 138.262 203.962 137.66C204.226 137.057 204.941 135.664 205.393 134.949C205.807 134.309 208.066 132.765 208.405 131.447C208.669 131.183 208.857 130.995 209.008 130.845C213.601 127.531 231.561 121.846 239.205 113.336C243.61 108.441 237.661 99.7061 227.909 101.024Z" fill="#FFC3AB"/>
<path d="M197.75 137.358L198.013 132.501C198.013 132.501 197.298 135.551 197.75 137.358Z" fill="#CF7F6E"/>
<path d="M193.947 136.53L193.721 131.673C193.721 131.673 193.307 134.798 193.947 136.53Z" fill="#CF7F6E"/>
<path d="M195.942 137.245L195.566 131.522C195.566 131.522 195.302 135.513 195.942 137.245Z" fill="#CF7F6E"/>
<path d="M224.935 123.54C224.784 123.54 224.596 123.54 224.445 123.502C220.755 122.712 220.379 122.486 220.228 122.373C220.04 122.222 219.437 121.846 221.207 116.8C219.513 117.817 215.936 120.038 214.543 121.168C214.204 121.431 213.79 121.431 213.451 121.168C213.112 120.904 212.848 120.339 213.074 119.85C214.166 117.478 220.943 113.261 221.734 112.771C223.278 111.679 225.725 111.567 229.114 112.395C231.223 112.922 233.105 113.299 234.762 113.487C234.95 113.524 235.101 113.713 235.101 113.901C235.063 114.089 234.875 114.24 234.687 114.24C233.03 114.014 231.11 113.637 228.963 113.11C225.801 112.32 223.579 112.395 222.186 113.374C219.626 114.955 214.618 118.344 213.827 120.151C213.752 120.264 213.865 120.452 213.978 120.565C214.053 120.641 214.091 120.603 214.128 120.565C216.049 119.022 221.584 115.746 221.809 115.595C221.96 115.52 222.111 115.52 222.261 115.633C222.374 115.746 222.412 115.897 222.374 116.047C221.508 118.382 220.642 121.205 220.793 121.77C220.981 121.846 221.734 122.147 224.671 122.749C225.612 122.938 226.516 122.297 226.742 121.243C227.081 119.699 227.909 119.248 228.361 119.097C228.85 118.946 229.34 119.022 229.603 119.285C229.829 119.511 230.093 119.699 230.357 119.85C230.545 119.963 230.62 120.189 230.507 120.377C230.394 120.565 230.168 120.641 229.98 120.528C229.641 120.339 229.34 120.114 229.039 119.85C229.001 119.812 228.737 119.775 228.436 119.888C228.097 120.038 227.646 120.415 227.42 121.431C227.156 122.674 226.102 123.54 224.935 123.54Z" fill="#CF7F6E"/>
<path d="M255.659 69.9231C260.93 77.9807 254.04 99.6308 235.553 118.608C235.553 118.608 227.194 116.198 221.245 103.057C221.245 103.057 228.474 86.3019 237.247 76.4746C246.02 66.6097 253.475 66.5344 255.659 69.9231Z" fill="#FFA099"/>
<path d="M229.603 134.76C230.469 133.894 245.455 134.572 245.455 128.435C245.455 126.213 246.434 111.905 246.773 107.801C247.112 103.735 248.128 73.8013 250.312 68.0781C248.091 69.0947 245.003 70.6008 242.405 74.5543C236.569 83.5532 232.691 98.5388 228.097 107.462C224.37 114.692 225.612 125.498 225.612 125.498C232.314 123.992 224.294 131.899 229.603 134.76Z" fill="#FA7885"/>
<path d="M221.508 99.9695C220.793 101.363 220.002 102.831 220.002 102.831C220.002 102.831 220.228 104.224 220.868 105.617C225.914 117.139 237.849 123.464 237.849 123.464L241.125 119.134C235.665 112.809 223.993 105.617 221.508 99.9695Z" fill="#A0DAF8"/>
<path d="M213.714 205.509L203.021 207.919L198.653 194.326L212.02 191.314L213.714 205.509Z" fill="#FFA47F"/>
<path d="M200.649 203.626C200.649 203.626 203.322 202.083 206.184 204.492C209.045 206.902 210.175 204.342 210.928 203.815C211.681 203.287 212.698 202.836 214.053 203.099C214.053 203.099 217.065 217.294 217.442 222.264L184.76 229.644C184.76 229.644 183.366 226.519 186.002 224.335C188.638 222.151 200.611 215.713 201.854 212.06C203.096 208.37 200.649 203.626 200.649 203.626Z" fill="white"/>
<path d="M184.647 229.87L184.571 229.719C184.571 229.682 183.141 226.406 185.852 224.147C186.642 223.507 188.261 222.452 190.144 221.247C194.625 218.386 200.8 214.432 201.666 211.947C202.87 208.408 200.498 203.739 200.461 203.701L200.385 203.551L200.536 203.438C200.574 203.438 203.36 201.857 206.297 204.342C208.481 206.149 209.535 205.019 210.288 204.153C210.476 203.927 210.627 203.777 210.815 203.664C211.869 202.948 212.961 202.685 214.091 202.948L214.204 202.986L214.241 203.099C214.279 203.25 217.254 217.369 217.63 222.264V222.452L184.647 229.87ZM200.912 203.701C201.364 204.605 203.172 208.747 202.042 212.098C201.138 214.734 194.926 218.725 190.37 221.624C188.525 222.829 186.906 223.845 186.115 224.486C183.931 226.293 184.647 228.778 184.873 229.418L217.216 222.113C216.839 217.332 214.166 204.718 213.865 203.287C212.886 203.099 211.945 203.363 211.041 203.965C210.928 204.04 210.777 204.229 210.589 204.417C209.798 205.283 208.518 206.714 206.033 204.643C203.699 202.685 201.515 203.438 200.912 203.701Z" fill="#030303"/>
<path d="M211.417 221.248L210.928 221.323C210.175 214.809 215.635 211.383 215.71 211.345L215.973 211.797C215.86 211.797 210.664 215.035 211.417 221.248Z" fill="#361E4D"/>
<path d="M217.103 219.214C217.291 220.419 217.404 221.473 217.479 222.264L184.797 229.644C184.797 229.644 184.157 228.176 184.571 226.557L217.103 219.214Z" fill="#030303"/>
<path d="M199.595 218.574L195.528 218.047L195.604 217.859L199.519 218.085C200.159 217.783 206.447 214.96 206.749 212.023C207.087 208.898 204.565 205.321 204.565 205.283L204.791 205.132C204.904 205.283 207.652 208.785 207.276 212.098C206.899 215.487 199.971 218.461 199.708 218.574H199.595Z" fill="#030303"/>
<path d="M202.795 215.6L199.218 215.411L199.293 214.884L202.833 215.336L202.795 215.6Z" fill="#030303"/>
<path d="M205.393 212.889L201.816 212.663L201.854 212.173L205.393 212.588V212.889Z" fill="#030303"/>
<path d="M243.271 123.804C232.352 123.691 207.539 128.247 194.549 134.384C181.559 140.521 186.228 159.31 198.503 159.874C211.079 160.439 229.829 157.766 245.116 154.302C267.331 149.294 261.231 123.992 243.271 123.804Z" fill="#B3E1F9"/>
<path d="M188.977 197.828C188.977 197.828 188.299 162.548 186.755 147.637C185.211 132.727 210.89 133.443 215.446 144.851C220.115 156.561 215.597 196.435 215.597 196.435L188.977 197.828Z" fill="#B3E1F9"/>
<path d="M212.735 140.973C199.934 174.22 190.709 187.135 188.788 189.62C188.939 194.59 188.977 197.828 188.977 197.828L215.559 196.435C215.559 196.435 220.077 156.561 215.409 144.851C214.844 143.383 213.903 142.102 212.735 140.973Z" fill="#B3E1F9"/>
<path d="M195.001 193.912L194.512 193.874C194.926 186.381 193.759 180.545 192.591 169.965C191.161 156.749 189.805 144.249 191.914 140.596C195.641 134.195 218.007 131.936 218.76 131.447L219.023 131.861C218.835 131.974 196.018 134.534 192.365 140.822C190.332 144.324 191.688 156.749 193.118 169.852C194.21 180.545 195.415 186.381 195.001 193.912Z" fill="#030303"/>
<path d="M185.776 192.293C186.943 195.606 188.224 199.522 188.224 199.522C188.224 199.522 190.972 200.802 194.022 201.066C211.832 202.76 216.952 198.054 216.952 198.054C216.952 198.054 218.044 193.084 218.082 190.862C213.827 191.803 197.11 194.552 185.776 192.293Z" fill="#F84558"/>
<path d="M188.186 199.56C188.186 199.56 190.935 200.84 193.984 201.104C211.794 202.798 216.915 198.091 216.915 198.091C216.915 198.091 218.007 193.121 218.044 190.9C208.104 201.367 188.186 199.56 188.186 199.56Z" fill="#EC384A"/>
<path d="M185.776 192.293C186.943 195.606 188.224 199.522 188.224 199.522C188.224 199.522 208.142 201.33 218.082 190.9C213.827 191.804 197.11 194.552 185.776 192.293Z" fill="#FFA099"/>
<path d="M196.921 193.159L194.625 200.351L197.674 200.652L196.921 193.159Z" fill="#EC384A"/>
<path d="M221.245 212.06H209.761L209.045 197.865H224.784L221.245 212.06Z" fill="#FFA47F"/>
<path d="M208.932 208.446C208.932 208.446 211.869 207.542 214.166 210.517C216.463 213.491 218.12 211.232 218.948 210.893C219.814 210.554 220.906 210.328 222.148 210.893C222.148 210.893 221.96 225.389 221.245 230.322H187.734C187.734 230.322 187.056 226.971 190.106 225.389C193.156 223.846 206.221 220.156 208.255 216.88C210.288 213.642 208.932 208.446 208.932 208.446Z" fill="white"/>
<path d="M221.395 230.548H187.546L187.508 230.397C187.508 230.36 186.831 226.858 189.993 225.276C190.897 224.825 192.704 224.147 194.813 223.394C199.821 221.587 206.673 219.101 208.066 216.842C210.024 213.68 208.744 208.596 208.706 208.521L208.669 208.333L208.857 208.295C208.895 208.295 211.945 207.392 214.279 210.441C216.011 212.701 217.291 211.797 218.233 211.157C218.458 211.006 218.647 210.856 218.835 210.78C220.04 210.291 221.132 210.291 222.186 210.78L222.299 210.818V210.931C222.299 211.082 222.111 225.502 221.395 230.397V230.548ZM187.885 230.134H221.056C221.734 225.389 221.922 212.475 221.922 211.044C220.981 210.667 220.04 210.667 218.986 211.082C218.835 211.157 218.647 211.27 218.458 211.42C217.517 212.098 215.936 213.19 213.978 210.63C212.133 208.22 209.798 208.446 209.158 208.596C209.384 209.613 210.25 214.018 208.405 217.031C206.937 219.403 200.009 221.925 194.926 223.733C192.855 224.486 191.048 225.126 190.144 225.578C187.659 226.895 187.809 229.456 187.885 230.134Z" fill="#030303"/>
<path d="M215.559 227.987L215.07 227.95C215.747 221.436 221.847 219.29 221.922 219.29L222.073 219.779C221.998 219.779 216.199 221.812 215.559 227.987Z" fill="#030303"/>
<path d="M221.546 227.272C221.471 228.477 221.358 229.531 221.245 230.322H187.734C187.734 230.322 187.433 228.74 188.186 227.272H221.546Z" fill="#030303"/>
<path d="M204.64 222.829L200.649 221.473L200.912 221.248L204.678 222.302C205.355 222.151 212.095 220.796 213.074 218.009C214.091 215.035 212.434 210.968 212.396 210.931L212.698 210.818C212.773 211.006 214.618 214.997 213.564 218.16C212.472 221.361 205.054 222.754 204.753 222.829H204.64Z" fill="#030303"/>
<path d="M208.405 220.645L204.979 219.629L205.129 219.139L208.518 220.344L208.405 220.645Z" fill="#030303"/>
<path d="M211.53 218.537L208.029 217.52L208.255 217.068L211.606 218.235L211.53 218.537Z" fill="#030303"/>
<path d="M269.176 133.857C258.558 131.334 233.331 130.355 219.287 133.48C205.28 136.605 205.694 155.959 217.517 159.197C229.679 162.51 248.543 164.016 264.206 164.016C287.061 164.016 286.647 137.998 269.176 133.857Z" fill="#A0DAF8"/>
<path d="M249.107 145.039C249.107 145.039 257.391 158.18 265.976 160.778C276.895 164.091 281.375 157.05 281.865 151.139C282.317 145.19 249.107 145.039 249.107 145.039Z" fill="#A0DAF8"/>
<path d="M198.842 199.183C198.842 199.183 207.05 159.573 208.819 144.7C210.589 129.828 235.477 136.153 237.397 148.277C239.355 160.703 225.048 203.664 225.048 203.664L198.842 199.183Z" fill="#A0DAF8"/>
<path d="M199.745 194.778C199.18 197.527 198.842 199.146 198.842 199.146L225.085 203.626C225.085 203.626 232.955 179.981 236.23 162.698C226.215 186.156 207.464 192.933 199.745 194.778Z" fill="#A0DAF8"/>
<path d="M205.544 196.661L205.054 196.51C207.125 189.281 208.368 178.362 209.572 167.744C211.079 154.528 212.472 142.027 215.371 138.94C220.416 133.518 242.706 136.191 243.572 135.928L243.723 136.417C243.535 136.492 220.68 133.97 215.747 139.316C212.999 142.291 211.568 154.678 210.1 167.819C208.857 178.437 207.615 189.394 205.544 196.661Z" fill="#030303"/>
<path d="M196.921 193.046C197.335 196.51 197.712 200.652 197.712 200.652C197.712 200.652 200.122 202.497 203.021 203.438C220.04 209.01 226.026 205.546 226.026 205.546C226.026 205.546 228.173 200.915 228.7 198.769C224.407 198.731 207.464 197.715 196.921 193.046Z" fill="#F84558"/>
<path d="M197.674 200.652C197.674 200.652 200.084 202.497 202.983 203.438C220.002 209.01 225.989 205.546 225.989 205.546C225.989 205.546 228.135 200.915 228.662 198.769C213.94 206.827 197.674 200.652 197.674 200.652Z" fill="#FA7885"/>
<path d="M196.921 193.046C197.335 196.51 197.712 200.652 197.712 200.652C197.712 200.652 213.94 206.827 228.737 198.807C224.407 198.731 207.464 197.715 196.921 193.046Z" fill="#FFA099"/>
<path d="M259.688 66.9486C276.33 68.3793 284.576 115.859 276.707 141.764C276.707 141.764 252.27 145.152 232.051 124.481C232.051 124.481 232.54 115.332 238.414 109.722C238.414 109.722 239.167 83.7791 245.041 74.8179C250.839 65.7814 255.809 66.6097 259.688 66.9486Z" fill="white"/>
<path d="M229.603 134.76C230.469 133.894 245.455 134.572 245.455 128.435C245.455 126.213 246.434 111.905 246.773 107.801C247.112 103.735 247.94 74.5542 250.124 68.8311C247.903 69.8477 247.187 70.676 244.589 74.6295C238.753 83.6284 240.184 100.384 236.569 108.479C233.256 115.896 225.612 125.46 225.612 125.46C232.314 123.992 224.295 131.899 229.603 134.76Z" fill="#FFA099"/>
<path d="M244.175 129.564L243.685 129.414C244.514 126.627 244.288 124.519 242.895 117.44C241.464 110.098 242.706 86.2642 242.706 86.0006V85.6617L243.045 85.7747C243.46 85.9253 243.911 86.0759 244.213 86.1512C243.874 85.5111 243.384 84.4569 243.271 84.1933L243.234 84.118L243.271 84.0427C244.627 78.6208 249.634 69.5089 249.672 69.4336L249.785 69.7725C249.747 69.8478 245.192 78.696 243.798 84.0803C244.137 84.871 244.74 86.0759 244.89 86.2642C245.003 86.4148 245.003 86.5277 244.928 86.6407C244.815 86.7913 244.74 86.9042 243.196 86.3771C243.045 89.3516 242.066 110.55 243.384 117.327C244.777 124.557 245.041 126.665 244.175 129.564Z" fill="#030303"/>
<path d="M259.688 66.9485C259.688 66.9485 254.266 74.366 254.153 81.407C254.002 89.6152 251.216 102.04 254.492 121.092C257.617 139.241 249.296 144.851 249.145 145.039C257.88 156.109 285.404 162.924 285.404 162.924C287.099 149.52 288.266 105.429 284.388 90.1423C280.509 74.8931 271.209 66.4214 259.688 66.9485Z" fill="#FFA099"/>
<path d="M271.36 71.0149C279.643 75.872 289.32 96.5431 281.865 123.803C280.02 130.543 277.309 139.994 255.056 131.522C255.056 131.522 254.642 125.498 255.471 118.57C254.793 109.345 254.981 98.1245 256.337 90.6694C258.746 77.717 265.072 67.325 271.36 71.0149Z" fill="#FA7885"/>
<path d="M254.454 139.542C254.642 137.923 255.056 136.304 255.546 135.25C256.713 132.652 257.654 130.618 257.993 121.77C258.483 110.06 258.031 89.0127 257.993 86.1135L256.186 86.6406L257.767 84.1179C259.801 77.1523 259.688 67.0614 259.688 66.9485C259.688 67.0614 260.667 77.2652 258.257 84.3062L258.219 84.3815L257.316 85.8123L258.483 85.4734V85.8123C258.483 86.0382 259.01 109.27 258.52 121.808C258.144 130.731 257.203 132.84 256.035 135.476C255.508 136.568 254.981 137.735 254.454 139.542Z" fill="#030303"/>
<path d="M270.644 80.541L268.875 112.545C268.875 112.545 283.183 102.906 270.644 80.541Z" fill="#361E4D"/>
<path d="M246.698 59.418L249.785 69.81C249.785 69.81 256.261 72.1821 259.65 66.9484L256.864 56.3682L246.698 59.418Z" fill="#FFC3AB"/>
<path d="M247.526 62.2044L248.543 65.5931C255.282 65.706 254.793 59.8323 254.755 59.8323C247.827 62.0914 247.526 62.2044 247.526 62.2044Z" fill="#CF7F6E"/>
<path d="M247.187 63.5598C249.973 63.9363 255.546 60.8865 257.052 58.5144C257.579 57.6861 257.767 55.2387 257.579 54.0338C256.939 50.2309 256.525 46.8046 253.852 45.4114C252.722 44.809 250.237 44.2442 249.107 44.3195C245.38 44.5454 243.836 47.0681 243.309 50.7204C242.669 54.8622 242.292 62.9197 247.187 63.5598Z" fill="#FFC3AB"/>
<path d="M245.719 56.3682C245.493 56.2176 244.25 55.5022 244.213 54.8245C244.213 54.6739 244.25 54.448 244.476 54.2974C245.756 53.3184 245.982 51.6241 246.02 51.2852C245.907 51.0593 245.342 50.2309 244.175 50.3439L244.137 49.8544C245.493 49.7414 246.283 50.6451 246.509 51.1722L246.547 51.2099V51.2852C246.547 51.3605 246.434 53.5443 244.815 54.7492C244.74 54.7868 244.74 54.8245 244.74 54.8621C244.74 55.1257 245.417 55.6528 245.982 55.9917L245.719 56.3682Z" fill="#030303"/>
<path d="M257.353 53.1677C257.353 53.1677 250.5 45.9008 247.3 44.5454C247.3 44.5454 245.003 47.2563 243.347 50.1179C243.347 50.1179 241.765 41.4579 249.107 41.6838C256.224 41.9097 258.52 50.4568 257.353 53.1677Z" fill="#030303"/>
<path d="M257.843 58.0249C259.278 58.0249 260.441 56.8617 260.441 55.4269C260.441 53.992 259.278 52.8289 257.843 52.8289C256.408 52.8289 255.245 53.992 255.245 55.4269C255.245 56.8617 256.408 58.0249 257.843 58.0249Z" fill="#FFA47F"/>
<path d="M257.73 57.4224C257.654 57.4224 257.617 57.4224 257.541 57.3848C257.353 57.3471 257.203 57.2342 257.09 57.0459C256.864 56.6317 257.09 56.3682 257.24 56.2176C257.391 56.0669 257.504 55.9163 257.428 55.6151C257.353 55.3516 257.24 55.1633 257.09 54.975C256.864 54.6738 256.525 54.2596 257.165 53.7325C258.031 53.0548 259.386 54.3726 259.462 54.4102L259.123 54.7868C258.859 54.5232 257.956 53.8078 257.504 54.1467C257.278 54.3349 257.278 54.3349 257.504 54.6738C257.654 54.8997 257.843 55.1633 257.956 55.5022C258.069 56.0669 257.843 56.3682 257.654 56.5564C257.504 56.707 257.504 56.707 257.579 56.82C257.617 56.8576 257.654 56.8953 257.692 56.933C257.88 56.9706 258.182 56.82 258.294 56.7447L258.558 57.1589C258.483 57.1589 258.106 57.4224 257.73 57.4224Z" fill="#030303"/>
<path d="M251.329 52.1512C249.559 50.5699 248.768 51.2476 248.731 51.2852L248.392 50.9087C248.43 50.8711 249.522 49.8545 251.668 51.7747L251.329 52.1512Z" fill="#030303"/>
<path d="M245.154 58.1755C245.003 59.2675 245.719 60.3594 246.811 60.6229C248.015 60.9242 249.258 60.2088 249.559 59.0039C249.635 58.7403 249.635 58.4768 249.597 58.2508C248.091 58.3638 246.585 58.3638 245.154 58.1755Z" fill="#030303"/>
<path d="M245.945 60.1334C245.945 60.1711 245.945 60.1711 245.945 60.2087C246.208 60.4346 246.509 60.5853 246.811 60.6606C248.015 60.9618 249.258 60.2464 249.559 59.0415C249.672 58.6273 246.133 58.4014 245.945 60.1334Z" fill="#F84558"/>
<path d="M249.86 53.243C250.193 53.243 250.463 52.9732 250.463 52.6405C250.463 52.3078 250.193 52.0381 249.86 52.0381C249.528 52.0381 249.258 52.3078 249.258 52.6405C249.258 52.9732 249.528 53.243 249.86 53.243Z" fill="#030303"/>
<path d="M244.514 52.49C244.846 52.49 245.116 52.2203 245.116 51.8876C245.116 51.5549 244.846 51.2852 244.514 51.2852C244.181 51.2852 243.911 51.5549 243.911 51.8876C243.911 52.2203 244.181 52.49 244.514 52.49Z" fill="#030303"/>
<path d="M270.456 107.425C263.189 100.233 242.706 113.901 237.021 114.052C236.908 114.052 236.795 114.052 236.644 114.052C236.494 114.052 236.23 114.014 236.23 114.014C234.912 113.939 232.578 113.637 229.001 112.734C225.085 111.755 223.09 112.244 221.922 113.073C221.734 113.186 214.505 117.628 213.413 120.001C213.187 120.528 213.79 121.281 214.279 120.867C216.199 119.323 221.922 115.934 221.922 115.934C221.922 115.934 219.776 121.657 220.416 122.071C220.793 122.335 222.826 122.787 224.483 123.126C225.688 123.389 226.742 122.561 227.005 121.356C227.457 119.21 228.963 119.285 229.227 119.586C231.26 121.582 234.348 120.415 235.327 119.963C240.749 119.248 259.876 129.865 271.096 126.477C278.74 124.142 275.276 112.207 270.456 107.425Z" fill="#F4B398"/>
<path d="M270.456 107.425C263.189 100.233 242.706 113.901 237.021 114.052C236.908 114.052 236.795 114.052 236.644 114.052C236.494 114.052 236.23 114.014 236.23 114.014C234.912 113.939 232.578 113.637 229.001 112.734C225.085 111.755 223.09 112.244 221.922 113.073C221.734 113.186 214.505 117.628 213.413 120.001C213.187 120.528 213.79 121.281 214.279 120.867C216.199 119.323 221.922 115.934 221.922 115.934C221.922 115.934 219.776 121.657 220.416 122.071C220.793 122.335 222.826 122.787 224.483 123.126C225.688 123.389 226.742 122.561 227.005 121.356C227.457 119.21 228.625 118.607 229.491 119.097C231.938 120.565 234.423 118.72 235.515 118.57C241.087 117.817 259.424 125.987 270.682 122.599C278.288 120.339 275.276 112.207 270.456 107.425Z" fill="#FFC3AB"/>
<path d="M224.144 122.975L226.516 117.478C226.516 117.44 224.483 120.791 224.144 122.975Z" fill="#CF7F6E"/>
<path d="M222.148 122.599L224.294 115.934C224.294 115.972 222.299 120.415 222.148 122.599Z" fill="#CF7F6E"/>
<path d="M265.298 129.753C263.679 129.753 262.173 129.602 261.081 129.188L261.269 128.698C265.561 130.242 276.142 127.87 276.217 127.832L276.33 128.322C275.991 128.435 270.117 129.753 265.298 129.753Z" fill="#361E4D"/>
<path d="M271.36 71.0151C279.982 75.2321 282.994 95.7903 276.782 121.544C276.782 121.544 267.256 121.77 256.713 107.011C256.713 107.011 257.504 96.8822 260.027 83.9298C262.587 71.0151 267.745 69.2454 271.36 71.0151Z" fill="#FFA099"/>
<path d="M256.939 103.17C256.525 104.676 256.035 106.295 256.035 106.295C256.035 106.295 256.563 107.613 257.429 108.855C264.658 119.134 276.895 122.561 276.895 122.561L279.229 117.666C272.64 112.545 260.516 108.215 256.939 103.17Z" fill="#A0DAF8"/>
<path d="M261.909 49.9297C261.909 49.9297 272.113 71.8433 264.018 79.4867C264.018 79.4867 266.578 73.1235 265.11 68.9817C263.641 64.84 259.688 50.4945 259.688 50.4945L261.909 49.9297Z" fill="#030303"/>
<path d="M255.847 166.539C252.722 166.539 250.613 166.539 250.613 166.539C250.613 166.539 236.155 164.242 239.506 136.379C239.92 132.802 242.33 129.752 245.719 128.51C253.55 125.648 269.553 120.979 290.45 120.979C290.45 120.979 290.676 121.017 291.014 121.055C272.414 121.657 258.219 125.837 250.99 128.472C247.601 129.715 245.229 132.765 244.777 136.342C241.389 164.28 255.847 166.539 255.847 166.539Z" fill="#E6E6E6"/>
<path d="M255.847 166.765H250.614C250.425 166.727 246.848 166.125 243.648 162.058C240.711 158.331 237.586 150.838 239.318 136.379C239.77 132.689 242.179 129.639 245.643 128.359C253.362 125.535 269.44 120.829 290.45 120.829C290.45 120.829 290.676 120.867 291.052 120.904L292.859 121.243L291.014 121.318C272.226 121.958 257.918 126.251 251.028 128.736C247.714 129.941 245.38 132.915 244.966 136.417C241.69 163.79 255.772 166.35 255.885 166.35L255.847 166.765ZM282.543 121.431C265.486 122.41 252.458 126.288 245.756 128.698C242.443 129.903 240.109 132.878 239.694 136.379C237.962 150.687 241.05 158.067 243.911 161.757C247.037 165.71 250.576 166.313 250.614 166.35H254.454C253.099 165.823 250.915 164.618 248.844 162.058C245.907 158.331 242.782 150.838 244.514 136.379C244.966 132.689 247.375 129.639 250.839 128.359C256.676 126.213 267.858 122.824 282.543 121.431Z" fill="#030303"/>
<path d="M302.009 135.099C297.604 148.353 293.085 159.535 293.085 159.535C293.085 159.535 290.939 166.539 282.204 166.539H276.97C285.705 166.539 287.852 159.535 287.852 159.535C287.852 159.535 292.37 148.353 296.775 135.099C300.578 123.69 293.123 121.469 290.977 121.092C292.52 121.017 294.064 121.017 295.683 121.017C295.683 121.017 306.452 121.883 302.009 135.099Z" fill="#F2E6D6"/>
<path d="M282.204 166.765H276.97V166.35C285.442 166.35 287.626 159.573 287.663 159.498C287.701 159.385 292.257 148.127 296.587 135.061C298.018 130.807 297.98 127.418 296.549 124.971C294.968 122.297 292.106 121.507 290.939 121.318L289.169 120.979L290.977 120.904C292.445 120.867 294.027 120.829 295.683 120.829C295.872 120.829 299.787 121.205 301.934 124.443C303.628 127.004 303.741 130.618 302.197 135.174C297.829 148.277 293.311 159.498 293.274 159.611C293.274 159.686 290.977 166.765 282.204 166.765ZM280.359 166.35H282.204C290.676 166.35 292.859 159.573 292.897 159.498C292.935 159.385 297.491 148.127 301.821 135.061C303.289 130.618 303.214 127.117 301.595 124.669C299.561 121.582 295.683 121.205 295.646 121.205C294.516 121.205 293.424 121.205 292.332 121.243C293.763 121.733 295.646 122.711 296.851 124.745C298.357 127.305 298.394 130.807 296.926 135.174C292.558 148.277 288.04 159.498 288.002 159.611C288.002 159.686 286.346 164.882 280.359 166.35Z" fill="#030303"/>
<path d="M282.241 167.104H255.772C255.621 167.066 251.894 166.463 248.618 162.284C244.288 156.787 242.819 148.052 244.213 136.342C244.664 132.539 247.187 129.338 250.764 128.021C258.483 125.197 274.636 120.452 295.683 120.452H295.721C295.909 120.452 299.976 120.829 302.235 124.218C304.004 126.891 304.117 130.581 302.536 135.25C298.168 148.353 293.65 159.611 293.575 159.724C293.612 159.799 291.278 167.104 282.241 167.104ZM255.922 166.012H282.241C290.45 166.012 292.52 159.648 292.596 159.385C292.671 159.234 297.189 148.014 301.519 134.949C302.95 130.619 302.912 127.23 301.331 124.858C299.448 121.996 295.947 121.582 295.646 121.544C274.749 121.544 258.784 126.251 251.141 129.037C247.94 130.204 245.681 133.028 245.305 136.455C243.61 150.612 246.622 157.879 249.446 161.531C252.27 165.183 255.546 165.936 255.922 166.012Z" fill="#030303"/>
<path d="M288.304 124.105H36.4851V130.543H288.304V124.105Z" fill="white"/>
<path d="M288.492 130.769H36.2592V123.917H288.492V130.769ZM36.6733 130.355H288.115V124.331H36.6733V130.355Z" fill="#030303"/>
<path d="M288.303 124.105H231.75V130.543H288.303V124.105Z" fill="white"/>
<path d="M288.492 130.769H231.561V123.917H288.492V130.769ZM231.938 130.355H288.078V124.331H231.938V130.355Z" fill="#030303"/>
<path d="M86.4496 132.125H281.037V231.15H282.693V130.506H84.8306V231.15H86.4496V132.125Z" fill="#030303"/>
<path d="M44.9192 132.125H237.736V231.15H239.356V130.506H43.3002V231.15H44.9192V132.125Z" fill="#030303"/>
<path d="M69.4685 173.768C66.6822 173.768 64.7996 173.768 64.7996 173.768C64.7996 173.768 51.9602 171.735 54.9347 146.998C55.3112 143.835 57.4574 141.124 60.4319 140.032C67.3976 137.509 81.5925 133.367 100.155 133.367C100.155 133.367 100.343 133.367 100.645 133.443C84.1152 134.008 71.5017 137.697 65.1008 140.032C62.0886 141.124 59.9801 143.835 59.6036 146.998C56.6291 171.735 69.4685 173.768 69.4685 173.768Z" fill="#D3C8BC"/>
<path d="M69.4685 174.032H64.7619C64.6113 173.994 61.4109 173.467 58.5493 169.815C55.9137 166.501 53.1274 159.799 54.6711 146.922C55.0853 143.609 57.2315 140.86 60.3566 139.693C67.2093 137.208 81.5172 132.991 100.193 132.991C100.23 132.991 100.419 133.028 100.72 133.066L103.28 133.556L100.682 133.631C84.0023 134.196 71.3134 137.998 65.2138 140.22C62.3146 141.274 60.2437 143.872 59.9048 146.96C58.3987 159.611 61.1097 166.162 63.6324 169.4C66.381 172.902 69.5061 173.429 69.5438 173.429L69.4685 174.032ZM64.8373 173.467H67.7365C66.5316 172.902 64.7996 171.848 63.2182 169.815C60.5825 166.501 57.7963 159.799 59.34 146.922C59.7542 143.609 61.938 140.86 65.0255 139.693C69.4308 138.074 77.2625 135.664 87.5792 134.196C75.1916 135.476 65.7409 138.337 60.5449 140.22C57.6457 141.274 55.5748 143.872 55.2359 146.96C53.7298 159.611 56.4408 166.162 58.9635 169.4C61.5615 172.789 64.5737 173.429 64.8373 173.467Z" fill="#030303"/>
<path d="M110.472 145.83C106.556 157.578 102.527 167.518 102.527 167.518C102.527 167.518 100.607 173.731 92.8883 173.731H88.2194C95.9757 173.731 97.896 167.518 97.896 167.518C97.896 167.518 101.925 157.578 105.841 145.83C109.229 135.702 102.603 133.744 100.682 133.367C102.038 133.33 103.431 133.292 104.862 133.292C104.862 133.33 114.388 134.083 110.472 145.83Z" fill="#F0E3DD"/>
<path d="M69.3932 174.333C68.8284 174.258 56.0266 171.923 59.0388 146.922C59.453 143.496 61.7121 140.634 64.9126 139.467C71.803 136.944 86.1108 132.765 104.824 132.765H104.862C105.012 132.765 108.702 133.104 110.735 136.154C112.317 138.526 112.43 141.877 111.037 146.056C107.158 157.691 103.13 167.706 103.092 167.744C103.054 167.819 100.946 174.371 92.8882 174.371H69.4309L69.3932 174.333ZM65.3268 140.521C62.5028 141.538 60.5449 144.023 60.2061 147.035C57.4198 170.229 68.7908 173.015 69.5438 173.166H92.9259C100.117 173.166 101.962 167.593 102.038 167.33C102.075 167.217 106.104 157.277 109.945 145.642C111.225 141.839 111.15 138.865 109.794 136.756C108.175 134.271 105.088 133.894 104.824 133.857C86.2991 133.894 72.1418 138.036 65.3268 140.521Z" fill="#030303"/>
<path d="M101.134 221.473C101.134 221.473 98.0465 222.716 92.6622 213.83C87.278 204.944 87.9934 196.472 91.6456 193.46C95.2979 190.448 102.828 200.351 105.125 206.525C107.422 212.663 108.439 222.603 101.134 221.473Z" fill="#1A202C"/>
<path d="M101.473 204.116C96.4275 205.434 91.7586 209.312 89.1983 216.391C88.2946 218.876 87.2404 221.248 87.8051 223.959C88.2946 226.331 90.1772 228.402 91.8716 229.531C92.4364 229.908 92.4364 230.473 91.7586 230.473C89.3865 230.435 85.8849 230.435 83.5504 230.435C79.7099 230.435 75.1163 228.251 76.3965 222.679C77.6767 217.106 76.8107 212.927 75.3046 206.865C73.7985 200.803 75.907 196.623 82.5338 195.531C84.9059 195.155 88.7841 194.854 90.4408 194.251C91.4198 193.875 94.3566 192.143 95.0344 191.728C95.1097 191.653 105.502 198.43 101.473 204.116Z" fill="#FFA099"/>
<path d="M86.2236 222.227C85.3576 217.407 85.9601 212.324 86.2236 210.028C86.5249 207.354 87.8803 203.514 86.5249 199.824C84.8682 195.418 82.2702 195.531 82.0066 195.569C75.9069 196.586 73.9114 200.916 75.3421 206.789C76.8482 212.851 77.7142 217.031 76.4341 222.603C75.1539 228.176 79.7098 230.36 83.588 230.36C85.3576 230.36 88.1816 230.36 90.2901 230.397C90.9678 230.397 91.2691 229.531 90.7419 229.117C89.1229 227.912 86.8261 225.766 86.2236 222.227Z" fill="white"/>
<path d="M90.2901 230.661C88.1439 230.661 85.3576 230.623 83.588 230.623C80.877 230.623 78.5049 229.644 77.1871 227.988C76.0575 226.557 75.7563 224.749 76.2458 222.603C77.4883 217.144 76.66 213.002 75.1539 206.865C74.3632 203.626 74.6267 200.84 75.9446 198.845C77.1494 197 79.1827 195.832 82.0066 195.381C82.0442 195.381 84.9435 194.929 86.7508 199.748C87.805 202.572 87.2402 205.547 86.7884 207.919C86.6378 208.672 86.5249 209.387 86.4496 210.027L86.4119 210.291C86.1483 212.663 85.6212 217.558 86.4496 222.189C86.9014 224.825 88.3698 227.046 90.8925 229.004C91.1937 229.23 91.3444 229.644 91.1937 230.021C91.0431 230.397 90.7043 230.661 90.2901 230.661ZM82.1572 195.795C82.0819 195.795 82.0442 195.795 82.0442 195.795C79.3709 196.247 77.413 197.339 76.2834 199.071C75.0409 200.953 74.7774 203.626 75.5681 206.752C77.1118 212.964 77.9401 217.106 76.66 222.679C76.2081 224.712 76.4717 226.406 77.526 227.724C78.7685 229.268 81.0276 230.209 83.588 230.209C85.3576 230.209 88.1816 230.209 90.2901 230.247C90.5536 230.247 90.7043 230.058 90.7796 229.908C90.8172 229.757 90.8172 229.531 90.629 229.343C87.9933 227.347 86.4872 225.013 85.9977 222.264C85.1694 217.595 85.6965 212.625 85.9601 210.253L85.9977 209.99C86.073 209.35 86.2236 208.597 86.3366 207.844C86.7884 205.509 87.3156 202.61 86.2989 199.899C84.8682 196.058 82.722 195.795 82.1572 195.795Z" fill="#030303"/>
<path d="M84.6799 222.227C83.8139 217.407 84.4164 212.324 84.6799 210.028C84.9812 207.354 86.3367 203.514 84.9812 199.824C83.3245 195.418 80.7265 195.531 80.4629 195.569C74.3632 196.586 72.3677 200.916 73.7984 206.789C75.3045 212.851 76.1705 217.031 74.8904 222.603C73.6102 228.176 78.1661 230.36 82.0443 230.36C84.0022 230.36 87.2403 230.36 89.4241 230.397C89.9136 230.397 90.1019 229.795 89.7253 229.494C88.1063 228.364 85.3577 226.143 84.6799 222.227Z" fill="white"/>
<path d="M89.4241 230.623C87.2403 230.623 84.0398 230.586 82.0443 230.586C79.3333 230.586 76.9612 229.607 75.6434 227.95C74.5138 226.519 74.2126 224.712 74.7021 222.566C75.9446 217.106 75.1163 212.964 73.6102 206.827C72.8195 203.589 73.083 200.803 74.4009 198.807C75.6057 196.962 77.639 195.795 80.4629 195.343C80.5005 195.343 83.3998 194.891 85.2071 199.711C86.2613 202.535 85.6965 205.509 85.2447 207.881C85.0941 208.634 84.9812 209.35 84.9059 209.99L84.8682 210.253C84.6046 212.625 84.0775 217.52 84.9059 222.151C85.5459 225.841 88.031 228.025 89.876 229.343C90.1395 229.531 90.2148 229.833 90.1395 230.134C90.0266 230.435 89.763 230.623 89.4241 230.623ZM80.6512 195.795C80.5758 195.795 80.5382 195.795 80.5382 195.795C77.8649 196.247 75.907 197.339 74.7774 199.071C73.5349 200.953 73.2713 203.627 74.062 206.752C75.6057 212.964 76.4341 217.106 75.1539 222.679C74.7021 224.712 74.9657 226.406 76.0199 227.724C77.2624 229.268 79.5216 230.209 82.0819 230.209C84.0399 230.209 87.2779 230.209 89.4618 230.247C89.6124 230.247 89.6877 230.134 89.7253 230.058C89.763 229.945 89.763 229.833 89.6124 229.757C87.7298 228.402 85.1694 226.143 84.4917 222.302C83.6633 217.596 84.1905 212.663 84.454 210.291L84.4917 210.027C84.567 209.387 84.7176 208.634 84.8305 207.881C85.2824 205.547 85.8095 202.648 84.7929 199.937C83.3621 196.058 81.1783 195.795 80.6512 195.795Z" fill="#030303"/>
<path d="M79.4839 208.521C81.9169 208.521 83.8892 205.976 83.8892 202.836C83.8892 199.696 81.9169 197.15 79.4839 197.15C77.0509 197.15 75.0786 199.696 75.0786 202.836C75.0786 205.976 77.0509 208.521 79.4839 208.521Z" fill="#D3C8BC"/>
<path d="M87.0143 207.957C91.6079 202.384 90.9678 198.506 90.4783 197.113C90.0265 195.757 89.0852 194.778 88.0686 194.515L87.9556 195.079C88.784 195.268 89.5747 196.134 89.9512 197.301C90.403 198.619 90.9678 202.233 86.5625 207.618L87.0143 207.957Z" fill="#030303"/>
<path d="M89.9136 214.395C90.9302 213.303 91.3821 212.136 91.2691 210.856C91.0055 208.22 88.2193 206.224 88.1063 206.149L87.7675 206.639C87.8051 206.639 90.4408 208.559 90.6667 210.931C90.7796 212.023 90.3655 213.04 89.4618 213.981L89.9136 214.395Z" fill="#030303"/>
<path d="M91.9092 211.571C92.7752 210.404 93.1141 209.199 92.8882 207.994C92.4363 205.622 89.9513 204.078 89.8383 204.041L89.5371 204.53C89.5748 204.53 91.9092 205.961 92.3234 208.107C92.5116 209.161 92.2481 210.216 91.4574 211.232L91.9092 211.571Z" fill="#030303"/>
<path d="M115.329 157.879C110.284 163.376 106.518 167.97 99.5527 183.972C97.5571 188.528 92.0222 193.159 92.0222 193.159C95.298 191.502 114.952 221.21 101.134 221.436C101.134 221.436 110.999 223.507 122.746 209.877C134.494 196.247 140.292 164.167 139.163 157.013C137.958 149.859 124.14 148.278 115.329 157.879Z" fill="#A0DAF8"/>
<path d="M94.8084 190.523C93.2647 192.142 91.9845 193.197 91.9845 193.197C95.2602 191.54 114.915 221.248 101.096 221.473C101.096 221.473 110.961 223.544 122.709 209.914C127.604 204.229 131.482 195.343 134.23 186.381C134.908 184.235 118.981 209.387 94.8084 190.523Z" fill="#A0DAF8"/>
<path d="M139.125 157.013C137.996 149.859 124.14 148.24 115.329 157.879C111.827 161.682 108.966 165.07 105.2 172.111C105.878 172.149 106.744 172.224 107.121 172.224C108.552 172.262 109.869 172.45 111.3 172.676C115.781 173.429 119.471 175.914 121.692 179.943C126.361 188.415 121.466 198.769 115.931 205.434C112.994 208.973 109.53 211.834 105.803 214.395C106.518 218.386 105.464 221.36 101.134 221.436C101.134 221.436 110.999 223.507 122.746 209.877C134.494 196.284 140.255 164.204 139.125 157.013Z" fill="#A0DAF8"/>
<path d="M93.9425 172.187C87.9934 172.187 74.6268 171.208 66.4563 163.075C61.5238 158.18 59.3777 151.478 60.0178 143.119C61.6745 121.507 62.0133 115.294 62.3522 109.834C62.5028 107.312 62.6534 104.902 62.8793 101.25C63.4441 93.1545 65.5526 85.2475 68.8284 78.9973C71.9912 73.0106 75.8317 69.3959 79.371 69.0571C83.701 68.6429 86.2614 69.6595 90.4784 71.3162C91.8716 71.8433 93.453 72.4834 95.3356 73.1235C97.8959 74.0272 100.343 75.4203 102.64 77.2276C103.243 77.6041 103.77 77.9807 104.297 78.3572C110.284 82.9508 127.829 102.266 128.545 103.095L128.733 103.321L128.658 103.622C126.7 111.868 122.445 119.059 116.044 124.933C117.701 128.472 120.487 129.602 122.935 130.619C125.081 131.522 127.114 132.351 127.792 134.647L127.905 134.986L127.604 135.212C127.415 135.363 108.627 151.252 97.3688 171.772L97.2182 172.036L96.917 172.074C96.7287 172.111 95.6368 172.187 93.9425 172.187ZM81.1783 70.0737C80.6136 70.0737 80.0488 70.1113 79.4087 70.149C73.0454 70.7514 65.0632 84.1933 63.9336 101.287C63.67 104.977 63.5571 107.349 63.4065 109.872C63.1052 115.332 62.7287 121.544 61.072 143.157C60.4696 151.139 62.5405 157.578 67.2093 162.209C76.6601 171.622 93.9801 171.057 96.5028 170.944C107.083 151.779 124.102 136.681 126.549 134.572C125.909 133.028 124.365 132.388 122.445 131.597C119.847 130.506 116.609 129.188 114.802 124.933L114.651 124.557L114.952 124.293C121.278 118.57 125.495 111.604 127.453 103.584C125.457 101.363 109.116 83.5155 103.544 79.2232C103.054 78.8467 102.527 78.5078 101.962 78.1689L101.887 78.1313C99.7033 76.3993 97.2935 75.0438 94.8838 74.1778C92.9635 73.5 91.3821 72.8976 89.989 72.3328C86.4497 70.9397 84.2282 70.0737 81.1783 70.0737Z" fill="#030303"/>
<path d="M137.243 221.473C137.243 221.473 134.155 222.716 128.771 213.83C123.386 204.944 124.102 196.472 127.754 193.46C131.406 190.448 138.937 200.351 141.234 206.525C143.568 212.663 144.547 222.603 137.243 221.473Z" fill="#1A202C"/>
<path d="M137.619 204.116C132.574 205.434 127.905 209.312 125.344 216.391C124.441 218.876 123.386 221.248 123.951 223.959C124.441 226.331 126.323 228.402 128.018 229.531C128.582 229.908 128.582 230.473 127.905 230.473C125.533 230.435 122.031 230.435 119.697 230.435C115.856 230.435 111.262 228.251 112.543 222.679C113.823 217.106 112.957 212.927 111.451 206.865C109.945 200.803 112.053 196.623 118.68 195.531C121.052 195.155 124.93 194.854 126.587 194.251C127.566 193.875 130.503 192.143 131.18 191.728C131.218 191.653 141.61 198.43 137.619 204.116Z" fill="#FFA099"/>
<path d="M122.332 222.227C121.466 217.407 122.069 212.324 122.332 210.028C122.633 207.354 123.989 203.514 122.633 199.824C120.977 195.418 118.379 195.531 118.115 195.569C112.015 196.586 110.02 200.916 111.451 206.789C112.957 212.851 113.823 217.031 112.543 222.603C111.262 228.176 115.856 230.36 119.697 230.36C121.466 230.36 124.29 230.36 126.399 230.397C127.076 230.397 127.378 229.531 126.85 229.117C125.231 227.912 122.972 225.766 122.332 222.227Z" fill="white"/>
<path d="M126.436 230.661C124.29 230.661 121.504 230.623 119.734 230.623C117.023 230.623 114.651 229.644 113.333 227.988C112.204 226.557 111.902 224.749 112.392 222.603C113.634 217.144 112.806 213.002 111.3 206.865C110.509 203.626 110.773 200.84 112.091 198.845C113.296 197 115.329 195.832 118.153 195.381C118.19 195.381 121.09 194.929 122.897 199.748C123.951 202.572 123.386 205.547 122.935 207.919C122.784 208.672 122.671 209.387 122.596 210.027L122.558 210.291C122.294 212.663 121.767 217.558 122.596 222.189C123.047 224.825 124.516 227.046 127.039 229.004C127.34 229.23 127.49 229.644 127.34 230.021C127.189 230.397 126.85 230.661 126.436 230.661ZM118.303 195.795C118.228 195.795 118.19 195.795 118.19 195.795C115.517 196.247 113.559 197.339 112.43 199.071C111.187 200.953 110.923 203.626 111.714 206.752C113.258 212.964 114.086 217.106 112.806 222.679C112.354 224.712 112.618 226.406 113.672 227.724C114.915 229.268 117.174 230.209 119.734 230.209C121.504 230.209 124.328 230.209 126.436 230.247C126.7 230.247 126.85 230.058 126.926 229.908C126.963 229.757 126.963 229.531 126.775 229.343C124.139 227.347 122.633 225.013 122.144 222.264C121.315 217.558 121.843 212.625 122.106 210.253L122.144 209.99C122.219 209.35 122.37 208.597 122.483 207.844C122.935 205.509 123.462 202.61 122.445 199.899C121.014 196.058 118.83 195.795 118.303 195.795Z" fill="#030303"/>
<path d="M120.826 222.227C119.96 217.407 120.562 212.324 120.826 210.028C121.127 207.354 122.483 203.514 121.127 199.824C119.471 195.418 116.873 195.531 116.609 195.569C110.509 196.586 108.514 200.916 109.945 206.789C111.451 212.851 112.317 217.031 111.036 222.603C109.756 228.176 114.35 230.36 118.19 230.36C120.148 230.36 123.386 230.36 125.533 230.397C126.022 230.397 126.21 229.795 125.834 229.494C124.215 228.364 121.504 226.143 120.826 222.227Z" fill="white"/>
<path d="M125.57 230.623C123.386 230.623 120.186 230.586 118.19 230.586C115.479 230.586 113.107 229.607 111.79 227.95C110.66 226.519 110.359 224.712 110.848 222.566C112.091 217.106 111.262 212.964 109.756 206.827C108.966 203.589 109.229 200.803 110.547 198.807C111.752 196.962 113.785 195.795 116.609 195.343C116.647 195.343 119.546 194.891 121.353 199.711C122.407 202.535 121.843 205.509 121.391 207.881C121.24 208.634 121.127 209.35 121.052 209.99L121.014 210.253C120.751 212.625 120.224 217.52 121.052 222.151C121.692 225.841 124.177 228.025 126.022 229.343C126.286 229.531 126.361 229.833 126.286 230.134C126.135 230.435 125.871 230.623 125.57 230.623ZM116.76 195.795C116.684 195.795 116.647 195.795 116.647 195.795C113.973 196.247 112.015 197.339 110.886 199.071C109.643 200.953 109.38 203.627 110.17 206.752C111.714 212.964 112.543 217.106 111.262 222.679C110.811 224.712 111.074 226.406 112.128 227.724C113.371 229.268 115.63 230.209 118.19 230.209C120.148 230.209 123.386 230.209 125.57 230.247C125.721 230.247 125.796 230.134 125.834 230.058C125.871 229.945 125.871 229.833 125.721 229.757C123.838 228.402 121.278 226.143 120.6 222.302C119.772 217.596 120.299 212.663 120.562 210.291L120.6 210.027C120.675 209.387 120.826 208.634 120.939 207.881C121.391 205.547 121.918 202.648 120.901 199.937C119.471 196.058 117.324 195.795 116.76 195.795Z" fill="#030303"/>
<path d="M115.63 208.521C118.063 208.521 120.035 205.976 120.035 202.836C120.035 199.696 118.063 197.15 115.63 197.15C113.197 197.15 111.225 199.696 111.225 202.836C111.225 205.976 113.197 208.521 115.63 208.521Z" fill="#D3C8BC"/>
<path d="M123.16 207.957C127.754 202.384 127.114 198.506 126.624 197.113C126.173 195.757 125.231 194.778 124.215 194.515L124.102 195.079C124.93 195.268 125.721 196.134 126.097 197.301C126.549 198.619 127.114 202.233 122.709 207.618L123.16 207.957Z" fill="#030303"/>
<path d="M126.06 214.395C127.076 213.303 127.528 212.136 127.415 210.856C127.152 208.22 124.365 206.224 124.252 206.149L123.914 206.639C123.951 206.639 126.587 208.559 126.813 210.931C126.926 212.023 126.512 213.04 125.608 213.981L126.06 214.395Z" fill="#030303"/>
<path d="M128.018 211.571C128.884 210.404 129.222 209.199 128.997 207.994C128.545 205.622 126.06 204.078 125.947 204.041L125.646 204.53C125.683 204.53 128.018 205.961 128.432 208.107C128.62 209.161 128.356 210.216 127.566 211.232L128.018 211.571Z" fill="#030303"/>
<path d="M137.355 176.667C136.264 181.487 127.453 192.632 127.453 192.632C130.729 190.975 151.061 221.248 137.242 221.474C137.242 221.474 147.107 223.544 158.855 209.914C170.602 196.284 176.401 164.204 175.271 157.05C174.104 149.859 141.798 157.427 137.355 176.667Z" fill="#A0DAF8"/>
<path d="M127.829 192.142C127.603 192.444 127.453 192.632 127.453 192.632C130.729 190.975 151.061 221.248 137.242 221.474C137.242 221.474 147.107 223.544 158.855 209.914C166.046 201.555 171.017 186.306 173.502 174.069C165.821 191.653 138.937 192.293 127.829 192.142Z" fill="#A0DAF8"/>
<path d="M91.0809 170.455C97.5194 172.601 109.229 171.471 121.353 171.471C133.477 171.471 157.123 173.053 164.164 169.89C169.172 167.631 180.656 160.025 172.636 149.144C164.653 138.262 102.301 130.845 95.2603 130.581C88.257 130.318 73.8738 164.694 91.0809 170.455Z" fill="#A0DAF8"/>
<path d="M96.804 158.519L97.1805 157.427C96.8416 157.314 96.6533 157.239 96.6533 157.239L96.2768 158.331C96.2392 158.331 96.4274 158.406 96.804 158.519Z" fill="white"/>
<path d="M143.982 208.483C144.284 208.258 144.585 208.032 144.924 207.806L145.639 208.747C145.338 208.973 144.999 209.199 144.698 209.425L143.982 208.483ZM146.279 206.714C146.58 206.488 146.844 206.224 147.145 205.961L147.936 206.827C147.635 207.09 147.333 207.354 147.032 207.618L146.279 206.714ZM148.388 204.794C148.651 204.53 148.915 204.266 149.178 203.965L150.007 204.756C149.743 205.057 149.442 205.321 149.178 205.584L148.388 204.794ZM150.346 202.723C150.609 202.421 150.835 202.158 151.099 201.857L152.002 202.61C151.739 202.911 151.475 203.212 151.249 203.513L150.346 202.723ZM152.19 200.539C152.416 200.238 152.642 199.936 152.906 199.635L153.847 200.313C153.621 200.614 153.358 200.953 153.132 201.254L152.19 200.539ZM153.885 198.204C154.111 197.903 154.337 197.564 154.525 197.263L155.504 197.903C155.278 198.242 155.052 198.543 154.864 198.882L153.885 198.204ZM155.466 195.795C155.654 195.456 155.88 195.155 156.069 194.816L157.085 195.418C156.897 195.757 156.671 196.096 156.483 196.435L155.466 195.795ZM156.935 193.31C157.123 192.971 157.311 192.632 157.499 192.293L158.516 192.858C158.328 193.197 158.14 193.536 157.951 193.874L156.935 193.31ZM158.252 190.787C158.441 190.448 158.591 190.109 158.742 189.733L159.796 190.222C159.646 190.561 159.457 190.938 159.269 191.276L158.252 190.787ZM159.495 188.151C159.646 187.812 159.796 187.436 159.947 187.097L161.001 187.549C160.85 187.925 160.7 188.264 160.549 188.603L159.495 188.151ZM160.625 185.516C160.775 185.139 160.926 184.8 161.039 184.424L162.131 184.838C161.98 185.214 161.867 185.553 161.717 185.93L160.625 185.516ZM161.641 182.805C161.754 182.428 161.905 182.089 162.018 181.713L163.11 182.089C162.997 182.466 162.846 182.842 162.733 183.181L161.641 182.805ZM162.545 180.094C162.658 179.717 162.771 179.341 162.884 179.002L164.013 179.341C163.9 179.717 163.787 180.094 163.674 180.47L162.545 180.094ZM163.336 177.307C163.449 176.931 163.524 176.554 163.637 176.178L164.766 176.441C164.691 176.818 164.578 177.194 164.465 177.571L163.336 177.307ZM163.976 174.521C164.051 174.145 164.126 173.768 164.202 173.392L165.331 173.617C165.256 173.994 165.181 174.371 165.105 174.785L163.976 174.521ZM164.503 171.697C164.578 171.321 164.616 170.944 164.653 170.568L165.821 170.718C165.783 171.095 165.708 171.471 165.67 171.885L164.503 171.697ZM164.879 168.836C164.917 168.459 164.955 168.045 164.955 167.706L166.122 167.744C166.122 168.12 166.084 168.534 166.047 168.911L164.879 168.836ZM164.879 164.882L166.047 164.732C166.084 165.108 166.122 165.522 166.122 165.936L164.955 165.974C164.955 165.598 164.917 165.221 164.879 164.882ZM138.673 165.183V164.016C139.05 164.016 139.426 164.016 139.841 164.016V165.183C139.803 165.183 139.728 165.183 139.69 165.183C139.351 165.183 139.012 165.183 138.673 165.183ZM141.573 164.016C141.949 164.016 142.363 164.016 142.74 164.016L142.777 165.183C142.401 165.183 141.987 165.183 141.61 165.183L141.573 164.016ZM135.736 165.146L135.774 163.979C136.151 163.979 136.565 163.979 136.941 164.016L136.904 165.183C136.527 165.146 136.151 165.146 135.736 165.146ZM144.472 163.941C144.848 163.941 145.262 163.903 145.639 163.903L145.677 165.07C145.3 165.07 144.886 165.108 144.509 165.108L144.472 163.941ZM132.837 165.033L132.875 163.866C133.251 163.866 133.628 163.903 134.042 163.903L134.004 165.07C133.59 165.07 133.214 165.07 132.837 165.033ZM147.333 163.866C147.71 163.828 148.124 163.828 148.501 163.79L148.576 164.957C148.199 164.995 147.785 164.995 147.409 165.033L147.333 163.866ZM129.938 164.92L130.013 163.753C130.39 163.79 130.766 163.79 131.181 163.828L131.143 164.995C130.691 164.957 130.315 164.92 129.938 164.92ZM150.233 163.677C150.609 163.64 150.986 163.602 151.4 163.602L151.513 164.769C151.136 164.807 150.722 164.845 150.346 164.845L150.233 163.677ZM127.001 164.732L127.076 163.564C127.453 163.602 127.829 163.602 128.244 163.64L128.168 164.807C127.792 164.769 127.415 164.732 127.001 164.732ZM124.102 164.468L124.215 163.301C124.591 163.338 124.968 163.376 125.307 163.414H125.382L125.231 164.581C124.855 164.543 124.478 164.506 124.102 164.468ZM153.094 163.414C153.471 163.376 153.847 163.338 154.224 163.301L154.374 164.468C153.998 164.506 153.621 164.543 153.207 164.581L153.094 163.414ZM121.203 164.129L121.353 162.962C121.73 163 122.106 163.075 122.483 163.113L122.332 164.28C121.993 164.242 121.579 164.204 121.203 164.129ZM155.956 163.075C156.332 163.037 156.709 162.962 157.085 162.887L157.274 164.016C156.897 164.091 156.52 164.129 156.106 164.204L155.956 163.075ZM118.303 163.715L118.492 162.548C118.868 162.623 119.245 162.661 119.621 162.736L119.433 163.903C119.094 163.866 118.68 163.79 118.303 163.715ZM158.78 162.585C159.156 162.51 159.533 162.435 159.909 162.359L160.173 163.489C159.796 163.564 159.42 163.677 159.006 163.753L158.78 162.585ZM115.442 163.225L115.668 162.096C116.044 162.171 116.421 162.247 116.797 162.284L116.609 163.414C116.195 163.376 115.818 163.301 115.442 163.225ZM164.089 162.585L164.842 161.719C165.143 161.983 165.406 162.397 165.632 162.924L164.54 163.338C164.39 163 164.239 162.736 164.089 162.585ZM161.566 161.908C161.942 161.795 162.319 161.682 162.62 161.531L163.034 162.623C162.695 162.774 162.319 162.887 161.905 163L161.566 161.908ZM112.58 162.661L112.806 161.531C113.183 161.606 113.559 161.682 113.936 161.757L113.71 162.887C113.333 162.849 112.957 162.774 112.58 162.661ZM109.719 162.058L109.982 160.929C110.359 161.004 110.735 161.079 111.112 161.192L110.848 162.322C110.472 162.246 110.095 162.134 109.719 162.058ZM106.895 161.38L107.158 160.251C107.535 160.326 107.911 160.439 108.288 160.514L108.024 161.644C107.648 161.569 107.271 161.493 106.895 161.38ZM104.071 160.665L104.372 159.536C104.749 159.649 105.125 159.724 105.502 159.837L105.2 160.966C104.824 160.853 104.447 160.74 104.071 160.665ZM101.247 159.874L101.586 158.745C101.925 158.858 102.301 158.933 102.715 159.046L102.414 160.176C102 160.1 101.623 159.987 101.247 159.874ZM98.4607 159.046L98.7996 157.917C99.1384 158.029 99.515 158.142 99.8915 158.255L99.5526 159.385C99.1761 159.272 98.7996 159.159 98.4607 159.046Z" fill="white"/>
<path d="M142.702 210.667C142.89 210.554 143.041 210.479 143.192 210.366L142.589 209.387C142.439 209.5 142.25 209.575 142.1 209.688L142.702 210.667Z" fill="white"/>
<path d="M98.1972 43.8677C88.1817 41.9098 81.8561 46.0139 81.0277 50.5321C79.8982 56.7448 81.969 61.2254 82.3832 62.355C82.3832 62.355 82.3832 62.355 82.3832 62.3926L78.2415 71.8057C81.7431 77.3782 89.989 75.3073 89.989 75.3073L91.8716 69.5842C92.7752 69.9607 93.5283 70.149 94.0178 70.149C97.896 70.036 102.49 59.9829 102.753 54.9751C103.017 50.5698 103.393 44.8843 98.1972 43.8677Z" fill="#FFC3AB"/>
<path d="M100.23 48.1602C99.7033 48.3108 98.0466 48.6874 98.0466 48.6874C98.0466 48.6874 97.03 52.5655 96.2016 53.921C95.3733 55.3141 96.3522 61.9786 100.268 62.3175C104.184 62.6563 100.456 65.8191 100.042 67.0617C99.4397 68.7937 99.9668 70.3751 96.3899 71.0528C93.9801 71.5046 89.989 68.6807 92.0222 65.292C94.0554 61.9409 95.8251 58.5146 93.8672 54.2222C91.9469 49.8922 93.566 59.117 88.1817 61.4891C82.7974 63.8989 81.2913 64.9155 81.2913 64.9155C81.2913 64.9155 81.1784 62.7317 80.3877 61.4138C77.865 57.2344 76.7354 53.6198 77.5637 47.3695C78.3921 41.1192 81.5172 39.4249 87.2404 39.1613C92.9259 38.8978 93.2271 41.0063 96.804 39.5755C101.209 37.8058 103.092 41.1946 106.292 40.5168C106.255 40.5168 105.201 46.7671 100.23 48.1602Z" fill="#030303"/>
<path d="M95.1096 73.6507C105.012 77.1147 116.308 89.2011 114.162 111.792C112.016 134.384 125.382 128.548 127.227 134.798C127.227 134.798 108.288 150.65 96.8416 171.547C96.8416 171.547 58.1351 174.596 60.5072 143.157C62.8793 111.717 62.5404 113.073 63.3688 101.287C64.536 84.1557 72.5936 70.262 79.371 69.6219C84.9435 69.0948 87.4662 70.9774 95.1096 73.6507Z" fill="#F2E6D6"/>
<path d="M95.1096 73.6507C105.012 77.1147 116.308 89.2011 114.162 111.792C112.58 128.736 119.659 129.677 124.102 131.748C125.57 132.426 93.3023 133.518 72.4806 166.84C65.289 162.924 59.5658 155.846 60.5448 143.157C62.9169 111.717 62.578 113.073 63.4064 101.287C64.5736 84.1557 72.6312 70.262 79.4086 69.6219C84.9435 69.0948 87.4662 70.9774 95.1096 73.6507Z" fill="white"/>
<path d="M89.8174 53.0377C88.0862 53.5629 87.1771 55.6179 87.7868 57.6277C88.3965 59.6374 90.2942 60.8409 92.0254 60.3157C93.7565 59.7905 94.6656 57.7355 94.0559 55.7258C93.4462 53.716 91.5486 52.5125 89.8174 53.0377Z" fill="#FFA47F"/>
<path d="M91.9092 59.1922C91.9845 59.1922 92.0598 59.1922 92.1351 59.1545C92.6999 58.9662 93.0011 58.2132 93.0387 58.1379L92.5116 57.9496C92.4363 58.1379 92.2104 58.5521 91.9845 58.6274C91.9468 58.6274 91.8715 58.665 91.7962 58.5897C91.608 58.4768 91.608 58.4014 91.6456 58.1002C91.6833 57.7237 91.7209 57.2342 91.2314 56.6694C90.8926 56.2553 90.516 56.067 90.1772 55.9164C89.7253 55.6905 89.6124 55.6528 89.763 55.1257C89.8006 54.9751 89.9136 54.8245 90.0642 54.7492C90.5913 54.4856 91.5703 54.6739 91.9092 54.7868L92.0974 54.2221C92.0221 54.2221 90.6666 53.7702 89.8006 54.2221C89.4994 54.3727 89.3112 54.6362 89.1982 54.9374C88.897 55.9164 89.4618 56.18 89.9136 56.4059C90.1772 56.5565 90.516 56.7071 90.742 57.0083C91.0808 57.3848 91.0432 57.6861 91.0055 57.9873C90.9679 58.3261 90.9302 58.7403 91.4197 59.0415C91.5703 59.1168 91.7209 59.1922 91.9092 59.1922Z" fill="#030303"/>
<path d="M186.379 122.072C186.492 121.206 183.517 120.227 182.049 116.047C180.58 111.868 179.338 113.939 175.685 112.621C172.033 111.265 171.393 110.399 168.193 113.11C164.992 115.821 163.863 115.859 161.905 115.181C159.947 114.504 130.992 103.735 122.031 103.509C113.07 103.283 97.9712 122.636 112.467 128.887C132.574 137.509 162.018 121.093 169.548 123.352C169.548 123.352 173.163 123.088 174.179 120.151C175.196 117.214 178.585 118.946 179.187 120.453C179.79 121.959 178.961 123.804 180.505 123.804C182.011 123.841 182.162 121.507 182.162 121.507C182.162 121.507 186.153 123.54 186.379 122.072Z" fill="#FFC3AB"/>
<path d="M186.379 122.071C186.492 121.318 184.308 120.49 182.764 117.666C167.854 115.445 144.961 132.087 112.505 128.924C132.611 137.546 162.055 121.13 169.586 123.389C169.586 123.389 173.2 123.126 174.217 120.189C175.234 117.252 178.622 118.984 179.225 120.49C179.827 121.996 178.999 123.841 180.543 123.841C182.049 123.879 182.199 121.544 182.199 121.544C182.199 121.544 186.153 123.54 186.379 122.071Z" fill="#F4B298"/>
<path d="M84.7552 75.4957C81.5925 77.5666 74.062 87.1679 76.8106 95.9032C79.5592 104.639 94.8461 122.825 105.05 131.673C105.05 131.673 123.123 124.029 128.055 103.434C128.055 103.434 109.907 83.4027 103.883 78.7715C97.8959 74.1779 88.2193 73.2366 84.7552 75.4957Z" fill="white"/>
<path d="M104.711 108.667C106.142 108.667 107.083 108.441 107.121 108.441L106.97 107.877C106.895 107.914 98.5736 110.023 93.7541 102.266L93.2646 102.568C96.6534 108.027 101.812 108.667 104.711 108.667Z" fill="#030303"/>
<path d="M105.088 132.35L105.276 132.275C105.351 132.237 112.317 128.924 117.212 123.05L116.76 122.674C112.354 127.907 106.292 131.108 105.2 131.673C103.581 130.204 89.0477 116.649 83.1363 103.998L82.6091 104.262C88.8971 117.704 104.824 132.125 104.975 132.275L105.088 132.35Z" fill="#030303"/>
<path d="M148.915 172.187C152.303 172.187 157.575 170.342 163.448 163.79C153.659 172.639 141.573 171.547 141.46 171.547L141.384 172.111C141.384 172.111 147.936 172.187 148.915 172.187Z" fill="white"/>
<path d="M157.236 173.655H102.151V171.132H157.274C157.951 171.132 158.516 171.697 158.516 172.375C158.516 173.09 157.951 173.655 157.236 173.655Z" fill="#030303"/>
<path d="M101.36 223.921C100.456 223.921 99.7032 223.319 99.7032 222.566V172.187H103.054V222.566C103.017 223.319 102.264 223.921 101.36 223.921Z" fill="#F2E6D6"/>
<path d="M102.377 172.751H101.812V222.038H102.377V172.751Z" fill="#030303"/>
<path d="M117.739 228.929H118.304V224.26C118.304 221.022 115.668 218.424 112.467 218.424H90.2902C87.0521 218.424 84.4541 221.059 84.4541 224.26V228.176H85.0189V224.26C85.0189 221.361 87.391 218.989 90.2902 218.989H112.467C115.367 218.989 117.739 221.361 117.739 224.26V228.929Z" fill="#030303"/>
<path d="M126.248 228.929H126.813V224.26C126.813 221.022 124.177 218.424 120.977 218.424H81.7808C78.5427 218.424 75.9447 221.059 75.9447 224.26V228.176H76.5095V224.26C76.5095 221.361 78.8816 218.989 81.7808 218.989H121.014C123.914 218.989 126.286 221.361 126.286 224.26V228.929H126.248Z" fill="#030303"/>
<path d="M119.132 230.886C120.671 230.886 121.918 229.639 121.918 228.1C121.918 226.561 120.671 225.314 119.132 225.314C117.593 225.314 116.345 226.561 116.345 228.1C116.345 229.639 117.593 230.886 119.132 230.886Z" fill="#A0DAF8"/>
<path d="M127.528 230.886C129.067 230.886 130.314 229.639 130.314 228.1C130.314 226.561 129.067 225.314 127.528 225.314C125.989 225.314 124.742 226.561 124.742 228.1C124.742 229.639 125.989 230.886 127.528 230.886Z" fill="#A0DAF8"/>
<path d="M77.3001 230.886C78.8389 230.886 80.0863 229.639 80.0863 228.1C80.0863 226.561 78.8389 225.314 77.3001 225.314C75.7612 225.314 74.5138 226.561 74.5138 228.1C74.5138 229.639 75.7612 230.886 77.3001 230.886Z" fill="#A0DAF8"/>
<path d="M86.0354 230.886C87.5742 230.886 88.8217 229.639 88.8217 228.1C88.8217 226.561 87.5742 225.314 86.0354 225.314C84.4966 225.314 83.2491 226.561 83.2491 228.1C83.2491 229.639 84.4966 230.886 86.0354 230.886Z" fill="#A0DAF8"/>
<path d="M118.002 230.886C119.541 230.886 120.788 229.639 120.788 228.1C120.788 226.561 119.541 225.314 118.002 225.314C116.463 225.314 115.216 226.561 115.216 228.1C115.216 229.639 116.463 230.886 118.002 230.886Z" fill="#030303"/>
<path d="M126.399 230.886C127.938 230.886 129.185 229.639 129.185 228.1C129.185 226.561 127.938 225.314 126.399 225.314C124.86 225.314 123.612 226.561 123.612 228.1C123.612 229.639 124.86 230.886 126.399 230.886Z" fill="#030303"/>
<path d="M76.1705 230.886C77.7094 230.886 78.9568 229.639 78.9568 228.1C78.9568 226.561 77.7094 225.314 76.1705 225.314C74.6317 225.314 73.3843 226.561 73.3843 228.1C73.3843 229.639 74.6317 230.886 76.1705 230.886Z" fill="#030303"/>
<path d="M84.9059 230.886C86.4447 230.886 87.6922 229.639 87.6922 228.1C87.6922 226.561 86.4447 225.314 84.9059 225.314C83.3671 225.314 82.1196 226.561 82.1196 228.1C82.1196 229.639 83.3671 230.886 84.9059 230.886Z" fill="#030303"/>
<path d="M118.002 229.23C118.626 229.23 119.132 228.724 119.132 228.1C119.132 227.476 118.626 226.971 118.002 226.971C117.378 226.971 116.873 227.476 116.873 228.1C116.873 228.724 117.378 229.23 118.002 229.23Z" fill="#A0DAF8"/>
<path d="M126.399 229.23C127.023 229.23 127.528 228.724 127.528 228.1C127.528 227.476 127.023 226.971 126.399 226.971C125.775 226.971 125.269 227.476 125.269 228.1C125.269 228.724 125.775 229.23 126.399 229.23Z" fill="#A0DAF8"/>
<path d="M76.1706 229.23C76.7944 229.23 77.3002 228.724 77.3002 228.1C77.3002 227.476 76.7944 226.971 76.1706 226.971C75.5467 226.971 75.041 227.476 75.041 228.1C75.041 228.724 75.5467 229.23 76.1706 229.23Z" fill="#A0DAF8"/>
<path d="M84.9058 229.23C85.5297 229.23 86.0354 228.724 86.0354 228.1C86.0354 227.476 85.5297 226.971 84.9058 226.971C84.282 226.971 83.7762 227.476 83.7762 228.1C83.7762 228.724 84.282 229.23 84.9058 229.23Z" fill="#A0DAF8"/>
<path d="M68 173.429H110.773C108.853 173.053 99.1007 169.777 101.586 142.103C103.092 125.573 93.0387 100.271 89.9512 93.5312H45.6345C45.5215 94.3219 45.8228 95.4892 47.3665 97.2212C50.7929 101.099 58.1351 131.071 59.114 139.655C60.093 148.052 52.1107 167.857 68 173.429Z" fill="#F2E6D6"/>
<path d="M68 173.429H110.773C108.853 173.053 99.1008 169.777 101.586 142.103C96.6534 157.916 82.5338 169.25 60.0177 166.991C61.5614 169.777 64.0465 172.036 68 173.429Z" fill="#D3C8BC"/>
<path d="M110.811 173.655H67.9624H67.9248C55.9513 169.438 57.3821 156.975 58.4364 147.863C58.8129 144.625 59.1518 141.801 58.8882 139.693C57.8339 130.694 50.5671 101.137 47.1784 97.3716C45.8229 95.8655 45.2581 94.5853 45.4087 93.531L45.4464 93.3428H90.1019L90.1396 93.4557C93.8672 101.551 103.243 126.138 101.812 142.14C99.3268 169.589 108.89 172.864 110.811 173.241V173.655ZM68.0377 173.241H109.455C106.179 171.81 99.2514 165.936 101.398 142.102C102.828 126.251 93.6036 101.965 89.8384 93.757H45.8229C45.7852 94.6606 46.35 95.7902 47.5172 97.108C50.9436 100.949 58.2858 130.656 59.34 139.693C59.6036 141.839 59.2647 144.7 58.8882 147.976C57.7586 157.352 56.4032 169.137 68.0377 173.241Z" fill="#030303"/>
<path d="M113.446 174.333H108.702C108.552 174.295 105.238 173.731 102.301 170.003C98.4231 165.108 97.1052 157.314 98.3854 146.922C98.7996 143.496 101.059 140.672 104.259 139.467C111.15 136.944 125.495 132.765 144.171 132.765H144.208C144.208 132.765 144.397 132.765 144.735 132.84L149.856 133.781L144.622 133.97C127.98 134.535 115.329 138.337 109.229 140.521C106.405 141.538 104.447 144.061 104.071 147.035C102.565 159.573 105.238 166.012 107.723 169.212C110.396 172.639 113.446 173.166 113.484 173.203L113.446 174.333ZM108.853 173.203H110.585C109.493 172.563 108.213 171.547 106.97 170.003C103.092 165.108 101.774 157.314 103.054 146.922C103.468 143.496 105.728 140.634 108.928 139.467C110.924 138.752 113.635 137.848 116.948 136.944C111.677 138.149 107.497 139.505 104.636 140.521C101.812 141.538 99.8539 144.061 99.4773 147.035C96.6911 170.304 108.1 173.053 108.853 173.203Z" fill="#030303"/>
<path d="M113.446 173.768C110.66 173.768 108.777 173.768 108.777 173.768C108.777 173.768 95.938 171.735 98.9125 146.998C99.289 143.835 101.435 141.124 104.41 140.032C111.375 137.509 125.57 133.367 144.133 133.367C144.133 133.367 144.321 133.367 144.622 133.443C128.093 134.008 115.479 137.697 109.079 140.032C106.066 141.124 103.958 143.835 103.581 146.998C100.607 171.735 113.446 173.768 113.446 173.768Z" fill="#D3C8BC"/>
<path d="M154.45 145.83C150.534 157.578 146.505 167.518 146.505 167.518C146.505 167.518 144.585 173.731 136.866 173.731H132.197C139.954 173.731 141.874 167.518 141.874 167.518C141.874 167.518 145.903 157.578 149.818 145.83C153.207 135.702 146.58 133.744 144.66 133.367C146.016 133.33 147.409 133.292 148.839 133.292C148.839 133.33 158.403 134.083 154.45 145.83Z" fill="#D3C8BC"/>
<path d="M113.371 174.333C112.806 174.258 100.004 171.923 103.017 146.922C103.431 143.496 105.69 140.634 108.89 139.467C115.781 136.944 130.089 132.765 148.802 132.765H148.839C148.99 132.765 152.68 133.104 154.713 136.154C156.295 138.563 156.408 141.877 155.014 146.056C151.136 157.691 147.107 167.706 147.07 167.744C147.032 167.819 144.924 174.371 136.866 174.371H113.409L113.371 174.333ZM109.305 140.521C106.481 141.538 104.523 144.023 104.184 147.035C101.398 170.229 112.769 173.015 113.522 173.166H136.904C144.095 173.166 145.94 167.593 146.015 167.33C146.053 167.217 150.082 157.277 153.922 145.642C155.203 141.839 155.127 138.865 153.772 136.756C152.153 134.271 149.065 133.894 148.802 133.857C130.315 133.894 116.12 138.036 109.305 140.521Z" fill="#030303"/>
<path d="M52.4873 110.362H81.5925V109.759H52.2614L52.4873 110.362Z" fill="#030303"/>
<path d="M53.9557 115.972H83.2868V115.369H53.8051L53.9557 115.972Z" fill="#030303"/>
<path d="M55.3865 121.582H85.546V120.979H55.2736L55.3865 121.582Z" fill="#030303"/>
<path d="M339.435 231.564H301.444C301.143 231.564 300.879 231.301 300.879 231C300.879 230.698 301.143 230.435 301.444 230.435H339.435C339.736 230.435 340 230.698 340 231C340 231.301 339.736 231.564 339.435 231.564Z" fill="#030303"/>
<path d="M294.29 231.564H69.2049C68.9037 231.564 68.6401 231.301 68.6401 231C68.6401 230.698 68.9037 230.435 69.2049 230.435H294.29C294.591 230.435 294.855 230.698 294.855 231C294.855 231.301 294.591 231.564 294.29 231.564Z" fill="#030303"/>
<path d="M62.0509 231.564H0.564784C0.263566 231.564 0 231.301 0 231C0 230.698 0.263566 230.435 0.564784 230.435H62.0509C62.3522 230.435 62.6157 230.698 62.6157 231C62.6157 231.301 62.3898 231.564 62.0509 231.564Z" fill="#030303"/>
<path d="M166.047 47.1059H205.468L224.295 56.8955L219.099 47.1059H228.926C229.98 47.1059 230.808 46.2775 230.808 45.2233V11.3362C230.808 10.282 229.98 9.45361 228.926 9.45361H166.047C164.992 9.45361 164.164 10.282 164.164 11.3362V45.2233C164.164 46.2775 165.03 47.1059 166.047 47.1059Z" fill="white"/>
<path d="M182.425 20.1467V47.1058H188.073L182.425 20.1467Z" fill="#F2E6D6"/>
<path d="M224.295 57.2718C224.219 57.2718 224.182 57.2718 224.106 57.2342L205.355 47.4822H185.023C184.797 47.4822 184.647 47.3316 184.647 47.1057C184.647 46.8798 184.797 46.7292 185.023 46.7292H205.431C205.506 46.7292 205.544 46.7292 205.619 46.7668L223.353 55.9916L218.722 47.2563C218.647 47.1433 218.647 46.9927 218.722 46.8798C218.797 46.7668 218.91 46.6915 219.061 46.6915H228.926C229.754 46.6915 230.432 46.0138 230.432 45.1854V11.2984C230.432 10.47 229.754 9.7923 228.926 9.7923H166.046C165.218 9.7923 164.54 10.47 164.54 11.2984V15.6284C164.54 15.8543 164.39 16.0049 164.164 16.0049C163.938 16.0049 163.787 15.8543 163.787 15.6284V11.336C163.787 10.0935 164.804 9.0769 166.046 9.0769H228.926C230.168 9.0769 231.185 10.0935 231.185 11.336V45.2231C231.185 46.4656 230.168 47.4822 228.926 47.4822H219.739L224.633 56.707C224.709 56.8576 224.671 57.0459 224.558 57.1588C224.483 57.2341 224.408 57.2718 224.295 57.2718Z" fill="#030303"/>
<path d="M180.543 55.9164H141.121L122.295 65.706L127.491 55.9164H117.663C116.609 55.9164 115.781 55.0881 115.781 54.0338V20.1468C115.781 19.0925 116.609 18.2642 117.663 18.2642H180.543C181.597 18.2642 182.425 19.0925 182.425 20.1468V54.0338C182.425 55.0881 181.597 55.9164 180.543 55.9164Z" fill="white"/>
<path d="M122.295 66.0826C122.182 66.0826 122.106 66.045 122.031 65.9696C121.918 65.8567 121.88 65.6684 121.956 65.5178L126.85 56.293H117.663C116.421 56.293 115.404 55.2764 115.404 54.0339V20.1468C115.404 18.9043 116.421 17.8877 117.663 17.8877H180.543C181.785 17.8877 182.802 18.9043 182.802 20.1468V54.0339C182.802 55.2764 181.785 56.293 180.543 56.293H141.196L122.445 66.0449C122.408 66.0826 122.37 66.0826 122.295 66.0826ZM117.663 18.6407C116.835 18.6407 116.157 19.3185 116.157 20.1468V54.0339C116.157 54.8622 116.835 55.54 117.663 55.54H127.491C127.641 55.54 127.754 55.6153 127.829 55.7282C127.905 55.8412 127.905 55.9918 127.829 56.1047L123.198 64.8401L140.932 55.6153C140.97 55.5776 141.045 55.5776 141.121 55.5776H180.543C181.371 55.5776 182.049 54.8999 182.049 54.0715V20.1845C182.049 19.3561 181.371 18.6784 180.543 18.6784H117.663V18.6407Z" fill="#030303"/>
<path d="M126.361 41.8721H123.161V50.2685H126.361V41.8721Z" fill="#66C4F3"/>
<path d="M137.242 41.8721H134.042V50.2685H137.242V41.8721Z" fill="#66C4F3"/>
<path d="M131.821 34.2288H128.62V50.2686H131.821V34.2288Z" fill="#FFCB78"/>
<path d="M142.664 34.2288H139.464V50.2686H142.664V34.2288Z" fill="#FFCB78"/>
<path d="M148.086 34.6804H144.886V50.2685H148.086V34.6804Z" fill="#66C4F3"/>
<path d="M158.968 34.6804H155.767V50.2685H158.968V34.6804Z" fill="#66C4F3"/>
<path d="M169.849 34.6804H166.649V50.2685H169.849V34.6804Z" fill="#66C4F3"/>
<path d="M153.546 26.51H150.345V50.2686H153.546V26.51Z" fill="#FFCB78"/>
<path d="M164.39 28.8445H161.189V50.2686H164.39V28.8445Z" fill="#FFCB78"/>
<path d="M175.271 32.1201H172.071V50.2685H175.271V32.1201Z" fill="#66C4F3"/>
<path d="M176.74 34.2286L176.551 33.9274C176.476 33.8144 176.363 33.7391 176.213 33.7391C176.175 33.7391 176.137 33.7391 176.062 33.7768C174.857 34.2286 173.803 34.4545 172.786 34.4545C169.172 34.4545 166.687 31.4423 163.825 27.5265C161.98 25.0414 159.57 23.6483 156.784 23.573C156.671 23.573 156.558 23.573 156.445 23.573C152.981 23.573 149.367 25.5686 145.978 29.2961C141.384 34.3792 138.673 35.3205 134.983 35.3205C134.004 35.3205 132.95 35.2452 131.783 35.1699C131.293 35.1322 130.804 35.0946 130.277 35.0946C130.126 35.0946 129.976 35.0946 129.825 35.0946C123.048 35.0946 121.466 43.4534 121.466 43.5287C121.466 43.6417 121.466 43.7546 121.541 43.8299C121.617 43.9052 121.692 43.9805 121.805 43.9805L122.257 44.0182H122.295C122.483 44.0182 122.633 43.9052 122.671 43.717C122.671 43.6417 124.102 36.1865 129.863 36.1865C129.976 36.1865 130.126 36.1865 130.239 36.1865C130.729 36.2242 131.18 36.2242 131.632 36.2618H131.708C132.875 36.3371 133.967 36.4124 134.983 36.4124C138.974 36.4124 142.062 35.3958 146.919 29.9739C150.082 26.4722 153.358 24.6273 156.445 24.6273C156.558 24.6273 156.671 24.6273 156.746 24.6273C159.156 24.7026 161.265 25.9074 162.846 28.1289C165.821 32.1954 168.607 35.5464 172.824 35.5464C173.991 35.5464 175.196 35.2829 176.551 34.7934C176.664 34.7557 176.74 34.6804 176.777 34.5675C176.777 34.4545 176.777 34.3415 176.74 34.2286Z" fill="#F84558"/>
<path d="M203.285 27.8279H188.111V29.3716H203.285V27.8279Z" fill="#5C94B9"/>
<path d="M200.122 35.2075H188.111V36.7513H200.122V35.2075Z" fill="#F84558"/>
<path d="M211.945 35.2075H202.757V36.7513H211.945V35.2075Z" fill="#F84558"/>
<path d="M194.85 31.5178H188.111V33.0616H194.85V31.5178Z" fill="#F84558"/>
<path d="M211.945 31.5178H197.486V33.0616H211.945V31.5178Z" fill="#F84558"/>
<path d="M197.863 24.1379H188.111V25.6817H197.863V24.1379Z" fill="#5C94B9"/>
<path d="M211.945 24.1379H200.498V25.6817H211.945V24.1379Z" fill="#5C94B9"/>
<path d="M205.77 20.4856H188.111V22.0293H205.77V20.4856Z" fill="#F84558"/>
<path d="M224.746 20.4856H208.405V22.0293H224.746V20.4856Z" fill="#F84558"/>
<path d="M200.122 16.7957H188.111V18.3394H200.122V16.7957Z" fill="#F84558"/>
<path d="M224.746 16.7957H202.757V18.3394H224.746V16.7957Z" fill="#F84558"/>
<path d="M204.64 38.8599H188.111V40.4036H204.64V38.8599Z" fill="#F84558"/>
<path d="M224.219 32.911C223.88 32.3838 223.429 31.9697 222.826 31.6308C222.261 31.3296 221.433 31.066 220.266 30.7648V27.9785C220.605 28.0538 220.906 28.1668 221.132 28.3174C221.471 28.581 221.734 29.0704 221.809 29.7105L224.332 29.5976C224.295 28.468 223.88 27.5267 223.09 26.849C222.412 26.2842 221.471 25.9453 220.266 25.8323V24.1003H218.948V25.8323C218.233 25.87 217.63 26.0206 217.065 26.2465C216.388 26.5477 215.86 26.9619 215.522 27.5267C215.183 28.0915 214.994 28.6563 214.994 29.2964C214.994 30.2753 215.371 31.1037 216.124 31.8191C216.651 32.3085 217.592 32.7227 218.948 33.0616V36.5256C218.534 36.4503 218.157 36.262 217.894 36.0361C217.442 35.6596 217.141 35.0572 216.99 34.2288L214.543 34.4547C214.693 35.8479 215.22 36.9021 216.049 37.6552C216.764 38.2576 217.743 38.6341 218.948 38.7094V40.4414H220.266V38.7471C221.094 38.7094 221.809 38.5588 222.412 38.2952C223.127 37.994 223.692 37.5422 224.106 36.9021C224.52 36.262 224.709 35.6219 224.709 34.9065C224.746 34.1158 224.558 33.4381 224.219 32.911ZM217.818 29.8988C217.555 29.6729 217.442 29.447 217.442 29.1457C217.442 28.8069 217.592 28.581 217.856 28.355C218.157 28.1291 218.534 28.0162 219.023 27.9409V30.4259C218.421 30.2377 218.044 30.0871 217.818 29.8988ZM221.584 36.1114C221.282 36.375 220.831 36.5256 220.303 36.6009V33.4005C220.642 33.4758 220.906 33.5511 221.056 33.6264C221.471 33.777 221.772 33.9652 221.96 34.1535C222.148 34.3418 222.224 34.6053 222.224 34.9065C222.224 35.3584 221.998 35.7725 221.584 36.1114Z" fill="#FFCB78"/>
</svg>
