<svg width="340" height="232" viewBox="0 0 340 232" fill="none" xmlns="http://www.w3.org/2000/svg">
<path d="M325.466 168.196C323.621 142.441 293.274 112.018 297.905 86.2265C302.009 63.221 298.244 50.231 273.619 39.3871C254.642 31.0283 253.437 15.8544 232.427 6.06485C213.526 -2.70813 197.185 11.1479 173.125 3.01502C141.798 -7.60292 133.553 12.2775 111.94 24.6651C86.0354 39.5001 77.7519 23.4226 56.629 38.1446C32.2303 55.1634 57.6833 81.2941 54.7088 102.116C50.7929 129.338 29.9712 138.262 22.4031 168.798C15.9646 194.778 23.6833 229.606 58.0598 229.606C72.3677 229.606 270.343 229.606 282.016 229.606C318.199 229.606 328.027 203.702 325.466 168.196Z" fill="#FEF2EF"/>
<path d="M309.087 152.269C295.909 140.182 278.476 171.509 280.133 183.859H286.722C293.085 180.771 319.743 162.058 309.087 152.269Z" fill="#F2E6D6"/>
<path d="M283.446 183.934C293.236 166.049 309.012 152.57 309.201 152.419L308.937 152.118C308.786 152.269 292.935 165.786 283.107 183.746L283.446 183.934Z" fill="#FEF8EC"/>
<path d="M291.278 171.622C291.73 171.584 302.762 170.417 306.113 169.175L305.962 168.798C302.649 170.041 291.353 171.208 291.24 171.245L291.278 171.622Z" fill="#FEF8EC"/>
<path d="M299.411 161.154L299.787 161.004C298.244 157.163 297.942 150.988 297.942 150.951H297.528C297.528 151.026 297.829 157.239 299.411 161.154Z" fill="#FEF8EC"/>
<path d="M285.931 163.64C281.903 170.718 279.418 178.851 280.095 183.859C289.32 175.839 287.4 164.957 285.931 163.64Z" fill="#D8CDC0"/>
<path d="M275.238 143.835C263.528 138.977 267.068 168.196 277.347 183.859H282.128C284.538 179.943 284.727 147.788 275.238 143.835Z" fill="#F2E6D6"/>
<path d="M279.907 183.896L280.284 183.821C278.439 175.161 273.468 147.185 273.393 146.884L273.017 146.96C273.092 147.261 278.062 175.236 279.907 183.896Z" fill="#FEF8EC"/>
<path d="M277.773 174.346L278.067 174.054L272.941 168.903L272.648 169.195L277.773 174.346Z" fill="#FEF8EC"/>
<path d="M276.315 162.846L282.139 158.757L281.901 158.418L276.077 162.507L276.315 162.846Z" fill="#FEF8EC"/>
<path d="M267.783 183.896V187.925C267.783 192.519 268.724 196.999 270.532 200.991L271.247 202.572L276.066 230.962H289.772L294.893 202.572L295.608 200.991C297.415 196.999 298.357 192.481 298.357 187.925V183.896H267.783Z" fill="#F2E6D6"/>
<path d="M290.751 193.837H267.934V194.251H290.751V193.837Z" fill="#FEF8EC"/>
<path d="M298.583 183.746H267.519V184.16H298.583V183.746Z" fill="#FEF8EC"/>
<path d="M295.043 202.346H286.873V202.76H295.043V202.346Z" fill="#FEF8EC"/>
<path d="M295.043 19.3938H136.64C134.645 19.3938 133.025 21.0128 133.025 23.0084V121.168C133.025 123.163 134.645 124.783 136.64 124.783H201.891L203.209 128.548H228.436L229.754 124.783H295.006C297.001 124.783 298.62 123.163 298.62 121.168V23.0084C298.658 21.0128 297.039 19.3938 295.043 19.3938Z" fill="#D8CDC0"/>
<path d="M229.942 130.581H204.715C204.527 130.581 204.339 130.468 204.264 130.28L203.021 126.816H138.146C135.887 126.816 134.042 124.971 134.042 122.712V24.5145C134.042 22.2554 135.887 20.4104 138.146 20.4104H296.549C298.808 20.4104 300.653 22.2554 300.653 24.5145V122.674C300.653 124.933 298.808 126.778 296.549 126.778H231.637L230.394 130.242C230.319 130.43 230.168 130.581 229.942 130.581ZM205.054 129.64H229.604L230.846 126.176C230.921 125.987 231.072 125.874 231.298 125.874H296.549C298.281 125.874 299.712 124.444 299.712 122.712V24.5145C299.712 22.7825 298.281 21.3517 296.549 21.3517H138.146C136.414 21.3517 134.983 22.7825 134.983 24.5145V122.674C134.983 124.406 136.414 125.837 138.146 125.837H203.398C203.586 125.837 203.774 125.95 203.849 126.138L205.054 129.64Z" fill="#030303"/>
<path d="M141.083 115.407H292.897C294.14 115.407 295.118 114.428 295.118 113.185V27.263C295.118 26.0205 294.14 25.0415 292.897 25.0415H141.083C139.841 25.0415 138.862 26.0205 138.862 27.263V113.185C138.824 114.428 139.841 115.407 141.083 115.407Z" fill="white"/>
<path d="M185.174 121.243H181.973H176.966C174.707 127.004 168.419 129.79 168.419 129.79H183.894H193.683C193.683 129.79 187.433 127.004 185.174 121.243Z" fill="#FFE594"/>
<path d="M176.89 118.72H185.249C185.362 118.72 185.437 118.796 185.437 118.909V121.055C185.437 121.168 185.362 121.243 185.249 121.243H176.89C176.777 121.243 176.702 121.168 176.702 121.055V118.909C176.702 118.796 176.777 118.72 176.89 118.72Z" fill="#FFA47F"/>
<path d="M196.507 129.79H165.632V140.898H196.507V129.79Z" fill="#FFA47F"/>
<path d="M192.027 138.526L194.662 129.79H196.507V140.898H165.632V140.145L192.027 138.526Z" fill="#CF7F6E"/>
<path d="M216.952 78.696L216.915 78.0936C216.877 77.6041 216.463 77.1899 215.973 77.1899H201.515C201.289 76.098 201.063 75.232 200.913 74.6672C200.8 74.2531 200.423 73.9895 200.009 73.9895H185.437H162.131C161.717 73.9895 161.34 74.2531 161.227 74.6672C161.076 75.232 160.851 76.0604 160.625 77.1899H146.166C145.677 77.1899 145.263 77.5665 145.225 78.0936L145.187 78.696C145.15 79.3738 144.359 95.7525 154.901 106.935C160.248 112.583 167.515 115.859 176.514 116.65C176.702 117.327 176.853 118.005 177.003 118.72H182.011H185.212C185.325 118.005 185.513 117.327 185.701 116.65C194.7 115.859 201.967 112.583 207.313 106.935C217.818 95.7525 217.028 79.3738 216.952 78.696ZM157.161 104.751C149.291 96.3926 148.35 84.4945 148.275 80.3527H160.06C159.194 87.1301 159.646 97.861 168.532 105.354C171.92 108.215 173.954 110.738 175.234 113.298C167.703 112.357 161.641 109.496 157.161 104.751ZM204.941 104.789C200.461 109.533 194.399 112.395 186.906 113.336C188.186 110.776 190.219 108.253 193.608 105.391C202.494 97.8987 202.908 87.1301 202.08 80.3904H213.865C213.752 84.4945 212.811 96.4679 204.941 104.789Z" fill="#FCFFA6"/>
<path d="M185.174 121.243C187.433 127.004 193.721 129.79 193.721 129.79H188.45C188.45 129.79 184.383 127.004 183.894 121.243H185.174Z" fill="#FFCB78"/>
<path d="M185.174 118.72C185.287 118.005 185.475 117.327 185.663 116.65C194.662 115.859 201.929 112.583 207.276 106.935C217.818 95.7525 217.028 79.3738 216.99 78.696L216.952 78.0936C216.915 77.6041 216.501 77.1899 216.011 77.1899H201.553C201.327 76.098 201.101 75.232 200.95 74.6672C200.837 74.2531 200.461 73.9895 200.046 73.9895H190.671C190.671 73.9895 197.599 91.0083 189.09 104.413C186.416 108.63 184.082 114.089 183.894 118.72H185.174ZM186.906 113.298C188.186 110.738 190.219 108.215 193.608 105.354C202.494 97.861 202.908 87.0925 202.08 80.3527H213.865C213.79 84.4945 212.848 96.4679 204.979 104.789C200.461 109.496 194.399 112.357 186.906 113.298Z" fill="#FCFFA6"/>
<path d="M187.847 92.4768C187.358 91.6861 186.68 91.046 185.814 90.5942C184.986 90.1424 183.705 89.7282 182.049 89.314V85.1723C182.576 85.2852 182.99 85.4358 183.329 85.6994C183.856 86.1136 184.195 86.7913 184.346 87.7703L188.073 87.6197C187.998 85.9253 187.395 84.5698 186.228 83.5532C185.249 82.6872 183.856 82.1977 182.049 82.0848V79.5244H180.128V82.0848C179.074 82.1601 178.133 82.3483 177.342 82.6872C176.326 83.1014 175.573 83.7415 175.045 84.5698C174.518 85.3982 174.255 86.2642 174.255 87.2055C174.255 88.6739 174.819 89.9164 175.949 90.933C176.74 91.6484 178.133 92.2509 180.128 92.7404V97.8987C179.488 97.7858 178.961 97.5222 178.547 97.1457C177.869 96.5809 177.418 95.6772 177.229 94.4724L173.577 94.8112C173.803 96.8821 174.556 98.4635 175.836 99.5554C176.89 100.459 178.321 100.986 180.166 101.137V103.697H182.086V101.099C183.329 101.024 184.383 100.836 185.249 100.459C186.341 100.007 187.169 99.3295 187.734 98.3882C188.337 97.4469 188.6 96.4679 188.6 95.4137C188.6 94.2464 188.337 93.2675 187.847 92.4768ZM178.321 87.9962C177.945 87.695 177.756 87.3184 177.756 86.8666C177.756 86.3771 177.945 86.0006 178.359 85.6994C178.811 85.3605 179.375 85.1722 180.091 85.0969V88.7869C179.225 88.5233 178.622 88.2597 178.321 87.9962ZM183.931 97.221C183.48 97.5975 182.839 97.8611 182.011 97.9364V93.1922C182.501 93.3428 182.877 93.4181 183.103 93.4934C183.743 93.7193 184.195 93.9829 184.458 94.2841C184.722 94.5853 184.835 94.9618 184.835 95.4137C184.835 96.1291 184.534 96.6938 183.931 97.221Z" fill="#FA7885"/>
<path d="M258.822 140.86H36.1085V146.545H258.822V140.86Z" fill="white"/>
<path d="M259.01 146.734H35.9203V140.672H258.972V146.734H259.01ZM36.2968 146.395H258.671V141.048H36.2968V146.395Z" fill="#1B2E4E"/>
<path d="M258.822 140.86H208.819V146.545H258.822V140.86Z" fill="white"/>
<path d="M259.01 146.734H208.631V140.672H258.972V146.734H259.01ZM209.008 146.395H258.671V141.048H209.008V146.395Z" fill="#1B2E4E"/>
<path d="M80.3123 147.939H252.421V231H253.852V146.508H78.8815V227.987H80.3123V147.939Z" fill="#1B2E4E"/>
<path d="M43.6013 147.939H214.128V231H215.559V146.508H42.1705V231H43.6013V147.939Z" fill="#1B2E4E"/>
<path d="M228.399 187.624H205.544V230.999H228.399V187.624Z" fill="#F84558"/>
<path d="M228.399 187.624H205.544V230.999H228.399V187.624Z" fill="#FFA099"/>
<path d="M205.544 229.305C205.544 229.305 228.399 228.439 228.399 203.363V231H205.544V229.305Z" fill="#FFA099"/>
<path d="M228.361 187.248H205.506C205.28 187.248 205.13 187.398 205.13 187.624V231C205.13 231.225 205.28 231.376 205.506 231.376H228.361C228.587 231.376 228.738 231.225 228.738 231V187.624C228.738 187.398 228.587 187.248 228.361 187.248ZM227.985 230.623H205.883V188.001H227.985V230.623Z" fill="#1B2E4E"/>
<path d="M223.918 217.784H209.61V226.82H223.918V217.784Z" fill="white"/>
<path d="M223.918 227.197H209.61C209.384 227.197 209.234 227.046 209.234 226.82V217.784C209.234 217.558 209.384 217.407 209.61 217.407H223.918C224.144 217.407 224.295 217.558 224.295 217.784V226.82C224.295 227.046 224.144 227.197 223.918 227.197ZM209.987 226.444H223.542V218.16H209.987V226.444Z" fill="#1B2E4E"/>
<path d="M228.361 230.999H243.46V199.409L238.414 187.624H228.361V230.999Z" fill="#1B2E4E"/>
<path d="M228.361 230.999H243.46V199.409L238.414 187.624H228.361V230.999Z" fill="#030303"/>
<path d="M243.46 231.376H228.361C228.135 231.376 227.984 231.225 227.984 231V187.624C227.984 187.398 228.135 187.248 228.361 187.248H238.414C238.565 187.248 238.715 187.323 238.753 187.473L243.798 199.259C243.836 199.296 243.836 199.372 243.836 199.409V231C243.836 231.225 243.685 231.376 243.46 231.376ZM228.738 230.623H243.083V199.485L238.151 188.001H228.738V230.623Z" fill="#1B2E4E"/>
<path d="M225.612 191.954C225.612 191.578 225.914 191.314 226.253 191.314C226.629 191.314 226.893 191.615 226.893 191.954C226.893 192.331 226.591 192.594 226.253 192.594C225.914 192.594 225.612 192.331 225.612 191.954ZM225.989 191.954C225.989 192.105 226.102 192.218 226.253 192.218C226.403 192.218 226.516 192.105 226.516 191.954C226.516 191.803 226.403 191.69 226.253 191.69C226.102 191.69 225.989 191.803 225.989 191.954Z" fill="#1B2E4E"/>
<path d="M223.278 191.954C223.278 191.578 223.579 191.314 223.918 191.314C224.295 191.314 224.558 191.615 224.558 191.954C224.558 192.331 224.257 192.594 223.918 192.594C223.579 192.594 223.278 192.331 223.278 191.954ZM223.692 191.954C223.692 192.105 223.805 192.218 223.956 192.218C224.106 192.218 224.219 192.105 224.219 191.954C224.219 191.803 224.106 191.69 223.956 191.69C223.805 191.69 223.692 191.803 223.692 191.954Z" fill="#1B2E4E"/>
<path d="M220.981 191.954C220.981 191.578 221.282 191.314 221.621 191.314C221.998 191.314 222.261 191.615 222.261 191.954C222.261 192.331 221.96 192.594 221.621 192.594C221.282 192.594 220.981 192.331 220.981 191.954ZM221.358 191.954C221.358 192.105 221.471 192.218 221.621 192.218C221.772 192.218 221.885 192.105 221.885 191.954C221.885 191.803 221.772 191.69 221.621 191.69C221.508 191.69 221.358 191.803 221.358 191.954Z" fill="#1B2E4E"/>
<path d="M218.684 191.954C218.684 191.578 218.986 191.314 219.324 191.314C219.701 191.314 219.965 191.615 219.965 191.954C219.965 192.331 219.663 192.594 219.324 192.594C218.986 192.594 218.684 192.331 218.684 191.954ZM219.061 191.954C219.061 192.105 219.174 192.218 219.324 192.218C219.475 192.218 219.588 192.105 219.588 191.954C219.588 191.803 219.475 191.69 219.324 191.69C219.174 191.69 219.061 191.803 219.061 191.954Z" fill="#1B2E4E"/>
<path d="M216.388 191.954C216.388 191.578 216.689 191.314 217.028 191.314C217.404 191.314 217.668 191.615 217.668 191.954C217.668 192.331 217.367 192.594 217.028 192.594C216.689 192.594 216.388 192.331 216.388 191.954ZM216.764 191.954C216.764 192.105 216.877 192.218 217.028 192.218C217.178 192.218 217.291 192.105 217.291 191.954C217.291 191.803 217.178 191.69 217.028 191.69C216.877 191.69 216.764 191.803 216.764 191.954Z" fill="#1B2E4E"/>
<path d="M214.091 191.954C214.091 191.578 214.392 191.314 214.731 191.314C215.107 191.314 215.371 191.615 215.371 191.954C215.371 192.331 215.07 192.594 214.731 192.594C214.392 192.594 214.091 192.331 214.091 191.954ZM214.467 191.954C214.467 192.105 214.58 192.218 214.731 192.218C214.882 192.218 214.994 192.105 214.994 191.954C214.994 191.803 214.882 191.69 214.731 191.69C214.58 191.69 214.467 191.803 214.467 191.954Z" fill="#1B2E4E"/>
<path d="M211.756 191.954C211.756 191.578 212.058 191.314 212.396 191.314C212.735 191.314 213.037 191.615 213.037 191.954C213.037 192.331 212.735 192.594 212.396 192.594C212.058 192.594 211.756 192.331 211.756 191.954ZM212.171 191.954C212.171 192.105 212.283 192.218 212.434 192.218C212.585 192.218 212.698 192.105 212.698 191.954C212.698 191.803 212.585 191.69 212.434 191.69C212.283 191.69 212.171 191.803 212.171 191.954Z" fill="#1B2E4E"/>
<path d="M209.46 191.954C209.46 191.578 209.761 191.314 210.1 191.314C210.439 191.314 210.74 191.615 210.74 191.954C210.74 192.331 210.439 192.594 210.1 192.594C209.761 192.594 209.46 192.331 209.46 191.954ZM209.836 191.954C209.836 192.105 209.949 192.218 210.1 192.218C210.25 192.218 210.363 192.105 210.363 191.954C210.363 191.803 210.25 191.69 210.1 191.69C209.949 191.69 209.836 191.803 209.836 191.954Z" fill="#1B2E4E"/>
<path d="M207.163 191.954C207.163 191.578 207.464 191.314 207.803 191.314C208.179 191.314 208.443 191.615 208.443 191.954C208.443 192.331 208.142 192.594 207.803 192.594C207.464 192.594 207.163 192.331 207.163 191.954ZM207.539 191.954C207.539 192.105 207.652 192.218 207.803 192.218C207.953 192.218 208.066 192.105 208.066 191.954C208.066 191.803 207.953 191.69 207.803 191.69C207.652 191.69 207.539 191.803 207.539 191.954Z" fill="#1B2E4E"/>
<path d="M224.445 193.611C224.445 193.234 224.746 192.971 225.085 192.971C225.462 192.971 225.725 193.272 225.725 193.611C225.725 193.987 225.424 194.251 225.085 194.251C224.746 194.289 224.445 193.987 224.445 193.611ZM224.822 193.611C224.822 193.761 224.935 193.874 225.085 193.874C225.236 193.874 225.349 193.761 225.349 193.611C225.349 193.46 225.236 193.347 225.085 193.347C224.935 193.347 224.822 193.46 224.822 193.611Z" fill="#1B2E4E"/>
<path d="M222.148 193.611C222.148 193.234 222.45 192.971 222.788 192.971C223.127 192.971 223.429 193.272 223.429 193.611C223.429 193.987 223.127 194.251 222.788 194.251C222.45 194.251 222.148 193.987 222.148 193.611ZM222.525 193.611C222.525 193.761 222.638 193.874 222.788 193.874C222.939 193.874 223.052 193.761 223.052 193.611C223.052 193.46 222.939 193.347 222.788 193.347C222.638 193.347 222.525 193.46 222.525 193.611Z" fill="#1B2E4E"/>
<path d="M219.852 193.611C219.852 193.234 220.153 192.971 220.492 192.971C220.831 192.971 221.132 193.272 221.132 193.611C221.132 193.987 220.831 194.251 220.492 194.251C220.153 194.251 219.852 193.987 219.852 193.611ZM220.228 193.611C220.228 193.761 220.341 193.874 220.492 193.874C220.642 193.874 220.755 193.761 220.755 193.611C220.755 193.46 220.642 193.347 220.492 193.347C220.341 193.347 220.228 193.46 220.228 193.611Z" fill="#1B2E4E"/>
<path d="M217.517 193.611C217.517 193.234 217.818 192.971 218.157 192.971C218.496 192.971 218.797 193.272 218.797 193.611C218.797 193.987 218.496 194.251 218.157 194.251C217.818 194.251 217.517 193.987 217.517 193.611ZM217.931 193.611C217.931 193.761 218.044 193.874 218.195 193.874C218.345 193.874 218.458 193.761 218.458 193.611C218.458 193.46 218.345 193.347 218.195 193.347C218.044 193.347 217.931 193.46 217.931 193.611Z" fill="#1B2E4E"/>
<path d="M215.22 193.611C215.22 193.234 215.522 192.971 215.86 192.971C216.237 192.971 216.501 193.272 216.501 193.611C216.501 193.987 216.199 194.251 215.86 194.251C215.522 194.289 215.22 193.987 215.22 193.611ZM215.597 193.611C215.597 193.761 215.71 193.874 215.86 193.874C216.011 193.874 216.124 193.761 216.124 193.611C216.124 193.46 216.011 193.347 215.86 193.347C215.71 193.347 215.597 193.46 215.597 193.611Z" fill="#1B2E4E"/>
<path d="M212.924 193.611C212.924 193.234 213.225 192.971 213.564 192.971C213.94 192.971 214.204 193.272 214.204 193.611C214.204 193.987 213.903 194.251 213.564 194.251C213.225 194.289 212.924 193.987 212.924 193.611ZM213.3 193.611C213.3 193.761 213.413 193.874 213.564 193.874C213.714 193.874 213.827 193.761 213.827 193.611C213.827 193.46 213.714 193.347 213.564 193.347C213.413 193.347 213.3 193.46 213.3 193.611Z" fill="#1B2E4E"/>
<path d="M210.627 193.611C210.627 193.234 210.928 192.971 211.267 192.971C211.643 192.971 211.907 193.272 211.907 193.611C211.907 193.987 211.606 194.251 211.267 194.251C210.928 194.289 210.627 193.987 210.627 193.611ZM211.003 193.611C211.003 193.761 211.116 193.874 211.267 193.874C211.418 193.874 211.53 193.761 211.53 193.611C211.53 193.46 211.418 193.347 211.267 193.347C211.116 193.347 211.003 193.46 211.003 193.611Z" fill="#1B2E4E"/>
<path d="M208.33 193.611C208.33 193.234 208.631 192.971 208.97 192.971C209.347 192.971 209.61 193.272 209.61 193.611C209.61 193.987 209.309 194.251 208.97 194.251C208.631 194.289 208.33 193.987 208.33 193.611ZM208.707 193.611C208.707 193.761 208.82 193.874 208.97 193.874C209.121 193.874 209.234 193.761 209.234 193.611C209.234 193.46 209.121 193.347 208.97 193.347C208.82 193.347 208.707 193.46 208.707 193.611Z" fill="#1B2E4E"/>
<path d="M225.612 195.343C225.612 194.966 225.914 194.703 226.253 194.703C226.629 194.703 226.893 195.004 226.893 195.343C226.893 195.682 226.591 195.983 226.253 195.983C225.914 195.983 225.612 195.682 225.612 195.343ZM225.989 195.343C225.989 195.493 226.102 195.606 226.253 195.606C226.403 195.606 226.516 195.493 226.516 195.343C226.516 195.192 226.403 195.079 226.253 195.079C226.102 195.079 225.989 195.192 225.989 195.343Z" fill="#1B2E4E"/>
<path d="M223.278 195.343C223.278 194.966 223.579 194.703 223.918 194.703C224.295 194.703 224.558 195.004 224.558 195.343C224.558 195.682 224.257 195.983 223.918 195.983C223.579 195.983 223.278 195.682 223.278 195.343ZM223.692 195.343C223.692 195.493 223.805 195.606 223.956 195.606C224.106 195.606 224.219 195.493 224.219 195.343C224.219 195.192 224.106 195.079 223.956 195.079C223.805 195.079 223.692 195.192 223.692 195.343Z" fill="#1B2E4E"/>
<path d="M220.981 195.343C220.981 194.966 221.282 194.703 221.621 194.703C221.998 194.703 222.261 195.004 222.261 195.343C222.261 195.682 221.96 195.983 221.621 195.983C221.282 195.983 220.981 195.682 220.981 195.343ZM221.358 195.343C221.358 195.493 221.471 195.606 221.621 195.606C221.772 195.606 221.885 195.493 221.885 195.343C221.885 195.192 221.772 195.079 221.621 195.079C221.508 195.042 221.358 195.192 221.358 195.343Z" fill="#1B2E4E"/>
<path d="M218.684 195.343C218.684 194.966 218.986 194.703 219.324 194.703C219.701 194.703 219.965 195.004 219.965 195.343C219.965 195.682 219.663 195.983 219.324 195.983C218.986 195.983 218.684 195.682 218.684 195.343ZM219.061 195.343C219.061 195.493 219.174 195.606 219.324 195.606C219.475 195.606 219.588 195.493 219.588 195.343C219.588 195.192 219.475 195.079 219.324 195.079C219.174 195.079 219.061 195.192 219.061 195.343Z" fill="#1B2E4E"/>
<path d="M216.388 195.343C216.388 194.966 216.689 194.703 217.028 194.703C217.404 194.703 217.668 195.004 217.668 195.343C217.668 195.682 217.367 195.983 217.028 195.983C216.689 195.983 216.388 195.682 216.388 195.343ZM216.764 195.343C216.764 195.493 216.877 195.606 217.028 195.606C217.178 195.606 217.291 195.493 217.291 195.343C217.291 195.192 217.178 195.079 217.028 195.079C216.877 195.079 216.764 195.192 216.764 195.343Z" fill="#1B2E4E"/>
<path d="M214.091 195.343C214.091 194.966 214.392 194.703 214.731 194.703C215.107 194.703 215.371 195.004 215.371 195.343C215.371 195.682 215.07 195.983 214.731 195.983C214.392 195.983 214.091 195.682 214.091 195.343ZM214.467 195.343C214.467 195.493 214.58 195.606 214.731 195.606C214.882 195.606 214.994 195.493 214.994 195.343C214.994 195.192 214.882 195.079 214.731 195.079C214.58 195.079 214.467 195.192 214.467 195.343Z" fill="#1B2E4E"/>
<path d="M211.756 195.343C211.756 194.966 212.058 194.703 212.396 194.703C212.735 194.703 213.037 195.004 213.037 195.343C213.037 195.682 212.735 195.983 212.396 195.983C212.058 195.983 211.756 195.682 211.756 195.343ZM212.171 195.343C212.171 195.493 212.283 195.606 212.434 195.606C212.585 195.606 212.698 195.493 212.698 195.343C212.698 195.192 212.585 195.079 212.434 195.079C212.283 195.079 212.171 195.192 212.171 195.343Z" fill="#1B2E4E"/>
<path d="M209.46 195.343C209.46 194.966 209.761 194.703 210.1 194.703C210.439 194.703 210.74 195.004 210.74 195.343C210.74 195.682 210.439 195.983 210.1 195.983C209.761 195.983 209.46 195.682 209.46 195.343ZM209.836 195.343C209.836 195.493 209.949 195.606 210.1 195.606C210.25 195.606 210.363 195.493 210.363 195.343C210.363 195.192 210.25 195.079 210.1 195.079C209.949 195.079 209.836 195.192 209.836 195.343Z" fill="#1B2E4E"/>
<path d="M207.163 195.343C207.163 194.966 207.464 194.703 207.803 194.703C208.179 194.703 208.443 195.004 208.443 195.343C208.443 195.682 208.142 195.983 207.803 195.983C207.464 195.983 207.163 195.682 207.163 195.343ZM207.539 195.343C207.539 195.493 207.652 195.606 207.803 195.606C207.953 195.606 208.066 195.493 208.066 195.343C208.066 195.192 207.953 195.079 207.803 195.079C207.652 195.079 207.539 195.192 207.539 195.343Z" fill="#1B2E4E"/>
<path d="M224.445 196.999C224.445 196.623 224.746 196.359 225.085 196.359C225.462 196.359 225.725 196.661 225.725 196.999C225.725 197.338 225.424 197.64 225.085 197.64C224.746 197.677 224.445 197.376 224.445 196.999ZM224.822 196.999C224.822 197.15 224.935 197.263 225.085 197.263C225.236 197.263 225.349 197.15 225.349 196.999C225.349 196.849 225.236 196.736 225.085 196.736C224.935 196.736 224.822 196.849 224.822 196.999Z" fill="#1B2E4E"/>
<path d="M222.148 196.999C222.148 196.623 222.45 196.359 222.788 196.359C223.127 196.359 223.429 196.661 223.429 196.999C223.429 197.338 223.127 197.64 222.788 197.64C222.45 197.64 222.148 197.376 222.148 196.999ZM222.525 196.999C222.525 197.15 222.638 197.263 222.788 197.263C222.939 197.263 223.052 197.15 223.052 196.999C223.052 196.849 222.939 196.736 222.788 196.736C222.638 196.736 222.525 196.849 222.525 196.999Z" fill="#1B2E4E"/>
<path d="M219.852 196.999C219.852 196.623 220.153 196.359 220.492 196.359C220.831 196.359 221.132 196.661 221.132 196.999C221.132 197.338 220.831 197.64 220.492 197.64C220.153 197.64 219.852 197.376 219.852 196.999ZM220.228 196.999C220.228 197.15 220.341 197.263 220.492 197.263C220.642 197.263 220.755 197.15 220.755 196.999C220.755 196.849 220.642 196.736 220.492 196.736C220.341 196.736 220.228 196.849 220.228 196.999Z" fill="#1B2E4E"/>
<path d="M217.517 196.999C217.517 196.623 217.818 196.359 218.157 196.359C218.496 196.359 218.797 196.661 218.797 196.999C218.797 197.338 218.496 197.64 218.157 197.64C217.818 197.64 217.517 197.376 217.517 196.999ZM217.931 196.999C217.931 197.15 218.044 197.263 218.195 197.263C218.345 197.263 218.458 197.15 218.458 196.999C218.458 196.849 218.345 196.736 218.195 196.736C218.044 196.736 217.931 196.849 217.931 196.999Z" fill="#1B2E4E"/>
<path d="M215.22 196.999C215.22 196.623 215.522 196.359 215.86 196.359C216.237 196.359 216.501 196.661 216.501 196.999C216.501 197.338 216.199 197.64 215.86 197.64C215.522 197.677 215.22 197.376 215.22 196.999ZM215.597 196.999C215.597 197.15 215.71 197.263 215.86 197.263C216.011 197.263 216.124 197.15 216.124 196.999C216.124 196.849 216.011 196.736 215.86 196.736C215.71 196.736 215.597 196.849 215.597 196.999Z" fill="#1B2E4E"/>
<path d="M212.924 196.999C212.924 196.623 213.225 196.359 213.564 196.359C213.94 196.359 214.204 196.661 214.204 196.999C214.204 197.338 213.903 197.64 213.564 197.64C213.225 197.677 212.924 197.376 212.924 196.999ZM213.3 196.999C213.3 197.15 213.413 197.263 213.564 197.263C213.714 197.263 213.827 197.15 213.827 196.999C213.827 196.849 213.714 196.736 213.564 196.736C213.413 196.736 213.3 196.849 213.3 196.999Z" fill="#1B2E4E"/>
<path d="M210.627 196.999C210.627 196.623 210.928 196.359 211.267 196.359C211.643 196.359 211.907 196.661 211.907 196.999C211.907 197.338 211.606 197.64 211.267 197.64C210.928 197.677 210.627 197.376 210.627 196.999ZM211.003 196.999C211.003 197.15 211.116 197.263 211.267 197.263C211.418 197.263 211.53 197.15 211.53 196.999C211.53 196.849 211.418 196.736 211.267 196.736C211.116 196.736 211.003 196.849 211.003 196.999Z" fill="#1B2E4E"/>
<path d="M208.33 196.999C208.33 196.623 208.631 196.359 208.97 196.359C209.347 196.359 209.61 196.661 209.61 196.999C209.61 197.338 209.309 197.64 208.97 197.64C208.631 197.677 208.33 197.376 208.33 196.999ZM208.707 196.999C208.707 197.15 208.82 197.263 208.97 197.263C209.121 197.263 209.234 197.15 209.234 196.999C209.234 196.849 209.121 196.736 208.97 196.736C208.82 196.736 208.707 196.849 208.707 196.999Z" fill="#1B2E4E"/>
<path d="M184.797 218.122V230.774H140.255V227.649H142.175V217.219H140.255C140.255 215.223 140.255 213.83 140.255 213.83H137.845V208.785H140.255V200.652H185.061V210.969H181.748V213.228H185.061V216.616H186.529V218.16H184.797V218.122Z" fill="#F2E6D6"/>
<path d="M184.797 218.311V230.774L173.163 230.736V226.858H175.46V224.109H173.163V208.333H175.045V202.459H173.163V200.614H185.061V211.157H181.747V213.19H185.061V216.579H186.529V218.311H184.797Z" fill="#D8CDC0"/>
<path d="M189.88 189.996V200.238H145.338V193.874H146.693V191.088H145.338C145.338 188.565 145.338 186.532 145.338 186.532H142.928V185.026H145.338V179.642H149.555V178.964H145.338V175.839H190.144V184.198H186.831V186.005H190.144V188.754H191.612V189.996H189.88Z" fill="#F2E6D6"/>
<path d="M191.612 190.109L189.88 190.147V200.238H178.246V194.401H180.241V178.889H178.246V175.99H190.144V184.348H186.831V186.005L190.144 185.967V188.678H191.65L191.612 190.109Z" fill="#D8CDC0"/>
<path d="M178.246 194.402H153.358V194.853H178.246V194.402Z" fill="#D8CDC0"/>
<path d="M165.67 189.996H151.211V190.448H165.67V189.996Z" fill="#D8CDC0"/>
<path d="M180.693 178.55H165.595V179.002H180.693V178.55Z" fill="#D8CDC0"/>
<path d="M155.73 186.156H142.928V186.607H155.73V186.156Z" fill="#D8CDC0"/>
<path d="M175.46 223.883H153.094V224.335H175.46V223.883Z" fill="#D8CDC0"/>
<path d="M161.716 217.821H146.881V218.273H161.716V217.821Z" fill="#D8CDC0"/>
<path d="M164.089 214.131H153.772V214.583H164.089V214.131Z" fill="#D8CDC0"/>
<path d="M155.504 205.547H145.94V205.998H155.504V205.547Z" fill="#D8CDC0"/>
<path d="M105.502 27.4137C105.502 27.4137 99.8915 19.5067 89.2735 25.0039C78.6556 30.4635 77.639 44.5455 66.9457 35.9608C56.2148 27.3384 48.9856 37.2409 42.0952 43.7171C35.2049 50.1933 30.3854 59.5311 18.9014 48.1224C18.9014 48.1224 16.0775 59.7946 22.516 66.8356L30.9125 66.0073L23.2691 69.0948C23.2691 69.0948 27.0343 91.912 44.8438 95.2254C44.8438 95.2254 46.3123 88.2974 52.9014 84.4945C59.4906 80.6917 57.9468 76.8511 57.9468 76.8511C57.9468 76.8511 61.825 79.1856 56.5537 86.3772C51.2824 93.5687 52.2237 96.4303 52.2237 96.4303C52.2237 96.4303 63.3688 103.697 68 100.196C68 100.196 66.4562 86.0383 74.6644 79.9763C82.8726 73.9142 87.4286 68.9065 88.5581 61.3384C89.6877 53.7703 107.911 58.1003 107.648 48.0471C107.347 37.9563 112.354 36.0737 105.502 27.4137Z" fill="#030303"/>
<path d="M131.143 190.109C131.143 190.109 83.701 197.225 60.3566 185.591C60.3566 185.591 65.6655 159.987 72.8571 131.221C72.8571 131.221 126.512 182.767 131.143 190.109Z" fill="#030303"/>
<path d="M123.989 152.946C123.989 152.946 128.658 205.81 131.406 214.47H121.617C121.617 214.47 117.437 207.693 115.818 204.907C114.162 202.158 101.812 187.172 102.64 173.241C103.468 159.31 96.8417 152.382 96.8417 152.382L123.989 152.946Z" fill="#FFC3AB"/>
<path d="M103.883 127.644C103.883 127.644 84.4541 201.556 83.2868 210.216L73.8361 207.505C73.1584 194.364 61.6368 179.717 70.3721 160.251C76.4341 146.771 77.1872 118.645 77.1872 118.645L103.883 127.644Z" fill="#FFC3AB"/>
<path d="M135.247 220.381C132.235 216.993 131.557 209.5 131.557 209.5C131.143 209.199 130.578 211.345 130.578 211.345C127.566 207.693 117.475 208.935 117.475 208.935C119.697 209.688 114.425 220.946 116.534 223.092C117.362 223.958 118.981 228.288 120.45 231.112H123.236C123.575 228.627 123.876 225.239 125.231 225.163C130.465 224.824 134.946 230.886 140.104 230.886C145.262 230.886 149.178 230.133 149.178 230.133C149.254 226.142 139.276 224.9 135.247 220.381Z" fill="#030303"/>
<path d="M120.111 212.964C119.847 212.964 119.621 212.851 119.471 212.701C119.282 212.512 119.207 212.286 119.207 212.023C119.207 211.496 119.659 211.082 120.148 211.082C120.412 211.082 120.638 211.195 120.788 211.345C120.977 211.533 121.052 211.759 121.052 212.023C121.052 212.55 120.638 212.964 120.111 212.964ZM120.148 211.646C119.922 211.646 119.734 211.835 119.734 212.061C119.734 212.173 119.772 212.286 119.847 212.362C119.922 212.437 120.035 212.475 120.148 212.475C120.374 212.475 120.563 212.286 120.563 212.061C120.563 211.948 120.525 211.835 120.45 211.759C120.337 211.684 120.261 211.646 120.148 211.646Z" fill="white"/>
<path d="M133.214 219.139C131.068 216.127 130.917 211.533 130.917 211.496H130.39C130.39 211.684 130.54 216.277 132.8 219.403C135.059 222.528 139.05 223.168 139.2 223.205C139.125 223.243 135.36 222.151 133.214 219.139Z" fill="#FEF8EC"/>
<path d="M140.895 229.832C137.996 229.832 133.816 228.552 133.779 228.552L132.272 227.611C132.31 227.611 138.071 229.305 140.895 229.305C144.585 229.305 148.237 228.138 148.275 228.138C148.275 228.138 148.425 228.289 148.463 228.326C148.501 228.364 148.614 228.552 148.614 228.552C148.576 228.552 144.66 229.832 140.895 229.832Z" fill="#FEF8EC"/>
<path d="M94.4319 58.9287C93.9424 55.9918 95.5238 51.1723 88.2946 51.4359C80.5382 51.7371 57.8715 58.7405 53.9557 62.3927C48.3078 67.7017 49.0232 84.2687 61.2979 85.8877C69.2049 86.942 83.8139 74.5544 89.0476 70.1491C94.2813 65.7438 95.0343 62.6563 94.4319 58.9287Z" fill="#FFA099"/>
<path d="M105.953 52.1888C103.167 53.2054 98.8749 58.8533 101.962 65.4048C105.05 71.9563 112.43 88.1844 116.76 91.3848C123.01 95.9784 139.163 92.2508 138.523 79.9009C138.109 71.9186 123.274 59.7946 118.002 55.4646C112.693 51.0969 109.53 50.9086 105.953 52.1888Z" fill="#FFA099"/>
<path d="M130.39 70.9774C126.173 66.045 116.647 61.4514 116.534 61.4137L116.76 60.9619C116.873 60.9996 126.512 65.6685 130.804 70.6762L130.39 70.9774Z" fill="#FA7885"/>
<path d="M125.269 77.1147C125.269 74.3284 123.462 70.3373 123.424 70.2996L123.914 70.0737C123.989 70.2243 125.796 74.2155 125.796 77.1147H125.269Z" fill="#FA7885"/>
<path d="M77.3754 186.005L73.422 133.857L62.804 185.967C62.804 185.967 60.4319 185.892 59.2647 185.365C57.9469 166.275 65.2514 127.569 65.2514 114.39C65.2514 91.6108 77.2248 87.2808 77.2248 87.2808L117.739 85.2476C117.475 96.6185 131.218 154.038 131.218 190.034C129.26 190.26 99.8162 190.561 77.3754 186.005Z" fill="#A0DAF8"/>
<path d="M73.4219 133.857L77.3754 186.005C99.8538 190.561 129.26 190.26 131.256 190.034C131.256 187.511 131.181 184.913 131.068 182.24C77.7519 181.788 73.4219 133.857 73.4219 133.857Z" fill="#A0DAF8"/>
<path d="M117.437 62.0915C115.178 57.0084 113.597 53.695 111.752 51.8124C109.681 51.2476 107.874 51.5112 105.953 52.1889C103.167 53.2055 98.8749 58.8534 101.962 65.4049C105.05 71.9564 112.43 88.1845 116.76 91.3849C118.416 92.5898 120.751 93.2299 123.274 93.2676C123.462 85.2476 120.299 68.5677 117.437 62.0915Z" fill="#FA7885"/>
<path d="M88.2946 51.4357C90.5914 51.4357 101.021 50.7957 104.033 50.7957C106.518 50.7957 108.928 51.2851 110.547 51.5864C111.601 53.3184 112.881 57.3472 114.764 62.7691C117.099 69.6218 120.939 89.201 114.463 92.4391C105.426 96.9573 81.8184 97.4845 74.175 90.5565C69.6943 86.5277 75.5681 51.4357 88.2946 51.4357Z" fill="#FFA099"/>
<path d="M88.897 51.4358C88.6711 51.4358 88.897 51.4358 88.2946 51.4358C85.8095 59.4557 82.6844 67.9275 72.7065 82.2353C72.7065 82.2353 86.1108 73.3871 88.897 51.4358Z" fill="#FA7885"/>
<path d="M103.393 45.5621L102 50.8334C101.059 52.4148 96.9546 54.3727 92.361 51.2852L95.6744 39.4624C95.6368 39.4624 98.4607 42.0604 103.393 45.5621Z" fill="#FFC3AB"/>
<path d="M95.0343 42.437C95.0343 42.437 94.3189 48.1225 102 50.8335L102.452 49.1015C101.849 48.9885 98.1971 46.2399 95.0343 42.437Z" fill="#CF7F6E"/>
<path d="M104.786 49.5155C102.151 49.7414 96.9923 46.5409 95.7121 44.2065C95.2602 43.3781 94.6202 41.4955 94.5072 40.3283C94.206 36.676 93.7165 35.057 96.4275 32.346C97.5947 31.2165 101.398 30.1246 102.64 30.3505C105.728 30.8776 108.514 33.212 108.853 36.7137C109.305 40.6672 109.455 49.1389 104.786 49.5155Z" fill="#FFC3AB"/>
<path d="M99.5903 27.9784C104.711 27.5266 105.991 28.242 107.648 30.5011C108.439 31.593 109.568 34.2287 109.681 35.5842C109.907 37.9939 109.041 38.747 109.041 38.747C109.041 38.747 108.476 35.3206 108.288 34.0781C107.911 31.0659 99.1384 31.9319 99.2514 33.4756C99.3267 34.5676 97.5947 39.1235 97.0299 38.634C96.4275 38.0692 94.6202 38.7846 93.7542 38.3704C91.8715 34.1157 95.7497 28.2796 99.5903 27.9784Z" fill="#1A202C"/>
<path d="M106.179 42.1734L105.991 41.6839C106.594 41.458 107.271 41.0815 107.309 40.8556C107.309 40.8556 107.309 40.8179 107.271 40.7803C105.953 39.3871 106.179 37.3539 106.179 37.241V37.1657L106.217 37.128C106.255 37.0904 107.083 35.8855 108.664 36.262L108.551 36.7515C107.46 36.4879 106.857 37.1657 106.669 37.3539C106.631 37.6928 106.594 39.3118 107.648 40.4038C107.798 40.5544 107.874 40.7803 107.798 40.9685C107.685 41.6086 106.443 42.0981 106.179 42.1734Z" fill="#030303"/>
<path d="M94.9591 42.3241C96.3315 42.3241 97.4441 41.2115 97.4441 39.8391C97.4441 38.4666 96.3315 37.354 94.9591 37.354C93.5866 37.354 92.474 38.4666 92.474 39.8391C92.474 41.2115 93.5866 42.3241 94.9591 42.3241Z" fill="#FFA47F"/>
<path d="M94.5072 41.5709C94.4695 41.5709 94.4319 41.5332 94.4319 41.5332L94.6201 41.0437C94.7331 41.0814 95.072 41.1567 95.2226 41.0814C95.2602 41.0437 95.2979 41.0437 95.2979 40.9684C95.3355 40.8931 95.3355 40.8931 95.1849 40.7802C94.9967 40.6296 94.6955 40.4036 94.6955 39.8765C94.6955 39.5 94.8084 39.2364 94.9214 39.0105C95.072 38.6716 95.072 38.6716 94.8461 38.5587C94.3942 38.3328 93.7165 39.1611 93.4906 39.4623L93.0388 39.1988C93.1517 39.0482 94.093 37.655 95.0343 38.1069C95.7497 38.4457 95.5238 38.9352 95.3732 39.2364C95.2979 39.4247 95.1849 39.6506 95.1849 39.9142C95.1849 40.2154 95.2979 40.2907 95.4862 40.4413C95.6368 40.5543 95.938 40.7802 95.7874 41.232C95.7121 41.4203 95.5991 41.5709 95.4485 41.6462C95.1096 41.7215 94.6955 41.6085 94.5072 41.5709Z" fill="#030303"/>
<path d="M100.908 37.4292L100.607 37.0151C101.925 36.0737 102.979 35.7349 103.845 35.9608C104.523 36.149 104.786 36.6762 104.786 36.6762L104.334 36.9021C104.334 36.9021 104.184 36.5632 103.694 36.4503C103.205 36.3373 102.377 36.4126 100.908 37.4292Z" fill="#030303"/>
<path d="M103.13 39.1989C103.525 39.1989 103.845 38.8786 103.845 38.4835C103.845 38.0884 103.525 37.7681 103.13 37.7681C102.734 37.7681 102.414 38.0884 102.414 38.4835C102.414 38.8786 102.734 39.1989 103.13 39.1989Z" fill="#030303"/>
<path d="M107.422 39.0858C107.817 39.0858 108.137 38.7655 108.137 38.3704C108.137 37.9753 107.817 37.655 107.422 37.655C107.027 37.655 106.707 37.9753 106.707 38.3704C106.707 38.7655 107.027 39.0858 107.422 39.0858Z" fill="#1B2E4E"/>
<path d="M107.648 43.943C107.648 43.943 107.121 44.1313 106.368 44.1313C103.243 44.0183 103.243 42.5122 103.243 42.5122C103.243 42.5122 101.849 46.0892 104.259 46.5033C106.669 46.8799 107.648 43.943 107.648 43.943Z" fill="#030303"/>
<path d="M95.9757 75.8721C92.1728 72.1822 93.2647 66.8356 93.3024 66.7603L93.7918 66.8732C93.7918 66.9109 92.7376 71.9939 96.3522 75.4956L95.9757 75.8721Z" fill="#FA7885"/>
<path d="M67.5482 60.623C66.4563 60.623 65.402 60.5477 64.4607 60.3218L64.5736 59.8323C68.5271 60.7736 74.9657 59.1169 75.0033 59.1169L75.1163 59.6064C74.9657 59.6817 71.1628 60.623 67.5482 60.623Z" fill="#FA7885"/>
<path d="M60.7331 45.0351C61.2226 44.0185 62.6158 40.6674 60.3566 39.1613L60.319 39.1237C60.1684 38.7095 60.0178 38.1071 60.2437 37.6929C60.4319 37.3917 61.3356 36.8269 62.6158 36.2621C63.67 35.7726 64.5737 35.0572 64.3478 33.89C64.0466 32.3086 63.6324 30.3507 63.4065 30.0118C62.9923 29.4094 57.5704 31.3297 57.5704 31.3297C57.5704 31.3297 63.1052 28.5434 64.6113 26.7361C64.9879 26.2842 64.3854 25.9077 63.783 25.8701C61.0344 25.7948 55.7254 30.313 55.7254 30.313C55.7254 30.313 52.6379 32.3463 53.9934 38.2577C54.8217 41.9476 55.01 44.5079 55.01 45.9011C54.4452 48.0849 48.948 68.9066 49.1363 72.5589C49.7387 83.7416 63.1806 83.8546 65.9292 77.8302C70.1839 68.5301 59.9425 50.1558 60.7331 45.0351Z" fill="#FFC3AB"/>
<path d="M64.1971 33.551L58.9258 35.7349C58.9258 35.6972 62.1262 33.8146 64.1971 33.551Z" fill="#CF7F6E"/>
<path d="M63.896 31.6309L57.5327 33.5511C57.5327 33.5888 61.8251 31.7438 63.896 31.6309Z" fill="#CF7F6E"/>
<path d="M95.9003 60.0582C94.9967 60.0582 94.2436 59.7193 93.6788 59.0416C91.7586 56.7824 91.8339 51.5111 91.8715 51.2852L92.3987 51.2475C92.3987 51.2852 92.3234 56.6318 94.093 58.665C94.5825 59.2298 95.1473 59.4934 95.938 59.4934C100.117 59.4934 102 50.871 102.038 50.7957L102.678 50.7581C102.489 51.1722 100.381 60.0582 95.9003 60.0582Z" fill="white"/>
<path d="M101.962 141.952C96.3898 139.806 85.2824 126.552 84.8306 125.987L85.2447 125.648C85.3577 125.799 96.7287 139.392 102.188 141.462L101.962 141.952Z" fill="#79CBF5"/>
<path d="M97.7076 130.091C94.8837 129.338 89.3112 124.67 89.0853 124.481L89.4241 124.105C89.4994 124.142 95.1473 128.887 97.8582 129.602L97.7076 130.091Z" fill="#8CD3F6"/>
<path d="M90.8173 91.3473C88.3699 91.3473 86.7508 91.046 86.6755 91.046L86.7885 90.5566C86.9391 90.5942 102.188 93.3052 110.698 81.52L111.112 81.8212C105.2 90.0294 96.0886 91.3473 90.8173 91.3473Z" fill="#FA7885"/>
<path d="M75.9823 91.8745C75.8693 91.9875 67.3599 104.036 65.1008 118.984C67.3223 104.3 78.505 93.3053 78.6179 93.1547L75.9823 91.8745Z" fill="#8CD3F6"/>
<path d="M69.4685 215.261C69.4685 215.261 68.7907 223.544 68.1883 225.615L71.464 226.556L74.7398 218.461L69.4685 215.261Z" fill="#1B2E4E"/>
<path d="M86.6379 219.139C84.0022 215.788 84.4164 210.328 85.8472 207.505C83.5504 205.434 81.0277 208.107 81.0277 208.107C79.0698 203.739 72.33 203.702 72.33 203.702C74.2503 205.057 66.1174 212.512 70.1838 217.068C74.5892 222.001 74.2503 227.084 79.2204 228.515C84.1905 229.945 90.4408 230.962 90.4408 230.962C91.5327 227.046 90.1772 223.733 86.6379 219.139Z" fill="#030303"/>
<path d="M73.3466 208.069C73.196 208.107 73.083 208.069 72.9324 208.032C72.4429 207.881 72.1417 207.354 72.2923 206.864C72.4429 206.375 72.9701 206.074 73.4596 206.224C73.6855 206.3 73.9114 206.45 74.0243 206.676C74.1373 206.902 74.1749 207.128 74.0996 207.391C74.0243 207.617 73.8737 207.843 73.6478 207.956C73.5349 208.032 73.4219 208.069 73.3466 208.069ZM73.1207 206.751C72.9701 206.789 72.8195 206.902 72.7818 207.053C72.7065 207.279 72.8571 207.504 73.083 207.58C73.196 207.617 73.3089 207.58 73.3842 207.542C73.4972 207.504 73.5349 207.391 73.5725 207.279C73.6102 207.166 73.5725 207.053 73.5348 206.977C73.4972 206.864 73.3842 206.827 73.2713 206.789C73.2336 206.751 73.1583 206.751 73.1207 206.751Z" fill="white"/>
<path d="M85.7719 222.189C84.2282 220.193 80.0864 214.884 81.2913 208.634L80.8018 208.521C79.5593 215.035 83.814 220.457 85.3954 222.49C87.278 224.9 88.2193 227.762 88.2193 227.799C88.1816 227.686 87.7675 224.712 85.7719 222.189Z" fill="#FEF8EC"/>
<path d="M90.8173 228.665C90.4408 228.627 81.856 227.611 79.3333 226.444C76.773 225.276 74.5892 223.544 73.3843 221.888C74.5515 223.469 77.0742 224.862 79.5592 225.992C82.0443 227.121 90.742 228.176 90.8173 228.176C90.8173 228.176 90.8549 228.364 90.8549 228.439C90.8173 228.477 90.8173 228.665 90.8173 228.665Z" fill="#FEF8EC"/>
<path d="M158.441 98.6142C154.487 97.2211 152.906 96.0539 152.303 95.4515C152.19 95.3385 151.965 95.0373 151.965 95.0373C148.388 90.8202 136.866 77.2278 134.004 74.7051C130.239 71.3917 119.998 85.21 127.641 91.1214C130.277 93.1923 144.171 94.0207 148.802 100.422C148.613 101.702 150.609 103.773 150.873 104.526C151.136 105.279 151.513 106.709 151.663 107.312C151.776 107.914 151.739 108.893 152.529 108.291C153.282 107.688 153.395 105.693 153.508 104.3C153.659 104.337 153.81 104.375 153.96 104.413C154.186 104.45 154.374 104.488 154.6 104.526C155.052 104.639 155.654 104.827 155.843 105.203C156.031 105.542 156.483 106.258 155.579 106.935C154.638 107.651 155.579 108.743 156.671 109.195C158.177 109.797 162.771 109.383 163.298 108.554C164.051 107.425 164.239 104.224 164.239 104.224C164.239 104.224 164.164 100.61 158.441 98.6142Z" fill="#FFC3AB"/>
<path d="M157.688 109.458L158.704 104.827C158.704 104.789 158.516 107.914 157.688 109.458Z" fill="#FFC3AB"/>
<path d="M161.491 109.27L162.846 105.09C162.846 105.128 162.507 107.839 161.491 109.27Z" fill="#FFC3AB"/>
<path d="M159.495 109.496L161.152 104.526C161.152 104.526 160.512 108.027 159.495 109.496Z" fill="#FFC3AB"/>
<path d="M69.3931 215.863C69.6567 216.39 69.9579 216.918 70.2591 217.445C70.5604 217.972 70.8616 218.461 71.2004 218.988C71.8405 220.005 72.5936 220.946 73.3466 221.888C72.8571 221.511 72.4053 221.097 71.9911 220.645C71.577 220.193 71.2004 219.704 70.8616 219.214C70.5227 218.687 70.2215 218.16 69.9579 217.595C69.732 217.031 69.5437 216.466 69.3931 215.863Z" fill="#FEF8EC"/>
<path d="M116.797 223.469L118.906 223.996C119.621 224.184 120.299 224.335 121.014 224.486C121.73 224.636 122.408 224.787 123.123 224.9C123.838 225.013 124.554 225.088 125.269 225.163C123.838 225.352 122.37 225.163 120.939 224.862C119.508 224.523 118.115 224.071 116.797 223.469Z" fill="#FEF8EC"/>
<path d="M239.958 30.6895C239.845 30.6895 239.77 30.8024 239.77 30.9154V69.9231C239.77 70.0361 239.845 70.149 239.958 70.149C240.071 70.149 240.146 70.0361 240.146 69.9231V30.9154C240.146 30.7648 240.071 30.6895 239.958 30.6895Z" fill="#F2E6D6"/>
<path d="M243.121 36.375C243.008 36.375 242.932 36.488 242.932 36.6009V69.9232C242.932 70.0361 243.008 70.1491 243.121 70.1491C243.234 70.1491 243.309 70.0361 243.309 69.9232V36.6009C243.309 36.4503 243.234 36.375 243.121 36.375Z" fill="#F2E6D6"/>
<path d="M246.283 37.3164C246.171 37.3164 246.095 37.4294 246.095 37.5423V69.9233C246.095 70.0362 246.171 70.1492 246.283 70.1492C246.396 70.1492 246.472 70.0362 246.472 69.9233V37.5423C246.472 37.4294 246.359 37.3164 246.283 37.3164Z" fill="#F2E6D6"/>
<path d="M249.409 41.7217C249.296 41.7217 249.22 41.8346 249.22 41.9476V69.9232C249.22 70.0362 249.296 70.1491 249.409 70.1491C249.522 70.1491 249.597 70.0362 249.597 69.9232V41.9476C249.597 41.8346 249.522 41.7217 249.409 41.7217Z" fill="#F2E6D6"/>
<path d="M252.571 44.1689C252.458 44.1689 252.383 44.2819 252.383 44.3949V69.9231C252.383 70.0361 252.458 70.149 252.571 70.149C252.684 70.149 252.76 70.0361 252.76 69.9231V44.3949C252.76 44.2819 252.684 44.1689 252.571 44.1689Z" fill="#F2E6D6"/>
<path d="M255.734 44.8091C255.621 44.8091 255.546 44.922 255.546 45.035V69.9232C255.546 70.0361 255.621 70.1491 255.734 70.1491C255.847 70.1491 255.922 70.0361 255.922 69.9232V45.035C255.922 44.8844 255.81 44.8091 255.734 44.8091Z" fill="#F2E6D6"/>
<path d="M258.859 44.3196C258.746 44.3196 258.671 44.4325 258.671 44.5455V69.9231C258.671 70.0361 258.746 70.149 258.859 70.149C258.972 70.149 259.048 70.0361 259.048 69.9231V44.5455C259.048 44.4325 258.972 44.3196 258.859 44.3196Z" fill="#F2E6D6"/>
<path d="M262.022 46.0891C261.909 46.0891 261.834 46.2021 261.834 46.315V69.923C261.834 70.036 261.909 70.1489 262.022 70.1489C262.135 70.1489 262.21 70.036 262.21 69.923V46.315C262.21 46.2021 262.135 46.0891 262.022 46.0891Z" fill="#F2E6D6"/>
<path d="M265.185 53.8457C265.072 53.8457 264.997 53.9587 264.997 54.0716V69.9232C264.997 70.0362 265.072 70.1491 265.185 70.1491C265.298 70.1491 265.373 70.0362 265.373 69.9232V54.0716C265.373 53.9587 265.26 53.8457 265.185 53.8457Z" fill="#F2E6D6"/>
<path d="M268.31 53.1677C268.197 53.1677 268.122 53.2807 268.122 53.3936V69.923C268.122 70.0359 268.197 70.1489 268.31 70.1489C268.423 70.1489 268.498 70.0359 268.498 69.923V53.3936C268.498 53.2807 268.423 53.1677 268.31 53.1677Z" fill="#F2E6D6"/>
<path d="M271.473 47.0305C271.36 47.0305 271.285 47.1435 271.285 47.2564V69.9231C271.285 70.0361 271.36 70.149 271.473 70.149C271.586 70.149 271.661 70.0361 271.661 69.9231V47.2564C271.661 47.1435 271.586 47.0305 271.473 47.0305Z" fill="#F2E6D6"/>
<path d="M274.636 45.8257C274.523 45.8257 274.447 45.9386 274.447 46.0516V69.9231C274.447 70.0361 274.523 70.149 274.636 70.149C274.749 70.149 274.824 70.0361 274.824 69.9231V46.0516C274.786 45.9386 274.711 45.8257 274.636 45.8257Z" fill="#F2E6D6"/>
<path d="M277.761 46.6165C277.648 46.6165 277.573 46.7294 277.573 46.8424V69.9232C277.573 70.0362 277.648 70.1491 277.761 70.1491C277.874 70.1491 277.949 70.0362 277.949 69.9232V46.8424C277.949 46.6918 277.874 46.6165 277.761 46.6165Z" fill="#F2E6D6"/>
<path d="M280.924 48.6497C280.811 48.6497 280.735 48.7626 280.735 48.8756V69.9232C280.735 70.0362 280.811 70.1491 280.924 70.1491C281.037 70.1491 281.112 70.0362 281.112 69.9232V48.8756C281.112 48.7626 281.037 48.6497 280.924 48.6497Z" fill="#F2E6D6"/>
<path d="M284.086 49.9297C283.973 49.9297 283.898 50.0426 283.898 50.1556V69.923C283.898 70.036 283.973 70.149 284.086 70.149C284.199 70.149 284.275 70.036 284.275 69.923V50.1556C284.237 50.005 284.162 49.9297 284.086 49.9297Z" fill="#F2E6D6"/>
<path d="M287.212 49.5908C287.099 49.5908 287.023 49.7038 287.023 49.8167V69.9231C287.023 70.036 287.099 70.149 287.212 70.149C287.324 70.149 287.4 70.036 287.4 69.9231V49.8167C287.4 49.7038 287.324 49.5908 287.212 49.5908Z" fill="#F2E6D6"/>
<path d="M284.839 49.1014C284.614 49.1767 284.425 49.2897 284.237 49.4026C284.011 49.5156 283.823 49.6285 283.597 49.7038C282.618 50.0051 281.639 49.0637 280.735 48.1601C280.547 47.9718 280.321 47.7459 280.133 47.5577C277.836 45.4491 274.673 44.9596 272.038 46.3904C271.172 46.8799 270.494 47.4824 270.042 48.1977C269.59 48.9508 269.364 49.8168 269.138 50.6828C268.913 51.5865 268.649 52.4525 268.197 53.0925C267.369 54.2598 265.712 54.3727 264.771 53.3561C263.905 52.4524 263.641 51.0217 263.378 49.4779C263.076 47.8212 262.775 46.1269 261.646 45.0726C260.742 44.2066 259.537 43.943 257.843 44.2066C257.542 44.2443 257.24 44.3196 256.939 44.3949C256.035 44.5831 255.169 44.7714 254.303 44.6208C252.91 44.3949 251.668 43.3029 250.538 42.324C249.522 41.458 248.467 40.4037 248.392 38.9729C248.392 38.8976 248.392 38.86 248.392 38.7847C248.392 38.4082 248.354 37.9187 248.053 37.5422C247.79 37.2409 247.451 37.2409 247.225 37.2033C245.455 37.0527 243.497 36.8644 242.405 35.283C242.029 34.7182 241.765 34.0028 241.539 33.2498C241.238 32.3085 240.899 31.3295 240.259 30.6141C239.732 30.0494 239.13 29.7105 238.49 29.5222V30.4635C238.979 30.6141 239.431 30.8777 239.77 31.2919C240.297 31.8943 240.56 32.7227 240.862 33.6263C241.125 34.417 241.389 35.2454 241.841 35.9231C243.121 37.8434 245.38 38.0316 247.187 38.1822C247.3 38.1822 247.488 38.2199 247.564 38.2952C247.639 38.3705 247.639 38.6341 247.677 38.8976C247.677 38.9729 247.677 39.0482 247.677 39.0859C247.752 40.8932 248.994 42.0981 250.124 43.1147C251.291 44.1313 252.609 45.2985 254.19 45.5621C255.169 45.7127 256.111 45.5244 257.052 45.3362C257.353 45.2609 257.654 45.2232 257.956 45.1856C259.424 44.9596 260.478 45.1856 261.194 45.8633C262.097 46.7293 262.361 48.1977 262.662 49.7791C262.963 51.3982 263.265 53.0549 264.319 54.1468C264.884 54.7492 265.637 55.0505 266.39 55.0505C267.293 55.0505 268.197 54.6363 268.8 53.8079C269.364 53.0172 269.628 52.0383 269.891 51.0593C270.117 50.231 270.306 49.4779 270.72 48.8378C271.096 48.2354 271.661 47.7083 272.414 47.2941C274.749 46.0139 277.723 46.4657 279.756 48.3484C279.945 48.5366 280.133 48.7249 280.359 48.9131C281.375 49.9297 282.505 51.0593 283.86 50.6451C284.124 50.5698 284.388 50.4192 284.614 50.2686C284.802 50.1557 284.952 50.0804 285.141 50.0051C285.969 49.6662 286.835 49.9298 287.701 50.1933C288.341 50.3816 288.981 50.5698 289.659 50.5698V49.6662C289.056 49.6662 288.454 49.4779 287.852 49.2897C286.873 48.9884 285.894 48.6872 284.839 49.1014Z" fill="#F2E6D6"/>
<path d="M247.149 39.5376C248.085 39.5376 248.844 38.779 248.844 37.8433C248.844 36.9075 248.085 36.1489 247.149 36.1489C246.214 36.1489 245.455 36.9075 245.455 37.8433C245.455 38.779 246.214 39.5376 247.149 39.5376Z" fill="#D8CDC0"/>
<path d="M235.176 60.6984H235.063C235.063 60.5855 235.101 60.4725 235.176 60.3595C235.251 60.2842 235.364 60.2466 235.477 60.2466C235.59 60.2466 235.703 60.2842 235.779 60.3595C235.854 60.4348 235.891 60.5478 235.891 60.6231C235.891 60.6984 235.891 60.7737 235.854 60.849C235.816 60.9243 235.741 60.9996 235.628 61.1126L235.289 61.4515H235.891V61.5644H234.988L235.477 60.9996C235.59 60.8867 235.666 60.8114 235.666 60.7737C235.703 60.7361 235.703 60.6608 235.703 60.6231C235.703 60.5478 235.666 60.4725 235.628 60.4348C235.59 60.3972 235.515 60.3595 235.44 60.3595C235.364 60.3595 235.289 60.3972 235.214 60.4348C235.214 60.5101 235.176 60.5855 235.176 60.6984Z" fill="#D8CDC0"/>
<path d="M236.117 60.2466H236.23V61.0373L236.682 60.6608H236.87L236.343 61.1126L236.908 61.6397H236.72L236.23 61.1879V61.6397H236.117V60.2466Z" fill="#D8CDC0"/>
<path d="M235.214 53.1301H235.063C235.101 53.0172 235.138 52.9419 235.214 52.8666C235.289 52.7913 235.364 52.7913 235.477 52.7913C235.553 52.7913 235.628 52.7913 235.666 52.8289C235.741 52.8666 235.778 52.9042 235.816 52.9419C235.854 52.9795 235.854 53.0548 235.854 53.0925C235.854 53.2054 235.779 53.2807 235.666 53.356C235.741 53.3937 235.778 53.4313 235.816 53.469C235.891 53.5443 235.891 53.6196 235.891 53.6949C235.891 53.7702 235.854 53.8455 235.816 53.9208C235.778 53.9961 235.741 54.0338 235.666 54.0714C235.59 54.1091 235.515 54.1091 235.44 54.1091C235.327 54.1091 235.214 54.0714 235.138 53.9961C235.063 53.9208 235.025 53.8455 234.988 53.6949H235.101C235.138 53.7702 235.138 53.8455 235.214 53.8832C235.251 53.9208 235.327 53.9585 235.44 53.9585C235.553 53.9585 235.628 53.9208 235.666 53.8832C235.703 53.8455 235.741 53.7702 235.741 53.6949C235.741 53.6573 235.741 53.582 235.703 53.5443C235.666 53.5067 235.628 53.469 235.59 53.4313C235.553 53.3937 235.477 53.3937 235.364 53.3937V53.2807C235.44 53.2807 235.477 53.2807 235.515 53.2431C235.553 53.2054 235.59 53.2054 235.628 53.1678C235.666 53.1301 235.666 53.0925 235.666 53.0548C235.666 52.9795 235.628 52.9419 235.59 52.9042C235.553 52.8666 235.477 52.8289 235.402 52.8289C235.327 52.8289 235.289 52.8289 235.251 52.8666C235.289 52.9795 235.251 53.0548 235.214 53.1301Z" fill="#D8CDC0"/>
<path d="M236.117 52.7913H236.23V53.582L236.682 53.2054H236.87L236.343 53.6573L236.908 54.1844H236.72L236.23 53.7326V54.1844H236.117V52.7913Z" fill="#D8CDC0"/>
<path d="M235.741 45.2983L235.778 46.2396H235.929V46.3526H235.778V46.6538H235.666V46.3526H235.025L235.741 45.2983ZM235.628 46.2396V45.6749L235.251 46.2396H235.628Z" fill="#D8CDC0"/>
<path d="M236.117 45.2983H236.23V46.089L236.682 45.7125H236.87L236.343 46.1643L236.908 46.6915H236.72L236.23 46.2396V46.6915H236.117V45.2983Z" fill="#D8CDC0"/>
<path d="M235.854 37.881V37.9939H235.402L235.327 38.3704C235.402 38.3704 235.44 38.3328 235.477 38.3328C235.59 38.3328 235.703 38.3705 235.778 38.4458C235.854 38.5211 235.891 38.634 235.891 38.747C235.891 38.8223 235.854 38.8976 235.816 38.9729C235.778 39.0482 235.703 39.0858 235.666 39.1235C235.59 39.1611 235.515 39.1988 235.44 39.1988C235.327 39.1988 235.251 39.1611 235.176 39.0858C235.101 39.0105 235.063 38.9352 235.025 38.8223H235.176C235.176 38.8599 235.214 38.8976 235.214 38.9352C235.251 38.9729 235.289 39.0105 235.327 39.0105C235.364 39.0482 235.402 39.0482 235.44 39.0482C235.515 39.0482 235.59 39.0105 235.666 38.9352C235.741 38.8599 235.741 38.7846 235.741 38.6717C235.741 38.5964 235.703 38.5211 235.666 38.4458C235.628 38.4081 235.553 38.3704 235.44 38.3704C235.364 38.3704 235.251 38.4081 235.138 38.4458L235.251 37.8057H235.854V37.881Z" fill="#D8CDC0"/>
<path d="M236.117 37.8433H236.23V38.634L236.682 38.2574H236.87L236.343 38.7093L236.908 39.2364H236.72L236.23 38.7846V39.2364H236.117V37.8433Z" fill="#D8CDC0"/>
<path d="M235.628 30.3506L235.741 30.4259L235.364 30.953C235.402 30.953 235.44 30.9154 235.515 30.9154C235.628 30.9154 235.703 30.953 235.779 31.0283C235.854 31.1036 235.891 31.1789 235.891 31.2919C235.891 31.3672 235.891 31.4425 235.854 31.4802C235.816 31.5555 235.779 31.5931 235.703 31.6308C235.628 31.6684 235.553 31.6684 235.477 31.6684C235.402 31.6684 235.327 31.6684 235.289 31.6308C235.214 31.5931 235.176 31.5555 235.138 31.4802C235.101 31.4048 235.101 31.3295 235.101 31.2919C235.101 31.2542 235.101 31.1789 235.138 31.1036C235.176 31.0283 235.214 30.9907 235.251 30.8777L235.628 30.3506ZM235.477 31.066C235.402 31.066 235.327 31.1036 235.289 31.1413C235.251 31.1789 235.214 31.2542 235.214 31.3295C235.214 31.4048 235.251 31.4802 235.289 31.5178C235.327 31.5555 235.402 31.5931 235.477 31.5931C235.553 31.5931 235.628 31.5555 235.666 31.5178C235.703 31.4802 235.741 31.4048 235.741 31.3295C235.741 31.2542 235.703 31.1789 235.666 31.1413C235.628 31.1036 235.59 31.066 235.477 31.066Z" fill="#D8CDC0"/>
<path d="M236.117 30.3506H236.23V31.1413L236.682 30.7648H236.87L236.343 31.2166L236.908 31.7437H236.72L236.23 31.2919V31.7437H236.117V30.3506Z" fill="#D8CDC0"/>
<path d="M235.289 67.7769H235.553V69.0947H235.44V67.8898H235.214L235.289 67.7769Z" fill="#D8CDC0"/>
<path d="M236.117 67.7393H236.23V68.53L236.682 68.1534H236.87L236.343 68.6053L236.908 69.1324H236.72L236.23 68.6806V69.1324H236.117V67.7393Z" fill="#D8CDC0"/>
<path d="M283.107 32.572H264.093V33.2498H283.107V32.572Z" fill="#D8CDC0"/>
<path d="M276.819 34.3794H264.093V35.0571H276.819V34.3794Z" fill="#F2E6D6"/>
<path d="M283.107 39.613H264.093V40.2908H283.107V39.613Z" fill="#D8CDC0"/>
<path d="M276.819 41.3826H264.093V42.0603H276.819V41.3826Z" fill="#F2E6D6"/>
<path d="M280.773 36.1489H264.093V36.8267H280.773V36.1489Z" fill="#F2E6D6"/>
<path d="M287.965 88.8999C283.973 87.1302 279.53 86.5654 274.749 87.1679C270.381 87.7326 265.9 89.2387 261.194 90.8201L260.968 90.8954C254.718 93.004 251.103 91.6485 246.886 90.1047C244.815 89.314 242.631 88.5233 240.033 88.1092C235.929 87.4691 232.955 87.7326 231.147 88.0715C229.302 88.4104 228.587 88.7869 228.436 88.8622L228.625 89.314C228.7 89.2764 229.378 88.8999 231.223 88.561C232.992 88.2221 235.929 87.9586 239.996 88.5986C242.556 88.9752 244.702 89.8035 246.773 90.5566C249.446 91.5732 251.894 92.4768 254.944 92.4768C256.713 92.4768 258.709 92.1756 261.081 91.3473L261.307 91.272C266.013 89.6906 270.419 88.1845 274.786 87.6573C279.493 87.0549 283.898 87.6197 287.814 89.3517C287.927 89.3893 288.04 89.3517 288.078 89.2011C288.153 89.0881 288.078 88.9375 287.965 88.8999Z" fill="#D8CDC0"/>
<path d="M230.206 109.533H227.834V110.211H230.206V109.533Z" fill="#F2E6D6"/>
<path d="M231.411 76.4746H227.872V76.9641H231.411V76.4746Z" fill="#F2E6D6"/>
<path d="M232.917 77.416H227.872V77.9055H232.917V77.416Z" fill="white"/>
<path d="M246.698 76.4746H242.518V76.9641H246.698V76.4746Z" fill="#F2E6D6"/>
<path d="M245.192 77.416H242.518V77.9055H245.192V77.416Z" fill="white"/>
<path d="M260.215 76.4746H257.617V76.9641H260.215V76.4746Z" fill="#F2E6D6"/>
<path d="M260.629 77.416H257.617V77.9055H260.629V77.416Z" fill="white"/>
<path d="M276.217 76.4746H272.452V76.9641H276.217V76.4746Z" fill="#F2E6D6"/>
<path d="M275.464 77.416H272.452V77.9055H275.464V77.416Z" fill="white"/>
<path d="M289.433 76.4746H287.174V76.9641H289.433V76.4746Z" fill="#F2E6D6"/>
<path d="M288.981 77.416H287.174V77.9055H288.981V77.416Z" fill="white"/>
<path d="M245.041 109.533H242.669V110.211H245.041V109.533Z" fill="#F2E6D6"/>
<path d="M259.951 109.533H257.579V110.211H259.951V109.533Z" fill="#F2E6D6"/>
<path d="M274.786 109.533H272.414V110.211H274.786V109.533Z" fill="#F2E6D6"/>
<path d="M289.621 109.533H287.249V110.211H289.621V109.533Z" fill="#F2E6D6"/>
<path d="M275.765 83.1014C274.862 83.7415 274.033 84.3062 273.355 84.8334C269.929 87.3561 268.385 88.4856 264.582 86.2265C261.909 84.6451 256.563 84.0427 251.404 83.4402C247.375 82.9884 243.61 82.5742 241.2 81.7082C237.36 80.3527 233.708 83.4402 231.298 85.5111C230.206 86.4524 229.227 87.2808 228.738 87.2431C228.625 87.2431 228.549 87.3561 228.549 87.469C228.549 87.6196 228.625 87.6949 228.738 87.7326C229.378 87.7326 230.281 86.9795 231.561 85.8876C234.046 83.7791 237.473 80.8799 241.125 82.1601C243.573 83.0261 247.375 83.4402 251.404 83.8921C256.525 84.4568 261.834 85.0593 264.47 86.603C265.938 87.469 267.105 87.8455 268.159 87.8455C269.967 87.8455 271.435 86.7536 273.619 85.1722C274.334 84.6451 275.125 84.0803 276.029 83.4402C284.086 77.9053 288.19 80.7669 288.228 80.8046C288.341 80.8799 288.454 80.8422 288.492 80.7293C288.567 80.6163 288.529 80.4657 288.416 80.3904C288.228 80.3527 284.086 77.4159 275.765 83.1014Z" fill="#D8CDC0"/>
<path d="M274.862 81.7083C273.958 82.3484 273.13 82.9131 272.452 83.4403C269.025 85.963 267.482 87.0925 263.679 84.8334C261.006 83.252 255.659 82.6496 250.501 82.0471C246.472 81.5953 242.707 81.1811 240.297 80.3151C236.456 78.9597 232.804 82.0471 230.394 84.118C229.302 85.0593 228.323 85.85 227.834 85.85C227.721 85.85 227.646 85.963 227.646 86.0759C227.646 86.2265 227.721 86.3019 227.834 86.3019C228.474 86.3019 229.378 85.5488 230.658 84.4569C233.143 82.3484 236.569 79.4491 240.221 80.7293C242.669 81.5953 246.472 82.0095 250.501 82.4613C255.621 83.0261 260.93 83.6285 263.566 85.1723C265.034 86.0383 266.202 86.4148 267.256 86.4148C269.063 86.4148 270.532 85.3229 272.715 83.7415C273.431 83.2144 274.222 82.6496 275.125 82.0095C283.183 76.4746 287.287 79.3362 287.324 79.3738C287.437 79.4491 287.55 79.4115 287.588 79.2985C287.663 79.1856 287.626 79.035 287.513 78.9597C287.324 78.922 283.183 75.9851 274.862 81.7083Z" fill="#F2E6D6"/>
<path d="M287.362 87.3938C283.371 85.6241 278.928 85.0593 274.146 85.6618C269.779 86.2265 265.298 87.7326 260.591 89.314L260.328 89.3893C254.078 91.4979 250.463 90.1424 246.246 88.5986C244.175 87.8079 241.991 87.0172 239.393 86.6031C235.289 85.963 232.315 86.2265 230.507 86.5654C228.662 86.9043 227.947 87.2808 227.796 87.3561L227.985 87.8079C228.06 87.7703 228.738 87.3938 230.583 87.0549C232.352 86.716 235.289 86.4524 239.356 87.0925C241.916 87.4691 244.062 88.2974 246.133 89.0505C248.806 90.0671 251.254 90.9707 254.303 90.9707C256.073 90.9707 258.069 90.6695 260.441 89.8412L260.667 89.7659C265.373 88.1845 269.779 86.6784 274.146 86.1512C278.853 85.5488 283.258 86.1136 287.174 87.8456C287.287 87.8832 287.4 87.8456 287.437 87.695C287.513 87.582 287.475 87.4691 287.362 87.3938Z" fill="#F2E6D6"/>
<path d="M227.985 78.8467H227.759V108.404H227.985V78.8467Z" fill="#F2E6D6"/>
<path d="M242.782 78.8467H242.556V108.404H242.782V78.8467Z" fill="#F2E6D6"/>
<path d="M257.617 78.8467H257.391V108.404H257.617V78.8467Z" fill="#F2E6D6"/>
<path d="M272.452 78.8467H272.226V108.404H272.452V78.8467Z" fill="#F2E6D6"/>
<path d="M287.287 78.8467H287.061V108.404H287.287V78.8467Z" fill="#F2E6D6"/>
<path d="M199.971 52.9042H206.862V52.4524H199.971V52.9042Z" fill="#D8CDC0"/>
<path d="M192.365 51.5487H206.937V51.0969H192.365V51.5487Z" fill="#F2E6D6"/>
<path d="M195.378 50.1933H207.05L207.087 49.7415H195.378V50.1933Z" fill="#F2E6D6"/>
<path d="M197.147 52.9042H199.256V52.4524H197.185L197.147 52.9042Z" fill="#D8CDC0"/>
<path d="M208.179 44.9972H212.848V44.5454H208.179V44.9972Z" fill="#D8CDC0"/>
<path d="M202.795 43.6418H212.848V43.1899H202.833L202.795 43.6418Z" fill="#F2E6D6"/>
<path d="M206.184 44.9972H207.69V44.5454H206.184V44.9972Z" fill="#D8CDC0"/>
<path d="M202.08 36.4501H206.749V35.9983H202.08V36.4501Z" fill="#D8CDC0"/>
<path d="M202.08 37.8058H212.133V37.354H202.08V37.8058Z" fill="#F2E6D6"/>
<path d="M207.238 36.4501H208.744V35.9983H207.238V36.4501Z" fill="#D8CDC0"/>
<path d="M196.47 34.6052C194.625 34.6052 193.156 36.1113 193.156 37.9186H196.47V41.232C198.314 41.232 199.783 39.7259 199.783 37.9186C199.783 36.0737 198.277 34.6052 196.47 34.6052Z" fill="#D8CDC0"/>
<path d="M196.432 37.881V33.4004C193.947 33.4004 191.951 35.396 191.951 37.881C191.951 40.3661 193.947 42.3616 196.432 42.3616C198.917 42.3616 200.913 40.3661 200.913 37.881H196.432Z" fill="#F2E6D6"/>
<path d="M219.513 47.2565C222.008 47.2565 224.031 45.2336 224.031 42.7382C224.031 40.2429 222.008 38.22 219.513 38.22C217.017 38.22 214.994 40.2429 214.994 42.7382C214.994 45.2336 217.017 47.2565 219.513 47.2565Z" fill="#D8CDC0"/>
<path d="M222.826 38.2199L222.638 38.0693C222.374 37.881 222.073 37.6928 221.734 37.5422C221.621 37.5045 221.546 37.4669 221.433 37.4292L219.513 42.7382L224.407 39.9143C224.182 39.5377 223.918 39.1612 223.617 38.86C223.391 38.6341 223.127 38.4458 222.826 38.2199Z" fill="#F2E6D6"/>
<path d="M222.901 59.1545H220.868V70.149H222.901V59.1545Z" fill="#F2E6D6"/>
<path d="M218.082 53.6196H216.049V70.149H218.082V53.6196Z" fill="#F2E6D6"/>
<path d="M213.262 60.4348H211.229V70.1491H213.262V60.4348Z" fill="#F2E6D6"/>
<path d="M208.481 67.6641H206.447V70.1491H208.481V67.6641Z" fill="#F2E6D6"/>
<path d="M203.661 58.1003H201.628V70.1491H203.661V58.1003Z" fill="#F2E6D6"/>
<path d="M198.842 61.0747H196.808V70.1489H198.842V61.0747Z" fill="#F2E6D6"/>
<path d="M194.022 68.304H191.989V70.1489H194.022V68.304Z" fill="#F2E6D6"/>
<path d="M167.327 63.8612C167.138 63.8612 166.988 63.8612 166.837 63.8612C166.461 63.8612 166.272 63.8236 166.122 63.8236C158.667 63.2211 154.487 57.4227 154.261 52.0384C154.261 51.8878 154.261 51.6996 154.261 51.4736V51.323L166.461 51.1724L168.268 39.0107L169.209 39.199C169.435 39.2367 169.623 39.2743 169.812 39.312C174.819 40.2909 178.735 44.395 179.564 49.4404V49.4781C179.564 49.5157 179.564 49.591 179.601 49.6287C179.601 49.6663 179.601 49.7416 179.639 49.7793C179.714 50.4194 179.752 50.9089 179.752 51.323C179.752 51.5489 179.752 51.7372 179.752 51.9631C179.639 54.8247 178.472 57.611 176.552 59.7571C174.631 61.9033 171.996 63.2965 169.209 63.7106C168.419 63.8236 167.816 63.8612 167.327 63.8612ZM166.047 63.5224H166.122C166.272 63.5224 166.461 63.56 166.8 63.56C167.327 63.5977 168.117 63.56 169.021 63.4471C174.744 62.5811 179.112 57.7616 179.338 51.9255C179.338 51.7372 179.338 51.5113 179.338 51.2854C179.338 50.9089 179.3 50.4194 179.225 49.7793C179.225 49.7416 179.225 49.6663 179.187 49.6287C179.187 49.591 179.187 49.5157 179.149 49.4781V49.4404C178.359 44.4703 174.518 40.5168 169.623 39.5379C169.435 39.5002 169.285 39.4626 169.021 39.4249L168.343 39.2743L166.536 51.3983L154.374 51.5489C154.374 51.6996 154.374 51.8502 154.374 51.9631C154.751 57.2721 158.817 62.8823 166.047 63.5224Z" fill="#D8CDC0"/>
<path d="M148.839 45.8633V46.0139L161.829 45.8633L155.353 34.9065L154.751 35.2077C151.212 37.3915 148.802 41.3827 148.839 45.8633Z" fill="#D8CDC0"/>
<path d="M155.579 49.1767C155.579 49.3649 155.579 49.5532 155.579 49.7415C155.843 55.314 159.646 62.4679 170.264 61.3384C176.024 60.7359 180.467 55.5776 180.693 49.7038C180.693 49.4779 180.693 49.2896 180.693 49.0637C180.693 48.6872 180.656 48.1977 180.58 47.5576C179.903 42.2487 175.648 37.881 170.301 37.0903L169.473 36.9397L167.666 49.0637L155.579 49.1767Z" fill="#F2E6D6"/>
<path d="M168.117 61.4891C164.691 61.4891 161.867 60.5478 159.683 58.6652C157.236 56.5566 155.73 53.2809 155.579 49.7416C155.579 49.591 155.579 49.4027 155.579 49.1768V49.1391L167.778 48.9885L169.586 36.8645L170.452 37.0528C173.05 37.4293 175.497 38.6718 177.38 40.5921C179.225 42.5123 180.43 44.9597 180.769 47.5577C180.844 48.1978 180.881 48.6873 180.881 49.1015C180.881 49.3274 180.881 49.5157 180.881 49.7416C180.769 52.6408 179.639 55.3894 177.719 57.5732C175.761 59.7571 173.163 61.1502 170.414 61.4138C169.548 61.4514 168.795 61.4891 168.117 61.4891ZM155.617 49.2144C155.617 49.4027 155.617 49.5533 155.617 49.7039C155.767 53.2432 157.274 56.4813 159.683 58.5899C162.281 60.849 165.858 61.7527 170.226 61.2632C175.911 60.6607 180.354 55.6906 180.618 49.6663C180.618 49.4404 180.618 49.2521 180.618 49.0262C180.618 48.612 180.58 48.1602 180.505 47.5201C179.79 42.1358 175.61 37.8811 170.264 37.0904L169.511 36.9398L167.703 49.0638H167.666L155.617 49.2144Z" fill="#D8CDC0"/>
<path d="M166.272 47.4448L168.193 34.3042L167.402 34.1536C166.31 34.003 165.143 33.9653 163.9 34.1536C162.244 34.3795 160.738 34.9443 159.382 35.7726L166.272 47.4448Z" fill="#F2E6D6"/>
<path d="M159.42 66.4591L159.382 66.1955C162.583 65.6684 164.729 63.6351 165.783 60.2088C166.574 57.6108 166.423 55.1634 166.423 55.1257H166.687C166.687 55.1634 166.837 57.6484 166.047 60.2841C164.992 63.7858 162.695 65.9319 159.42 66.4591Z" fill="#D8CDC0"/>
<path d="M160.06 65.0659L160.286 65.2165L159.495 66.3084L160.625 66.9862L160.512 67.2121L159.118 66.3837L160.06 65.0659Z" fill="#D8CDC0"/>
<path d="M161.378 35.2077C161.302 35.1701 159.985 34.2288 159.796 32.7227C159.683 31.819 160.022 30.9154 160.813 30.0117L161.001 30.2C160.286 31.0283 159.947 31.8567 160.06 32.685C160.21 34.0782 161.528 34.9818 161.528 34.9818L161.378 35.2077Z" fill="#D8CDC0"/>
<path d="M161.189 31.4801L160.926 31.5178L160.85 30.1623L159.533 30.3506L159.495 30.087L161.114 29.8611L161.189 31.4801Z" fill="#D8CDC0"/>
<path d="M148.839 50.344C148.162 46.2399 151.324 44.9597 151.362 44.9597L151.475 45.2233C151.362 45.2609 148.501 46.4282 149.141 50.3063L148.839 50.344Z" fill="#F2E6D6"/>
<path d="M147.785 49.591L147.973 49.4027L148.99 50.2311L149.743 49.1392L149.969 49.2898L149.028 50.6076L147.785 49.591Z" fill="#F2E6D6"/>
<path d="M171.996 29.2585H164.955V29.5221H171.996V29.2585Z" fill="#D8CDC0"/>
<path d="M169.699 29.9365H164.955V30.2001H169.699V29.9365Z" fill="#D8CDC0"/>
<path d="M171.167 30.5764H164.955V30.84H171.167V30.5764Z" fill="#D8CDC0"/>
<path d="M163.448 31.1036C164.031 31.1036 164.503 30.6316 164.503 30.0494C164.503 29.4671 164.031 28.9951 163.448 28.9951C162.866 28.9951 162.394 29.4671 162.394 30.0494C162.394 30.6316 162.866 31.1036 163.448 31.1036Z" fill="#F2E6D6"/>
<path d="M169.059 68.2664H162.018V68.5299H169.059V68.2664Z" fill="#D8CDC0"/>
<path d="M166.762 68.9065H162.018V69.1701H166.762V68.9065Z" fill="#D8CDC0"/>
<path d="M168.23 69.5842H162.018V69.8478H168.23V69.5842Z" fill="#D8CDC0"/>
<path d="M160.512 70.149C159.909 70.149 159.382 69.6595 159.382 69.0195C159.382 68.3794 159.872 67.8899 160.512 67.8899C161.152 67.8899 161.641 68.3794 161.641 69.0195C161.641 69.6595 161.114 70.149 160.512 70.149ZM160.512 68.0029C159.947 68.0029 159.495 68.4547 159.495 69.0195C159.495 69.5842 159.947 70.0361 160.512 70.0361C161.076 70.0361 161.528 69.5842 161.528 69.0195C161.528 68.4547 161.076 68.0029 160.512 68.0029Z" fill="#D8CDC0"/>
<path d="M150.195 53.1301H143.154V53.3937H150.195V53.1301Z" fill="#D8CDC0"/>
<path d="M150.195 52.4902H145.451V52.7538H150.195V52.4902Z" fill="#D8CDC0"/>
<path d="M150.233 51.8125H144.02V52.0761H150.233V51.8125Z" fill="#D8CDC0"/>
<path d="M151.927 53.6198C152.509 53.6198 152.981 53.1477 152.981 52.5655C152.981 51.9832 152.509 51.5112 151.927 51.5112C151.345 51.5112 150.873 51.9832 150.873 52.5655C150.873 53.1477 151.345 53.6198 151.927 53.6198Z" fill="#D8CDC0"/>
<path d="M339.435 231.564H306.941C306.64 231.564 306.377 231.301 306.377 231C306.377 230.698 306.64 230.435 306.941 230.435H339.435C339.736 230.435 340 230.698 340 231C340 231.301 339.736 231.564 339.435 231.564Z" fill="#1B2E4E"/>
<path d="M299.787 231.564H63.1805C62.8793 231.564 62.6157 231.301 62.6157 231C62.6157 230.698 62.8793 230.435 63.1805 230.435H299.787C300.089 230.435 300.352 230.698 300.352 231C300.352 231.301 300.089 231.564 299.787 231.564Z" fill="#1B2E4E"/>
<path d="M56.0266 231.564H0.564784C0.263566 231.564 0 231.301 0 231C0 230.698 0.263566 230.435 0.564784 230.435H56.0266C56.3278 230.435 56.5914 230.698 56.5914 231C56.5914 231.301 56.3654 231.564 56.0266 231.564Z" fill="#1B2E4E"/>
</svg>
