<svg width="13" height="13" viewBox="0 0 13 13" fill="none" xmlns="http://www.w3.org/2000/svg">
<path d="M11.56 3.19454H8.47527C8.80195 3.05305 9.11729 2.89784 9.37224 2.74159L9.37312 2.74103C9.72748 2.51956 10.0316 2.32386 10.2515 2.1304C10.4703 1.93789 10.6247 1.73153 10.6487 1.48389C10.6799 1.24313 10.5646 1.01837 10.3731 0.826866L10.3731 0.826826L10.3704 0.824301C10.0116 0.487057 9.55961 0.462778 9.11518 0.576391C8.67339 0.689331 8.21842 0.942732 7.82275 1.19162L7.82271 1.19165C7.18354 1.59409 6.64735 2.32904 6.32361 2.83384C5.99923 2.3205 5.46257 1.59462 4.82254 1.19165L4.8225 1.19162C4.42654 0.942549 3.96848 0.689261 3.5252 0.576364C3.07986 0.462945 2.62686 0.486647 2.27397 0.825129L2.27396 0.825111L2.2722 0.826866C2.08069 1.01837 1.96533 1.24314 1.99651 1.48389C2.02055 1.73154 2.17492 1.93789 2.39375 2.1304C2.61366 2.32386 2.91778 2.51956 3.27213 2.74103L3.27213 2.74104L3.27302 2.74158C3.52797 2.89784 3.84331 3.05305 4.16998 3.19454H1.08527C0.879614 3.19454 0.711849 3.3623 0.711849 3.56795V5.79256C0.711849 5.99821 0.879614 6.16598 1.08527 6.16598H1.65254V11.7291C1.65254 11.9347 1.82031 12.1025 2.02596 12.1025H10.632C10.8377 12.1025 11.0054 11.9347 11.0054 11.7291V6.16598H11.5727C11.7784 6.16598 11.9461 5.99821 11.9461 5.79256V3.56795H11.9466L11.9456 3.55716C11.9279 3.36212 11.7675 3.19454 11.56 3.19454ZM8.98169 2.09286L8.98104 2.09325C8.50346 2.38395 7.76844 2.67747 7.16854 2.89235C7.45004 2.49682 7.82097 2.06388 8.21666 1.81285C8.92493 1.37022 9.33273 1.24642 9.5642 1.24642C9.72386 1.24642 9.80778 1.29783 9.86129 1.35134C9.88439 1.37444 9.89925 1.39338 9.90814 1.40694C9.90599 1.41051 9.90331 1.41467 9.89998 1.41944C9.88494 1.44096 9.86186 1.4675 9.83017 1.49856C9.76686 1.5606 9.67882 1.63137 9.57823 1.70466C9.37769 1.8508 9.13986 1.99796 8.98169 2.09286ZM2.73711 1.40696C2.74599 1.39339 2.76086 1.37445 2.78396 1.35134C2.8177 1.31761 2.86001 1.287 2.91979 1.26762C2.98024 1.24801 3.06523 1.23773 3.18685 1.25479C3.43354 1.28942 3.81682 1.4345 4.41566 1.81271C4.81429 2.06553 5.18793 2.50318 5.46993 2.90719C4.86982 2.69243 4.13278 2.39847 3.65358 2.10723C3.62121 2.08566 3.58549 2.06212 3.54741 2.03703C3.40274 1.94171 3.22404 1.82396 3.06628 1.70687C2.96621 1.6326 2.8784 1.56137 2.81513 1.499C2.78346 1.46779 2.76037 1.44116 2.74531 1.41956C2.74196 1.41474 2.73926 1.41055 2.73711 1.40696ZM1.45868 3.94137H5.94921V5.41915H2.02596H1.45868V3.94137ZM2.39937 6.16598H5.94921V11.3557H2.39937V6.16598ZM10.2459 11.3557H6.69604V6.16598H10.2459V11.3557ZM11.1866 5.41915H10.6193H6.69604V3.94137H11.1866V5.41915Z" fill="#030303" stroke="#030303" stroke-width="0.238351"/>
</svg>
