<svg width="13" height="13" viewBox="0 0 13 13" fill="none" xmlns="http://www.w3.org/2000/svg">
<path d="M3.91657 11.2125C2.32817 10.3815 1.24469 8.72021 1.24469 6.80005C1.24469 4.04724 3.4695 1.82243 6.22231 1.82243V1.82267L6.22888 1.82219C6.44117 1.80649 6.60548 1.62959 6.60548 1.41673C6.60548 1.20373 6.44114 1.02698 6.22893 1.01116L6.16742 1.00658L6.16522 1.01134C2.99787 1.04202 0.433154 3.62579 0.433154 6.80015C0.433154 8.71263 1.36498 10.4073 2.79741 11.4611H2.1062H2.10556V11.5502M3.91657 11.2125L1.8163 11.5779M3.91657 11.2125V9.65111C3.91256 9.44131 4.06918 9.26295 4.27789 9.24006M3.91657 11.2125L2.1062 12.2725M2.10556 11.5502C2.02084 11.549 1.93912 11.5818 1.87881 11.6413M2.10556 11.5502H2.92187H2.10556ZM1.87881 11.6413L1.8163 11.5779M1.87881 11.6413C1.8184 11.7008 1.78438 11.7821 1.78438 11.8668C1.78438 11.9516 1.8184 12.0328 1.87881 12.0923L1.81624 12.1557C1.81626 12.1557 1.81628 12.1558 1.8163 12.1558M1.87881 11.6413L1.81624 11.5779C1.81626 11.5779 1.81628 11.5779 1.8163 11.5779M1.8163 11.5779C1.73891 11.6541 1.69532 11.7582 1.69532 11.8668C1.69532 11.9755 1.73892 12.0795 1.8163 12.1558M1.8163 12.1558C1.89346 12.2319 1.99792 12.2739 2.1062 12.2725M1.8163 12.1558L2.1062 12.2725M2.1062 12.2725H4.32229C4.54629 12.2725 4.72799 12.091 4.72799 11.8668V9.6511M4.72799 9.6511C4.73023 9.53458 4.68227 9.42277 4.59622 9.34405M4.72799 9.6511V9.65021H4.63895L4.72797 9.65215C4.72798 9.6518 4.72798 9.65145 4.72799 9.6511ZM4.59622 9.34405C4.51006 9.26514 4.39406 9.22721 4.27789 9.24006M4.59622 9.34405C4.59624 9.34407 4.59625 9.34409 4.59627 9.3441L4.5361 9.40977L4.59622 9.34405ZM4.27789 9.24006C4.27786 9.24006 4.27782 9.24007 4.27779 9.24007L4.2876 9.32859L4.27789 9.24006ZM7.71652 1.73364C7.71577 1.5238 7.87518 1.34788 8.08416 1.32821L8.36142 1.30212L8.33163 1.32787H10.3383H10.3389V1.41693C10.4236 1.41572 10.5053 1.44852 10.5656 1.50805C10.626 1.56758 10.6601 1.64876 10.6601 1.73358C10.6601 1.81829 10.626 1.89958 10.5656 1.95911C10.5053 2.01864 10.4236 2.05145 10.3389 2.05023L7.71652 1.73364ZM7.71652 1.73364V3.94954V1.73364ZM9.64683 2.13929H10.3383L5.99535 11.958C5.93504 12.0175 5.90103 12.0988 5.90103 12.1835C5.90103 12.2683 5.93504 12.3495 5.99535 12.409C6.05576 12.4686 6.13749 12.5014 6.2222 12.5003V12.5893C6.22238 12.5893 6.22256 12.5893 6.22274 12.5893C9.41602 12.589 12.0113 9.99346 12.0113 6.80025C12.0113 4.88807 11.0792 3.19374 9.64683 2.13929ZM6.2222 11.7778V11.8669L7.80558 3.95014C7.80436 4.03496 7.83717 4.11658 7.8967 4.17699C7.95623 4.23741 8.03752 4.27131 8.12223 4.27131C8.20705 4.27131 8.28823 4.23741 8.34776 4.17699C8.40729 4.11658 8.44009 4.03496 8.43887 3.95014H8.52794V3.94958V2.39279C10.1164 3.22347 11.1998 4.88034 11.1998 6.80018C11.1998 9.5528 8.97532 11.7775 6.22277 11.7778C6.22258 11.7778 6.22239 11.7778 6.2222 11.7778Z" fill="#030303" stroke="#030303" stroke-width="0.178125"/>
</svg>
