<svg width="12" height="20" viewBox="0 0 12 20" fill="none" xmlns="http://www.w3.org/2000/svg">
<path d="M8.14746 13.7529C8.14746 13.1924 7.99023 12.748 7.67578 12.4199C7.36816 12.085 6.8418 11.7773 6.09668 11.4971C5.35156 11.2168 4.70898 10.9399 4.16895 10.6665C3.62891 10.3862 3.16406 10.0684 2.77441 9.71289C2.3916 9.35059 2.09082 8.92676 1.87207 8.44141C1.66016 7.95605 1.5542 7.37842 1.5542 6.7085C1.5542 5.55322 1.92334 4.60645 2.66162 3.86816C3.3999 3.12988 4.38086 2.69922 5.60449 2.57617V0.381836H7.24512V2.60693C8.45508 2.77783 9.40186 3.28369 10.0854 4.12451C10.769 4.9585 11.1108 6.04199 11.1108 7.375H8.14746C8.14746 6.55469 7.97656 5.94287 7.63477 5.53955C7.2998 5.12939 6.84863 4.92432 6.28125 4.92432C5.7207 4.92432 5.28662 5.08496 4.979 5.40625C4.67139 5.7207 4.51758 6.1582 4.51758 6.71875C4.51758 7.23828 4.66797 7.65527 4.96875 7.96973C5.26953 8.28418 5.82666 8.60547 6.64014 8.93359C7.46045 9.26172 8.13379 9.57275 8.66016 9.8667C9.18652 10.1538 9.63086 10.4819 9.99316 10.8511C10.3555 11.2134 10.6323 11.6304 10.8237 12.1021C11.0151 12.5669 11.1108 13.1104 11.1108 13.7324C11.1108 14.8945 10.7485 15.8379 10.0239 16.5625C9.29932 17.2871 8.30127 17.7144 7.02979 17.8442V19.8848H5.39941V17.8545C3.99805 17.7041 2.91113 17.2085 2.13867 16.3677C1.37305 15.52 0.990234 14.3955 0.990234 12.9941H3.95361C3.95361 13.8076 4.14502 14.4331 4.52783 14.8706C4.91748 15.3013 5.47461 15.5166 6.19922 15.5166C6.80078 15.5166 7.27588 15.3594 7.62451 15.0449C7.97314 14.7236 8.14746 14.293 8.14746 13.7529Z" fill="black"/>
</svg>
