<svg width="18" height="18" viewBox="0 0 18 18" fill="none" xmlns="http://www.w3.org/2000/svg">
<path d="M11.2499 7.49303e-05C11.1505 -0.00132988 11.0519 0.0170313 10.9596 0.0540917C10.8674 0.091152 10.7835 0.146172 10.7127 0.215955C10.6419 0.285738 10.5857 0.368891 10.5474 0.460583C10.509 0.552275 10.4893 0.650676 10.4893 0.750069C10.4893 0.849461 10.509 0.947863 10.5474 1.03955C10.5857 1.13125 10.6419 1.2144 10.7127 1.28418C10.7835 1.35397 10.8674 1.40899 10.9596 1.44605C11.0519 1.48311 11.1505 1.50147 11.2499 1.50006H14.9999C15.8439 1.50006 16.4999 2.15608 16.4999 3.00005V6.75002C16.4985 6.8494 16.5168 6.94807 16.5539 7.0403C16.591 7.13252 16.646 7.21646 16.7158 7.28724C16.7855 7.35801 16.8687 7.41422 16.9604 7.45258C17.0521 7.49094 17.1505 7.51069 17.2499 7.51069C17.3493 7.51069 17.4477 7.49094 17.5394 7.45258C17.6311 7.41422 17.7142 7.35801 17.784 7.28724C17.8538 7.21646 17.9088 7.13252 17.9459 7.0403C17.9829 6.94807 18.0013 6.8494 17.9999 6.75002V3.00005C17.9999 1.35104 16.6489 7.49303e-05 14.9999 7.49303e-05H11.2499Z" fill="white"/>
<path d="M3.00005 7.49303e-05C1.35104 7.49303e-05 7.49303e-05 1.35104 7.49303e-05 3.00005V6.75002C-0.00132988 6.8494 0.0170313 6.94807 0.0540917 7.0403C0.091152 7.13252 0.146172 7.21646 0.215955 7.28724C0.285738 7.35801 0.368891 7.41422 0.460583 7.45258C0.552275 7.49094 0.650676 7.51069 0.750069 7.51069C0.849461 7.51069 0.947863 7.49094 1.03955 7.45258C1.13125 7.41422 1.2144 7.35801 1.28418 7.28724C1.35397 7.21646 1.40899 7.13252 1.44605 7.0403C1.48311 6.94807 1.50147 6.8494 1.50006 6.75002V3.00005C1.50006 2.15608 2.15608 1.50006 3.00005 1.50006H6.75002C6.8494 1.50147 6.94807 1.48311 7.0403 1.44605C7.13252 1.40899 7.21646 1.35397 7.28724 1.28418C7.35801 1.2144 7.41422 1.13125 7.45258 1.03955C7.49094 0.947863 7.51069 0.849461 7.51069 0.750069C7.51069 0.650676 7.49094 0.552275 7.45258 0.460583C7.41422 0.368891 7.35801 0.285738 7.28724 0.215955C7.21646 0.146172 7.13252 0.091152 7.0403 0.0540917C6.94807 0.0170313 6.8494 -0.00132988 6.75002 7.49303e-05H3.00005Z" fill="white"/>
<path d="M0.739811 10.4898C0.540901 10.4925 0.351218 10.5742 0.21249 10.7167C0.0737618 10.8593 -0.00264772 11.0512 7.00978e-05 11.2501V15C7.00978e-05 16.649 1.35103 18 3.00005 18H6.75001C6.8494 18.0014 6.94807 17.983 7.04029 17.946C7.13252 17.9089 7.21646 17.8539 7.28723 17.7841C7.35801 17.7143 7.41421 17.6312 7.45257 17.5395C7.49093 17.4478 7.51068 17.3494 7.51068 17.25C7.51068 17.1506 7.49093 17.0522 7.45257 16.9605C7.41421 16.8688 7.35801 16.7857 7.28723 16.7159C7.21646 16.6461 7.13252 16.5911 7.04029 16.554C6.94807 16.517 6.8494 16.4986 6.75001 16.5H3.00005C2.15608 16.5 1.50006 15.844 1.50006 15V11.2501C1.50143 11.1498 1.4827 11.0504 1.44498 10.9575C1.40726 10.8647 1.35131 10.7803 1.28044 10.7094C1.20957 10.6386 1.12521 10.5826 1.03236 10.5449C0.939501 10.5072 0.840027 10.4884 0.739811 10.4898Z" fill="white"/>
<path d="M17.2396 10.4898C17.0407 10.4925 16.851 10.5742 16.7123 10.7167C16.5736 10.8593 16.4972 11.0512 16.4999 11.2501V15C16.4999 15.844 15.8439 16.5 14.9999 16.5H11.2499C11.1505 16.4986 11.0519 16.517 10.9596 16.554C10.8674 16.5911 10.7835 16.6461 10.7127 16.7159C10.6419 16.7857 10.5857 16.8688 10.5474 16.9605C10.509 17.0522 10.4893 17.1506 10.4893 17.25C10.4893 17.3494 10.509 17.4478 10.5474 17.5395C10.5857 17.6312 10.6419 17.7143 10.7127 17.7841C10.7835 17.8539 10.8674 17.9089 10.9596 17.946C11.0519 17.983 11.1505 18.0014 11.2499 18H14.9999C16.6489 18 17.9999 16.649 17.9999 15V11.2501C18.0012 11.1498 17.9825 11.0504 17.9448 10.9575C17.9071 10.8647 17.8511 10.7803 17.7803 10.7094C17.7094 10.6386 17.625 10.5826 17.5322 10.5449C17.4393 10.5072 17.3398 10.4884 17.2396 10.4898Z" fill="white"/>
</svg>
