<svg width="24" height="25" viewBox="0 0 24 25" fill="none" xmlns="http://www.w3.org/2000/svg">
<g clip-path="url(#clip0_456_7634)">
<path d="M12 15.6547C13.6569 15.6547 15 14.3115 15 12.6547C15 10.9978 13.6569 9.65466 12 9.65466C10.3431 9.65466 9 10.9978 9 12.6547C9 14.3115 10.3431 15.6547 12 15.6547Z" stroke="#030303" stroke-width="1.5" stroke-linecap="round" stroke-linejoin="round"/>
<path d="M19.4 15.6547C19.2669 15.9563 19.2272 16.2909 19.286 16.6153C19.3448 16.9396 19.4995 17.239 19.73 17.4747L19.79 17.5347C19.976 17.7204 20.1235 17.941 20.2241 18.1838C20.3248 18.4266 20.3766 18.6868 20.3766 18.9497C20.3766 19.2125 20.3248 19.4727 20.2241 19.7155C20.1235 19.9583 19.976 20.1789 19.79 20.3647C19.6043 20.5506 19.3837 20.6981 19.1409 20.7988C18.8981 20.8994 18.6378 20.9512 18.375 20.9512C18.1122 20.9512 17.8519 20.8994 17.6091 20.7988C17.3663 20.6981 17.1457 20.5506 16.96 20.3647L16.9 20.3047C16.6643 20.0741 16.365 19.9195 16.0406 19.8607C15.7162 19.8018 15.3816 19.8415 15.08 19.9747C14.7842 20.1014 14.532 20.3119 14.3543 20.5802C14.1766 20.8485 14.0813 21.1629 14.08 21.4847V21.6547C14.08 22.1851 13.8693 22.6938 13.4942 23.0689C13.1191 23.4439 12.6104 23.6547 12.08 23.6547C11.5496 23.6547 11.0409 23.4439 10.6658 23.0689C10.2907 22.6938 10.08 22.1851 10.08 21.6547V21.5647C10.0723 21.2337 9.96512 20.9127 9.77251 20.6434C9.5799 20.3741 9.31074 20.1689 9 20.0547C8.69838 19.9215 8.36381 19.8818 8.03941 19.9407C7.71502 19.9995 7.41568 20.1541 7.18 20.3847L7.12 20.4447C6.93425 20.6306 6.71368 20.7781 6.47088 20.8788C6.22808 20.9794 5.96783 21.0312 5.705 21.0312C5.44217 21.0312 5.18192 20.9794 4.93912 20.8788C4.69632 20.7781 4.47575 20.6306 4.29 20.4447C4.10405 20.2589 3.95653 20.0383 3.85588 19.7955C3.75523 19.5527 3.70343 19.2925 3.70343 19.0297C3.70343 18.7668 3.75523 18.5066 3.85588 18.2638C3.95653 18.021 4.10405 17.8004 4.29 17.6147L4.35 17.5547C4.58054 17.319 4.73519 17.0196 4.794 16.6953C4.85282 16.3709 4.81312 16.0363 4.68 15.7347C4.55324 15.4389 4.34276 15.1866 4.07447 15.009C3.80618 14.8313 3.49179 14.7359 3.17 14.7347H3C2.46957 14.7347 1.96086 14.5239 1.58579 14.1489C1.21071 13.7738 1 13.2651 1 12.7347C1 12.2042 1.21071 11.6955 1.58579 11.3204C1.96086 10.9454 2.46957 10.7347 3 10.7347H3.09C3.42099 10.7269 3.742 10.6198 4.0113 10.4272C4.28059 10.2346 4.48572 9.9654 4.6 9.65466C4.73312 9.35305 4.77282 9.01847 4.714 8.69407C4.65519 8.36968 4.50054 8.07034 4.27 7.83466L4.21 7.77466C4.02405 7.58892 3.87653 7.36834 3.77588 7.12554C3.67523 6.88275 3.62343 6.62249 3.62343 6.35966C3.62343 6.09683 3.67523 5.83658 3.77588 5.59378C3.87653 5.35099 4.02405 5.13041 4.21 4.94466C4.39575 4.75871 4.61632 4.61119 4.85912 4.51054C5.10192 4.4099 5.36217 4.35809 5.625 4.35809C5.88783 4.35809 6.14808 4.4099 6.39088 4.51054C6.63368 4.61119 6.85425 4.75871 7.04 4.94466L7.1 5.00466C7.33568 5.2352 7.63502 5.38985 7.95941 5.44867C8.28381 5.50749 8.61838 5.46778 8.92 5.33466H9C9.29577 5.2079 9.54802 4.99742 9.72569 4.72913C9.90337 4.46084 9.99872 4.14645 10 3.82466V3.65466C10 3.12423 10.2107 2.61552 10.5858 2.24045C10.9609 1.86538 11.4696 1.65466 12 1.65466C12.5304 1.65466 13.0391 1.86538 13.4142 2.24045C13.7893 2.61552 14 3.12423 14 3.65466V3.74466C14.0013 4.06645 14.0966 4.38084 14.2743 4.64913C14.452 4.91742 14.7042 5.1279 15 5.25466C15.3016 5.38778 15.6362 5.42749 15.9606 5.36867C16.285 5.30985 16.5843 5.1552 16.82 4.92466L16.88 4.86466C17.0657 4.67871 17.2863 4.53119 17.5291 4.43054C17.7719 4.3299 18.0322 4.27809 18.295 4.27809C18.5578 4.27809 18.8181 4.3299 19.0609 4.43054C19.3037 4.53119 19.5243 4.67871 19.71 4.86466C19.896 5.05041 20.0435 5.27099 20.1441 5.51378C20.2448 5.75658 20.2966 6.01683 20.2966 6.27966C20.2966 6.54249 20.2448 6.80275 20.1441 7.04554C20.0435 7.28834 19.896 7.50892 19.71 7.69466L19.65 7.75466C19.4195 7.99034 19.2648 8.28968 19.206 8.61407C19.1472 8.93847 19.1869 9.27305 19.32 9.57466V9.65466C19.4468 9.95043 19.6572 10.2027 19.9255 10.3804C20.1938 10.558 20.5082 10.6534 20.83 10.6547H21C21.5304 10.6547 22.0391 10.8654 22.4142 11.2404C22.7893 11.6155 23 12.1242 23 12.6547C23 13.1851 22.7893 13.6938 22.4142 14.0689C22.0391 14.4439 21.5304 14.6547 21 14.6547H20.91C20.5882 14.6559 20.2738 14.7513 20.0055 14.929C19.7372 15.1066 19.5268 15.3589 19.4 15.6547V15.6547Z" stroke="#030303" stroke-width="1.5" stroke-linecap="round" stroke-linejoin="round"/>
</g>
<defs>
<clipPath id="clip0_456_7634">
<rect width="24" height="24" fill="white" transform="translate(0 0.654663)"/>
</clipPath>
</defs>
</svg>
