<svg width="24" height="25" viewBox="0 0 24 25" fill="none" xmlns="http://www.w3.org/2000/svg">
<path d="M9.33333 11.338H4C3.60217 11.338 3.22064 11.1799 2.93934 10.8986C2.65804 10.6173 2.5 10.2358 2.5 9.83797V4.50464C2.5 4.10681 2.65804 3.72528 2.93934 3.44398C3.22064 3.16267 3.60217 3.00464 4 3.00464H9.33333C9.73116 3.00464 10.1127 3.16267 10.394 3.44398C10.6753 3.72528 10.8333 4.10681 10.8333 4.50464V9.83797C10.8333 10.2358 10.6753 10.6173 10.394 10.8986C10.1127 11.1799 9.73116 11.338 9.33333 11.338ZM3.17504 3.67968C2.95625 3.89847 2.83333 4.19522 2.83333 4.50464V9.83797C2.83333 10.1474 2.95625 10.4441 3.17504 10.6629C3.39383 10.8817 3.69058 11.0046 4 11.0046H9.33333C9.64275 11.0046 9.9395 10.8817 10.1583 10.6629C10.3771 10.4441 10.5 10.1474 10.5 9.83797V4.50464C10.5 4.19522 10.3771 3.89847 10.1583 3.67968C9.9395 3.46089 9.64275 3.33797 9.33333 3.33797H4C3.69058 3.33797 3.39383 3.46089 3.17504 3.67968Z" fill="#030303" stroke="#030303"/>
<path d="M4 22.5047H9.33333C9.86377 22.5047 10.3725 22.294 10.7475 21.9189C11.1226 21.5439 11.3333 21.0352 11.3333 20.5047V15.1714C11.3333 14.641 11.1226 14.1322 10.7475 13.7572C10.3725 13.3821 9.86377 13.1714 9.33333 13.1714H4C3.46957 13.1714 2.96086 13.3821 2.58579 13.7572C2.21071 14.1322 2 14.641 2 15.1714V20.5047C2 21.0352 2.21071 21.5439 2.58579 21.9189C2.96086 22.294 3.46957 22.5047 4 22.5047ZM3.33333 15.1714C3.33333 14.9946 3.40357 14.825 3.5286 14.7C3.65362 14.575 3.82319 14.5047 4 14.5047H9.33333C9.51014 14.5047 9.67971 14.575 9.80474 14.7C9.92976 14.825 10 14.9946 10 15.1714V20.5047C10 20.6815 9.92976 20.8511 9.80474 20.9761C9.67971 21.1011 9.51014 21.1714 9.33333 21.1714H4C3.82319 21.1714 3.65362 21.1011 3.5286 20.9761C3.40357 20.8511 3.33333 20.6815 3.33333 20.5047V15.1714Z" fill="#030303"/>
<path d="M17.3333 13.1714C16.4104 13.1714 15.5081 13.4451 14.7407 13.9579C13.9732 14.4706 13.3751 15.1995 13.0219 16.0522C12.6687 16.9049 12.5763 17.8432 12.7563 18.7485C12.9364 19.6537 13.3809 20.4852 14.0335 21.1379C14.6861 21.7905 15.5177 22.235 16.4229 22.4151C17.3282 22.5951 18.2665 22.5027 19.1192 22.1495C19.9719 21.7963 20.7007 21.1981 21.2135 20.4307C21.7263 19.6633 22 18.761 22 17.8381C21.9986 16.6008 21.5065 15.4146 20.6316 14.5398C19.7567 13.6649 18.5706 13.1728 17.3333 13.1714ZM17.3333 21.1714C16.6741 21.1714 16.0296 20.9759 15.4814 20.6096C14.9333 20.2433 14.506 19.7228 14.2537 19.1137C14.0014 18.5046 13.9354 17.8344 14.064 17.1878C14.1927 16.5411 14.5101 15.9472 14.9763 15.481C15.4425 15.0149 16.0364 14.6974 16.683 14.5688C17.3296 14.4402 17.9999 14.5062 18.6089 14.7585C19.218 15.0107 19.7386 15.438 20.1049 15.9862C20.4712 16.5343 20.6667 17.1788 20.6667 17.8381C20.6656 18.7218 20.3141 19.569 19.6892 20.1939C19.0643 20.8188 18.2171 21.1703 17.3333 21.1714Z" fill="#030303"/>
<path d="M20 2.50464H14.6667C14.1362 2.50464 13.6275 2.71535 13.2525 3.09043C12.8774 3.4655 12.6667 3.97421 12.6667 4.50464V9.83797C12.6667 10.3684 12.8774 10.8771 13.2525 11.2522C13.6275 11.6273 14.1362 11.838 14.6667 11.838H20C20.5304 11.838 21.0391 11.6273 21.4142 11.2522C21.7893 10.8771 22 10.3684 22 9.83797V4.50464C22 3.97421 21.7893 3.4655 21.4142 3.09043C21.0391 2.71535 20.5304 2.50464 20 2.50464ZM20.6667 9.83797C20.6667 10.0148 20.5964 10.1844 20.4714 10.3094C20.3464 10.4344 20.1768 10.5046 20 10.5046H14.6667C14.4899 10.5046 14.3203 10.4344 14.1953 10.3094C14.0702 10.1844 14 10.0148 14 9.83797V4.50464C14 4.32783 14.0702 4.15826 14.1953 4.03323C14.3203 3.90821 14.4899 3.83797 14.6667 3.83797H20C20.1768 3.83797 20.3464 3.90821 20.4714 4.03323C20.5964 4.15826 20.6667 4.32783 20.6667 4.50464V9.83797Z" fill="#030303"/>
</svg>
