<svg xmlns="http://www.w3.org/2000/svg" version="1.1" xmlns:xlink="http://www.w3.org/1999/xlink" xmlns:svgjs="http://svgjs.com/svgjs" width="512" height="512" x="0" y="0" viewBox="0 0 510.244 510.244" style="enable-background:new 0 0 512 512" xml:space="preserve" class=""><g><path d="M144.411.845c-30.464-5.647-58.579 17.736-58.579 48.719v97.326h338.581V93.955c0-23.882-17.036-44.365-40.517-48.718L144.411.845zm280.001 203.851H85.832v23.386a49.547 49.547 0 0 0 21.605 40.917l94.008 64.201v127.496c0 27.365 22.184 49.548 49.548 49.548h16.516c27.365 0 49.548-22.184 49.548-49.548V327.56l85.75-58.561a49.55 49.55 0 0 0 21.605-40.917v-23.386z" style="fill-rule:evenodd;clip-rule:evenodd;" fill="#000000" data-original="#000000"></path></g></svg>