<svg width="22" height="19" viewBox="0 0 22 19" fill="none" xmlns="http://www.w3.org/2000/svg">
<path d="M20.5922 5.18864V8.1353H13.3294C12.5797 8.1353 11.96 8.75503 11.96 9.50475V12.5514C11.96 13.3011 12.5797 13.9209 13.3294 13.9209H20.5922V16.8675C20.5922 17.243 20.3061 17.5292 19.9306 17.5292H2.66611C2.29059 17.5292 2.00444 17.243 2.00444 16.8675V4.3156C2.28184 4.44953 2.59239 4.52697 2.92 4.52697H2.92009C6.82118 4.5235 11.0285 4.52477 14.8693 4.52592C16.6586 4.52646 18.3684 4.52697 19.9306 4.52697C20.3061 4.52697 20.5922 4.81312 20.5922 5.18864ZM13.3292 9.35086H13.3294H20.5922V12.7053H13.3294C13.2786 12.7053 13.2414 12.688 13.2172 12.6637C13.1929 12.6394 13.1756 12.6022 13.1756 12.5514V9.50475C13.1756 9.45392 13.1929 9.41664 13.2172 9.39233C13.2415 9.36805 13.2786 9.35075 13.3292 9.35086ZM2.92 0.264746C1.74832 0.264746 0.788885 1.22418 0.788885 2.39586V16.8675C0.788885 17.8986 1.63508 18.7447 2.66611 18.7447H19.9306C20.9616 18.7447 21.8078 17.8986 21.8078 16.8675V5.18864C21.8078 4.15761 20.9616 3.31141 19.9306 3.31141H18.7611V0.872524C18.7611 0.551421 18.4744 0.264777 18.1533 0.264746H2.92ZM2.92 1.4803H17.5456V3.31141H2.92C2.40382 3.31141 2.00444 2.91203 2.00444 2.39586C2.00444 1.87968 2.40382 1.4803 2.92 1.4803ZM15.8683 9.91252C15.2522 9.91252 14.7528 10.412 14.7528 11.0281C14.7528 11.6442 15.2522 12.1436 15.8683 12.1436C16.4844 12.1436 16.9839 11.6442 16.9839 11.0281C16.9839 10.412 16.4844 9.91252 15.8683 9.91252Z" fill="#030303" stroke="#030303" stroke-width="0.2"/>
</svg>
